/* XPM */
static char *_76b85ab879842a4ece0c90d6993716d5nYNlfIc13EjryhI[] = {
/* columns rows colors chars-per-pixel */
"64 64 15 1 ",
"  c #000100",
". c #010402",
"X c #010703",
"o c #010A03",
"O c #020D05",
"+ c #031808",
"@ c #031B0A",
"# c #04240D",
"$ c #052C10",
"% c #063312",
"& c #073A15",
"* c #084318",
"= c #094D1B",
"- c #0A591F",
"; c #0C6624",
/* pixels */
";;;;;;;;;;;;;;;;;;;;;;;;;;;;;===;;;;;;;;;;;;;;;;;;;;;;;;;;;;;;;;",
";;;;;;;;;;;;;;;;;;;;;;;;;==&&*===;;;;;;;;;;;;;;;;;;;;;;;;;;;;;;;",
";;;;;;;;;;;;;;;;;;;;;;;*&=&%$XoO=&&===;;;;;;;;;;;;;;;;;;;;;;;;;;",
";;;;;;;;;;;;;;;;;;;;;-$&&XX  .XXX&&&;===;;;;;;;;;;;;;;;;;;;;;;;;",
";;;;;;;;;;;;;;;;;;;;*&=. O .    X XXXX=&&==;;;;;;;;;;;;;;;;;;;;;",
";;;;;;;;;;;;;;;;;;;**# OO          X$Xoo&=&=;;;;;;;;;;;;;;;;;;;;",
";;;;;;;;;;;;;;;;;;==..;               X XXo=&&;;;;;;;;;;;;;;;;;;",
";;;;;;;;;;;;;;;;;=*.#;                   XXX;&&;;;;;;;;;;;;;;;;;",
";;;;;;;;;;;;;;;;**O#;                      X o&&=;;;;;;;;;;;;;;;",
";;;;;;;;;;;;;;;&=oO;                          o&==;;;;;;;;;;;;;;",
";;;;;;;;;;;;;;=&.O;                             &&=;;;;;;;;;;;;;",
";;;;;;;;;;;;;;& ;O      o==o                     =&;;;;;;;;;;;;;",
";;;;;;;;;;;;;&ooO      ==#XO;;;;;==               &&;;;;;;;;;;;;",
";;;;;;;;;;;;=& O      *;oO;;;;;;;;;;;o            O&;;;;;;;;;;;;",
";;;;;;;;;;;;& -      =;##;;;;;;;;;;;;;;=           &=;;;;;;;;;;;",
";;;;;;;;;;;=XO      o;##;;;;;;;;;;;;;;;;;O         O&;;;;;;;;;;;",
";;;;;;;;;;;- o     X;##;;;;;;;;;;;;;;;;;;;O         &;;;;;;;;;;;",
";;;;;;;;;;;X@      =OO;;;;;;;;;;;;;;;;;;;;;Oo       =&;;;;;;;;;;",
";;;;;;;;;;=@      XOO;;;;;;;;;;;;;;;;;;;;;;OOo      O&;;;;;;;;;;",
";;;;;;;;;;*       =OO;;;;;;;;;;;;;;;;;;;;;;;Oo       &=;;;;;;;;;",
";;;;;;;;;=X       OO;;;;;;;;;;;;;;;;;;;;;;;;O;o      o=;;;;;;;;;",
";;;;;;;;;& *      O;;;;;;;;;;;;;;;;;;;;;;;;;;Oo       =;;;;;;;;;",
";;;;;;;;=o       OO;;;;;;;;;;;;;;;;;;;;;;;;;;O=       =;;;;;;;;;",
";;;;;;;;= o      O;;;;;;;;;;;;;;;;;;;;;;;;;;;OO       =;;;;;;;;;",
";;;;;;;;o       ##;;;;;;;;;;;;;;;;;;;;;;;;;;;;O       =;;;;;;;;;",
";;;;;;;;o      XOO;;;;;;;;;;;;;;;;;;;;;;;;;;;;OX      =;;;;;;;;;",
";;;;;;;;       oO;;;;;;;;;;;;;;;;;;;;;;;;;;;;;OX      =;;;;;;;;;",
";;;;;;;;       @#;;;;;;;;;;;;;;;;;;;;;;;;;;;;;OX      =;;;;;;;;;",
";;;;;;;OX      o;;;;;;;;;;;;;;;;;;;;;;;;;;;;;;OX      =;;;;;;;;;",
";;;;;;;OX      o;;;;;;;;;;;;;;;;;;;;;;;;;;;;;;o       =;;;;;;;;;",
";;;;;;;OX      =;;;;;;;;;;;;;;;;;;;;;;;;;;;;;;o       =;;;;;;;;;",
";;;;;;;OX      =;;;;;;;;;;;;;;;;;;;;;;;;;;;;;;        =;;;;;;;;;",
";;;;;;;Oo      &;;;;;;;;;;;;;;;;;;;;;;;;;;;;;; X      ;;;;;;;;;;",
";;;;;;;Oo      &;;;;;;;;;;;;;;;;;;;;;;;;;;;;;=        ;;;;;;;;;;",
";;;;;;;O=      ==;;;;;;;;;;;;;;;;;;;;;;;;;;;;=       o;;;;;;;;;;",
";;;;;;;O=      o=;;;;;;;;;;;;;;;;;;;;;;;;;;;;        o;;;;;;;;;;",
";;;;;;;O=.      &;;;;;;;;;;;;;;;;;;;;;;;;;;;; X      O;;;;;;;;;;",
";;;;;;;O;       &;;;;;;;;;;;;;;;;;;;;;;;;;;;=        O;;;;;;;;;;",
";;;;;;;;Oo      ==;;;;;;;;;;;;;;;;;;;;;;;;;;&       o;;;;;;;;;;;",
";;;;;;;;O=      o=;;;;;;;;;;;;;;;;;;;;;;;;;=        O;;;;;;;;;;;",
";;;;;;;;O=       &;;;;;;;;;;;;;;;;;;;;;;;;;= X      O;;;;;;;;;;;",
";;;;;;;;O;       &;;;;;;;;;;;;;;;;;;;;;;;;;X        O;;;;;;;;;;;",
";;;;;;;;;O       &=;;;;;;;;;;;;;;;;;;;;;;;=X       O;;;;;;;;;;;;",
";;;;;;;;;O=      o=;;;;;;;;;;;;;;;;;;;;;;;&        O;;;;;;;;;;;;",
";;;;;;;;;O=       &;;;;;;;;;;;;;;;;;;;;;;=X       OO;;;;;;;;;;;;",
";;;;;;;;;O=       &;;;;;;;;;;;;;;;;;;;;;;&        O;;;;;;;;;;;;;",
";;;;;;;;;OO       &&;;;;;;;;;;;;;;;;;;;;=X       oO;;;;;;;;;;;;;",
";;;;;;;;;;Oo      o&;;;;;;;;;;;;;;;;;;;;& o       O;;;;;;;;;;;;;",
";;;;;;;;;;O=       &$;;;;;;;;;;;;;;;;;;$X.       O;;;;;;;;;;;;;;",
";;;;;;;;;;O=o      O$&=;;;;;;;;;;;;;;=$&       XOO;;;;;;;;;;;;;;",
";;;;;;;;;;OOo       o==&===;;;;;;;;;&#& .      oO;;;;;;;;;;;;;;;",
";;;;;;;;;;;Oo        XX&&======;;;=$#o Oo     oOO;;;;;;;;;;;;;;;",
";;;;;;;;;;;OOoo       XXXoX&&=;=&&$&  O      XO O;;;;;;;;;;;;;;;",
";;;;;;;;;;;;OO           $XXoXX$@$o  =      o=OO;;;;;;;;;;;;;;;;",
";;;;;;;;;;;;;OoX             $$X   o=       =OO;;;;;;;;;;;;;;;;;",
";;;;;;;;;;;;;OOOX                o         &;OO;;;;;;;;;;;;;;;;;",
";;;;;;;;;;;;;;;   X                       &;OO;;;;;;;;;;;;;;;;;;",
";;;;;;;;;;;;;;;;O                       X&;OO;;;;;;;;;;;;;;;;;;;",
";;;;;;;;;;;;;;;;;;O                    X&O.O;;;;;;;;;;;;;;;;;;;;",
";;;;;;;;;;;;;;;;;;;;=o                .=O O;;;;;;;;;;;;;;;;;;;;;",
";;;;;;;;;;;;;;;;;;;;;;;=o           X==O O;;;;;;;;;;;;;;;;;;;;;;",
";;;;;;;;;;;;;;;;;;;;;;;;;;==o     X=o  O;;;;;;;;;;;;;;;;;;;;;;;;",
";;;;;;;;;;;;;;;;;;;;;;;;;;;;;;;==o  .O;;;;;;;;;;;;;;;;;;;;;;;;;;",
";;;;;;;;;;;;;;;;;;;;;;;;;;;;;;;;;;;;;;;;;;;;;;;;;;;;;;;;;;;;;;;;"
};
