/* XPM */
static char *result[] = {
/* columns rows colors chars-per-pixel */
"64 64 28 1 ",
"  c black",
". c #000100",
"X c #000201",
"o c #000301",
"O c #000401",
"+ c #010402",
"@ c #010602",
"# c #010703",
"$ c #010803",
"% c #010A03",
"& c #010A04",
"* c #010B04",
"= c #020D05",
"- c #020F05",
"; c #021206",
": c #021407",
"> c #031808",
", c #031B0A",
"< c #031E0A",
"1 c #041F0B",
"2 c #04240D",
"3 c #052C10",
"4 c #063312",
"5 c #073A15",
"6 c #084318",
"7 c #094D1B",
"8 c #0A591F",
"9 c #0C6624",
/* pixels */
"9999999999999999999999999999999999999999999999999999999999999999",
"9999999999999999999999999999999999999999999999999999999999999999",
"9999999999999999999999999999999999999999999999999999999999999999",
"9999999999999999999999999999999999999999999999999999999999999999",
"9999999999999999999787878787779999999999999999999999999999999999",
"9999999999999999766787878777997899999999999999999999999999999999",
"9999999999999956566$>$;#;@-$#%7758999999999999999999999999999999",
"9999999999997366%++%1%2=2==%68%197689999999999999999999999999999",
"99999999999555X+X,%           #$#>977799999999999999999999999999",
"999999999975% 2=                .1$>9778999999999999999999999999",
"99999999995.%=                    o,>%98579999999999999999999999",
"9999999997#%=                       O1:>986999999999999999999999",
"9999999995.7                          #%$%7779999999999999999999",
"999999997#=         . . .   .@          o2*697999999999999999999",
"999999997.%      o$78%OOOOOO               *75999999999999999999",
"99999999%.      78%++=99999999.X .         .X9599999999999999999",
"99999999=.     O=X=9999999999999o  .        X=699999999999999999",
"99999999X     .#=99999999999999999%X          779999999999999999",
"99999999%      %%9999999999999999999O.O.     +*89999999999999999",
"9999999=7      .7999999999999999999999X.      O79999999999999999",
"9999999=7.      7999999999999999999999=9X     O89999999999999999",
"9999999=9.     X79999999999999999999999=.     O79999999999999999",
"99999999=.     X79999999999999999999999,@     +79999999999999999",
"99999999=7     X99999999999999999999999%O      89999999999999999",
"99999999=7     X99999999999999999999998o,     .99999999999999999",
"99999999=7=   %=99999999999999999999997.7     O99999999999999999",
"99999999=9== 9%=9999999999999999999999,.     .299999999999999999",
"9999999999==@9==9999999999999999999999$X     o=99999999999999999",
"99999999999979==9999999999999999999995.     o%=99999999999999999",
"99999999999999999999999999999999999976.     X1299999999999999999",
"9999999999999999999999999999999999996 7      =999999999999999999",
"999999999999999999999999999999999994#O%     =2999999999999999999",
"999999999999999999999999999999999735+X     o29999999999999999999",
"99999999999999999999999999999998465 =     O*=9999999999999999999",
"999999999999999999999999999999547= =$     ,==9999999999999999999",
"99999999999999999999999999997372 ==      @9229999999999999999999",
"999999999999999999999999986567XX9       .8==99999999999999999999",
"9999999999999999999999975767= 98        %==999999999999999999999",
"99999999999999999987865661+X*7         6922999999999999999999999",
"99999999999999997587767=X=*7          57==9999999999999999999999",
"999999999999996466>$1O.*,           .@9==99999999999999999999999",
"9999999999975467=X2*%=9          O@87,+X=99999999999999999999999",
"99999999955557+ =,              #672+=99999999999999999999999999",
"99999997533#. $7              o@79==9999999999999999999999999999",
"999999735...$7              o#872+=99999999999999999999999999999",
"9999997#...              .X<872+=9999999999999999999999999999999",
"999999=X=              X@87,OO1878878899999999999999999999999999",
"999999==            ..X::o.%677887889987888789999999999999999999",
"9999999                 .>6,%>::#:>$,>67778998788787899999999999",
"9999997                    O*,*22=2166,%>:>%>7668789977777899999",
"99999=%7                              *%1*166,$>:@,$:65689999999",
"99999==X                                     O*%1=,55##$$%,77899",
"9999999=X     &                                      .O%19999999",
"99999999977%.      .&                                      %,789",
"999999999999999871O.     .&                                 =299",
"999999999999999999999871O.   .....  O&                       299",
"999999999999999999999999999871OO%*OOO   .  .&               9999",
"99999999999999999999999999999999999999871OOo    .   O      78999",
"999999999999999999999999999999999999999999999871OO*      o<99999",
"9999999999999999999999999999999999999999999999999999977%...X+299",
"9999999999999999999999999999999999999999999999999999999999999999",
"9999999999999999999999999999999999999999999999999999999999999999",
"9999999999999999999999999999999999999999999999999999999999999999",
"9999999999999999999999999999999999999999999999999999999999999999"
};
