/* XPM */
static char *result[] = {
/* columns rows colors chars-per-pixel */
"64 64 32 1 ",
"  c black",
". c #000100",
"X c #000201",
"o c #000301",
"O c #000401",
"+ c #010402",
"@ c #010502",
"# c #010602",
"$ c #010703",
"% c #010803",
"& c #010A03",
"* c #010A04",
"= c #010B04",
"- c #020D05",
"; c #020E05",
": c #021006",
"> c #021206",
", c #021407",
"< c #021507",
"1 c #031608",
"2 c #031808",
"3 c #031B0A",
"4 c #041F0B",
"5 c #04220C",
"6 c #04240D",
"7 c #052C10",
"8 c #063312",
"9 c #073A15",
"0 c #084318",
"q c #094D1B",
"w c #0A591F",
"e c #0C6624",
/* pixels */
"eeeeeeeeeeeeeeeeeeeeeeeeeeeeeeeeeeeeeeeeeeeeeeeeeeeeeeeeeeeeeeee",
"eeeeeeeeeeeeeeeeeeeeeeeeeeeeeeeeeeeeeeeeeeeeeeeeeeeeeeeeeeeeeeee",
"eeeeeeeeeeeeeeeeeeeeeeeeeeeeeeeeeeeeeeeeeeeeeeeeeeeeeeeeeeeeeeee",
"eeeeeeeeeeeeeeeeeeeqqwqqwqqqweeeeeeeeeeeeeeeeeeeeeeeeeeeeeeeeeee",
"eeeeeeeeeeeeeeeeq99wqqwqqqweewqeeeeeeeeeeeeeeeeeeeeeeeeeeeeeeeee",
"eeeeeeeeeeeeee99990%$2##>#%&,qq0qeeeeeeeeeeeeeeeeeeeeeeeeeeeeeee",
"eeeeeeeeeeeeq799&XX3&&6---40q3&ew0eeeeeeeeeeeeeeeeeeeeeeeeeeeeee",
"eeeeeeeeeee999XXX&3          #,%=e9qeeeeeeeeeeeeeeeeeeeeeeeeeeee",
"eeeeeeeeeeq9- --               =&4qqweeeeeeeeeeeeeeeeeeeeeeeeeee",
"eeeeeeeeeeq.--                   .Xq9qeeeeeeeeeeeeeeeeeeeeeeeeee",
"eeeeeeeeee--e                     & wwqeeeeeeeeeeeeeeeeeeeeeeeee",
"eeeeeeeeee-e                       - qqqeeeeeeeeeeeeeeeeeeeeeeee",
"eeeeeeeeeee                o1       -Xq0eeeeeeeeeeeeeeeeeeeeeeee",
"eeeeeeeeee&      .%qq=.OO.O          X.e9eeeeeeeeeeeeeeeeeeeeeee",
"eeeeeeeee-qe   #qq&XX-eeeeeeeO.        -wqeeeeeeeeeeeeeeeeeeeeee",
"eeeeeeeee-e-- q9-X-eeeeeeeeeee-3,O      e9eeeeeeeeeeeeeeeeeeeeee",
"eeeeeeeeeee--#e--eeeeeeeeeeeeee--%     3Xwqeeeeeeeeeeeeeeeeeeeee",
"eeeeeeeeeeeeeqe--eeeeeeeeeeeeeee-=&     X-9eeeeeeeeeeeeeeeeeeeee",
"eeeeeeeeeeeeeeeeeeeeeeeeeeeeeeee6e&o     X0eeeeeeeeeeeeeeeeeeeee",
"eeeeeeeeeeeeeeeeeeeeeeeeeeeeeeeee-63      qqeeeeeeeeeeeeeeeeeeee",
"eeeeeeeeeeeeeeeeeeeeeeeeeeeeeeeeee-&     +=qeeeeeeeeeeeeeeeeeeee",
"eeeeeeeeeeeeeeeeeeeeeeeeeeeeeeeeee-0.     Xqeeeeeeeeeeeeeeeeeeee",
"eeeeeeeeeeeeeeeeeeeeeeeeeeeeeeeeee6q      Xweeeeeeeeeeeeeeeeeeee",
"eeeeeeeeeeeeeeeeeeeeeeeeeeeeeeeeeee.X     Oeeeeeeeeeeeeeeeeeeeee",
"eeeeeeeeeeeeeeeeeeeeeeeeeeeeeeeeee7.&     3eeeeeeeeeeeeeeeeeeeee",
"eeeeeeeeeeeeeeeq9qqwqweeeeeeeeqw979       &eeeeeeeeeeeeeeeeeeeee",
"eeeeeeeeeeeeeq9q9090wq90q90998099q        -eeeeeeeeeeeeeeeeeeeee",
"eeeeeeeeeeeeq75#.##;#>0799q790$,. .8     .-eeeeeeeeeeeeeeeeeeeee",
"eeeeeeeeeeeee&.$.o..*@..O ... X.#q      .66eeeeeeeeeeeeeeeeeeeee",
"eeeeeeeeeeee-XX       . oX- &%          .-eeeeeeeeeeeeeeeeeeeeee",
"eeeeeeeeeeeee-                         7$-eeeeeeeeeeeeeeeeeeeeee",
"eeeeeeeeeeeee                         O%&&qeeeeeeeeeeeeeeeeeeeee",
"eeeeeeeeeeeeq9                        o .9qqeeeeeeeeeeeeeeeeeeee",
"eeeeeeeeeee-X&&                          -99eeeeeeeeeeeeeeeeeeee",
"eeeeeeeeeeee-X                            .q9eeeeeeeeeeeeeeeeeee",
"eeeeeeeeeeeeee-.              o            &qqeeeeeeeeeeeeeeeeee",
"eeeeeeeeeeeeeeeeqq&.X.Xo          o1        e9eeeeeeeeeeeeeeeeee",
"eeeeeeeeeeeeeeeeeeeeeeeeeeeeeeeqw&         XXq9eeeeeeeeeeeeeeeee",
"eeeeeeeeeeeeeeeeeeeeeeeeeeeeeeeeeee-..      X-9eeeeeeeeeeeeeeeee",
"eeeeeeeeeeeeeeeeeeeeeeeeeeeeeeeeeeee--.       qqeeeeeeeeeeeeeeee",
"eeeeeeeeeeeeeeeeeeeeeeeeeeeeeeeeeeeee--#      -qeeeeeeeeeeeeeeee",
"eeeeeeeeeeeeeeeeeeeeeeeeeeeeeeeeeeeeee-.      .eeeeeeeeeeeeeeeee",
"eeeeeeeeeeeeeeeeeeeeeeeeeeeeeeeeeeeeee$$.     &eeeeeeeeeeeeeeeee",
"eeeeeeeeeeeeeeeeeeeeeeeeeeeeeeeeeeeeeq#       qeeeeeeeeeeeeeeeee",
"eeeeeeeeeeeeeeeweeeeeeeeeeeeeeeeeeeq97.&      eeeeeeeeeeeeeeeeee",
"eeeeeeeeeeeeeweqqqqwqwqqqqqqqqqqq9979& &      -eeeeeeeeeeeeeeeee",
"eeeeeeeeeeeew0q3qw0wqqqqqqqqqqqq979&X &     $--eeeeeeeeeeeeeeeee",
"eeeeeeeeeeeeq<9$%%#>#:###########.. &q     .&-eeeeeeeeeeeeeeeeee",
"eeeeeeeeeeee6-- ---4------------XX-        &--eeeeeeeeeeeeeeeeee",
"eeeeeeeeeeee--                            $e--eeeeeeeeeeeeeeeeee",
"eeeeeeeeeeeee                            qq--eeeeeeeeeeeeeeeeeee",
"eeeeeeeeeeeew                           @q--eeeeeeeeeeeeeeeeeeee",
"eeeeeeeeeee6qq                        .#qe--eeeeeeeeeeeeeeeeeeee",
"eeeeeeeeeee--++                     .#qq-X-eeeeeeeeeeeeeeeeeeeee",
"eeeeeeeeeeeee-X    .              .#q&XX-eeeeeeeeeeeeeeeeeeeeeee",
"eeeeeeeeeeeeeeeqq&.X.Oooo...........XX-eeeeeeeeeeeeeeeeeeeeeeeee",
"eeeeeeeeeeeeeeeeeeeeeeeeeeeeeeeeeeeeeeeeeeeeeeeeeeeeeeeeeeeeeeee",
"eeeeeeeeeeeeeeeeeeeeeeeeeeeeeeeeeeeeeeeeeeeeeeeeeeeeeeeeeeeeeeee",
"eeeeeeeeeeeeeeeeeeeeeeeeeeeeeeeeeeeeeeeeeeeeeeeeeeeeeeeeeeeeeeee",
"eeeeeeeeeeeeeeeeeeeeeeeeeeeeeeeeeeeeeeeeeeeeeeeeeeeeeeeeeeeeeeee",
"eeeeeeeeeeeeeeeeeeeeeeeeeeeeeeeeeeeeeeeeeeeeeeeeeeeeeeeeeeeeeeee",
"eeeeeeeeeeeeeeeeeeeeeeeeeeeeeeeeeeeeeeeeeeeeeeeeeeeeeeeeeeeeeeee",
"eeeeeeeeeeeeeeeeeeeeeeeeeeeeeeeeeeeeeeeeeeeeeeeeeeeeeeeeeeeeeeee",
"eeeeeeeeeeeeeeeeeeeeeeeeeeeeeeeeeeeeeeeeeeeeeeeeeeeeeeeeeeeeeeee"
};
