/* XPM */
static char *result[] = {
/* columns rows colors chars-per-pixel */
"64 64 28 1 ",
"  c black",
". c #000100",
"X c #000201",
"o c #000301",
"O c #000401",
"+ c #010402",
"@ c #010502",
"# c #010602",
"$ c #010703",
"% c #010803",
"& c #010A03",
"* c #010B04",
"= c #010D05",
"- c #020D05",
"; c #021206",
": c #021407",
"> c #031608",
", c #031808",
"< c #031B0A",
"1 c #031E0A",
"2 c #041F0B",
"3 c #04240D",
"4 c #052C10",
"5 c #073A15",
"6 c #084318",
"7 c #094D1B",
"8 c #0A591F",
"9 c #0C6624",
/* pixels */
"9999999999999999999999799999999999999999999999999999999999999999",
"9999999999999999999977999999999999999999999999999999999999999999",
"9999999999999999999577-99799999999999999999999999999999999999999",
"99999999999999999975&-997999999999999999999999999999999999999999",
"9999999999999999995.7- 9&979999999999999999999999999999999999999",
"999999999999999997$&-   9&99999999999999999999999999999999999999",
"999999999999999995.9     &99999999999999999999999999999999999999",
"99999999999999995&&     .999999999999999999999999999999999999999",
"99999999999999975..     $999999999999999999999999999999999999999",
"9999999999999995.&     .9999999999997999999999999999999999999999",
"999999999999997$-.     &--99999999797999999999999999999999999999",
"999999999999997.&     $--99999999757-997999999999999999999999999",
"99999999999999$&     .7--999999995&8-997999999999999999999999999",
"99999999999997$.     $--999999997%*- 9&9799999999999999999999999",
"99999999999995      .7--999999997.7   *-799999999999999999999999",
"9999999999997$.     .--999999998%3     .999999999999999999999999",
"9999999999997 5     .-9999999997%6     *999999999999999999999999",
"999999999999$.     .--999999999<.     o9999999999999999999999999",
"999999999995$.     .-9999999998%o     :9999999999999999999999999",
"999999999974      .&-9999999997.     o*-999999999999999999999999",
"99999999997..     .--999999999,O     O--999999999999999999999999",
"9999999999$ 5     .-9999999997o,     O-9999999999999999999999999",
"9999999997$.     .--9999999997      o239999999999999999999999999",
"9999999995.      .-9999999998%*     .399999999999999999999999999",
"999999997$.     .--9999999997o7     O-99999999999999999999999999",
"999999997 $     $&*878788788,.     X<288788789999999999999999999",
"99999999-.      o%5778878878&@     $2878878997877899999999999999",
"99999999-&     ...,,#,$;,#:,       o.:::$:<$<6579999999999999999",
"99999999-        oo<*33-33-3o      *=3-33-<66$,*&277899999999999",
"99999999&                                    XO<8999999999999999",
"9999999-79                                        *<789999999999",
"9999999-9&&                                        -399999999999",
"99999999-XX.                                        399999999999",
"9999999999-.   .O                                  9999999999999",
"99999999999977&      .....         ..O...   O     78999999999999",
"9999999999999999978*O*OOOo .      .OO*OO&*O     o199999999999999",
"99999999999999999999999996      o23999999999978&OOX+399999999999",
"9999999999999999999999997%%     .3999999999999999999999999999999",
"9999999999999999999999996.7     O-999999999999999999999999999999",
"999999999999999999999995$+     X33999999999999999999999999999999",
"999999999999999999999957Oo     &39999999999999999999999999999999",
"99999999999999999999976X.     X--9999999999999999999999999999999",
"9999999999999999999998.9%     2339999999999999999999999999999999",
"999999999999999999999&,*     &--99999999999999999999999999999999",
"999999999999999999999<*     &83399999999999999999999999999999999",
"999999999999999999998%     .5--999999999999999999999999999999999",
"999999999999999999995.     o833999999999999999999999999999999999",
"99999999999999999997X#     O--9999999999999999999999999999999999",
"99999999999999999995 $     O-99999999999999999999999999999999999",
"9999999999999999997$       &999999999999999999999999999999999999",
"9999999999999999997.,      3999999999999999999999999999999999999",
"999999999999999999$o      X-999999999999999999999999999999999999",
"999999999999999997#.     $33999999999999999999999999999999999999",
"999999999999999998      .:39999999999999999999999999999999999999",
"99999999999999999-      .&-9999999999999999999999999999999999999",
"99999999999999999+7      X-9999999999999999999999999999999999999",
"99999999999999999-      X-99999999999999999999999999999999999999",
"99999999999999999&     o-999999999999999999999999999999999999999",
"9999999999999999-*9   7&-999999999999999999999999999999999999999",
"999999999999999939-X #8--999999999999999999999999999999999999999",
"99999999999999999933>7-X-999999999999999999999999999999999999999",
"9999999999999999999989339999999999999999999999999999999999999999",
"9999999999999999999999999999999999999999999999999999999999999999",
"9999999999999999999999999999999999999999999999999999999999999999"
};
