/* XPM */
static char *result[] = {
/* columns rows colors chars-per-pixel */
"64 64 28 1 ",
"  c black",
". c #000100",
"X c #000201",
"o c #000301",
"O c #000401",
"+ c #010402",
"@ c #010602",
"# c #010703",
"$ c #010803",
"% c #010A03",
"& c #010B04",
"* c #020D05",
"= c #021206",
"- c #021407",
"; c #031608",
": c #031808",
"> c #031A09",
", c #031B0A",
"< c #031E0A",
"1 c #041F0B",
"2 c #04240D",
"3 c #052C10",
"4 c #063312",
"5 c #073A15",
"6 c #084318",
"7 c #094D1B",
"8 c #0A591F",
"9 c #0C6624",
/* pixels */
"9999999999999999999999999999999999999999999999999999999999999999",
"9999999999999999999999999999999999999999999999999999999999999999",
"9999999999999999999997778787878878788788787887878799999999999999",
"9999999999999999999755878787887878878878788787879999999999999999",
"999999999999999999533$$$=@=#-#=-@:#=:@--@:#=-@-$,&78799999999999",
"9999999999999999973%.X2%,*2*22*2*22*22*2*22*2*2*9999999999999999",
"999999999999999997.X.                             1%879999999999",
"99999999999999999%.7                               2*99999999999",
"99999999999999999$&                                 *99999999999",
"99999999999999997$                                 9999999999999",
"99999999999999998                                 87999999999999",
"9999999999999999.X      . . .... ....... .... . O$99999999999999",
"9999999999999999O@     oX.OoOoOOo&oOOo&Oo&oOOo&oOo++*99999999999",
"9999999999999999.      .*999999999999999999999999999999999999999",
"9999999999999999@      &9999999999999999999999999999999999999999",
"999999999999999%#      %9999999999999999999999999999999999999999",
"9999999999999991X     X19999999999999999999999999999999999999999",
"999999999999999.-      99999999999999999999999999999999999999999",
"999999999999999&#     &99999999999999999999999999999999999999999",
"999999999999999.      %99999999999999999999999999999999999999999",
"999999999999999#     .199999999999999999999999999999999999999999",
"99999999999999*-      &99999999999999999999999999999999999999999",
"99999999999999,@     +,97878787899999999999999999999999999999999",
"99999999999999%X      477878789978999999999999999999999999999999",
"99999999999999O@     .66$:$=#:$:87687999999999999999999999999999",
"99999999999999O@     oX**,&2*,68%1778799999999999999999999999999",
"99999999999999.       2%        @-#:*777999999999999999999999999",
"99999999999997.      -             ,6&97799999999999999999999999",
"9999999999999%.                      ,o6789999999999999999999999",
"9999999999999X.                       2 977999999999999999999999",
"9999999999999X7                        XO96999999999999999999999",
"9999999999999*           . .  o;        %+7799999999999999999999",
"9999999999999%        X>78%OOO   .       +*599999999999999999999",
"999999999999*%*      >78*+299999%         X599999999999999999999",
"999999999999*9*X  XO%8*+2999999999,&.      779999999999999999999",
"99999999999999**@7%.X+2999999999999*,     X%79999999999999999999",
"999999999999999979**999999999999999*7.     .79999999999999999999",
"99999999999999999999999999999999999*9.     .79999999999999999999",
"999999999999999999999999999999999999*.     .79999999999999999999",
"999999999999999999999999999999999999%@     X79999999999999999999",
"999999999999999999999999999999999999#.      79999999999999999999",
"999999999999999999999999999999999995.%      99999999999999999999",
"999999999999999999999999999999999835 %     .99999999999999999999",
"99999999999999999999999999999998557XX      *99999999999999999999",
"999999999999999999999999999987545, *$     .*99999999999999999999",
"99999999999999999999999999858572XX9%     %**99999999999999999999",
"9999999999999999999999997546:%X.%       %7**99999999999999999999",
"999999999999999999977856572X2X79       .7**999999999999999999999",
"999999999999999997687566%XX,          .59**999999999999999999999",
"9999999999999999656$#,.O.77          $59**9999999999999999999999",
"99999999999999988*+2*.2*            @59**99999999999999999999999",
"9999999999999999+*2               .$79**999999999999999999999999",
"999999999999999299              #67,+X*9999999999999999999999999",
"99999999999999999           . O$79**9999999999999999999999999999",
"9999999999999999           #671o++*99999999999999999999999999999",
"999999999999999&*        o$79**999999999999999999999999999999999",
"99999999999999299*    .$78%++*9999999999999999999999999999999999",
"999999999999999922<77&.o+X*9999999999999999999999999999999999999",
"9999999999999999998922999999999999999999999999999999999999999999",
"9999999999999999999999999999999999999999999999999999999999999999",
"9999999999999999999999999999999999999999999999999999999999999999",
"9999999999999999999999999999999999999999999999999999999999999999",
"9999999999999999999999999999999999999999999999999999999999999999",
"9999999999999999999999999999999999999999999999999999999999999999"
};
