/* XPM */
static char *result[] = {
/* columns rows colors chars-per-pixel */
"64 64 27 1 ",
"  c black",
". c #000100",
"X c #000201",
"o c #000301",
"O c #000401",
"+ c #010402",
"@ c #010602",
"# c #010703",
"$ c #010803",
"% c #010A03",
"& c #010B04",
"* c #020D05",
"= c #021206",
"- c #021407",
"; c #021507",
": c #031808",
"> c #031B0A",
", c #031E0A",
"< c #041F0B",
"1 c #04240D",
"2 c #052C10",
"3 c #063312",
"4 c #073A15",
"5 c #084318",
"6 c #094D1B",
"7 c #0A591F",
"8 c #0C6624",
/* pixels */
"8888888888888888888888888888888888888888888888888888888888888888",
"8888888888888888888888888888888888888888886676688888888888888888",
"8888888888888888888888888888888888888887447668888888888888888888",
"888888888888888888888888888888888888754445$#>%%76688888888888888",
"888888888888888888888888888888888874554>XX<%%8888888888888888888",
"888888888888888888888888888888888334>+X.%>     %&668888888888888",
"88888888888888888888888888888884261X+*%         **88888888888888",
"888888888888888888888888888886246 X*             *88888888888888",
"8888888888888888888888888888426X 86             8888888888888888",
"88888888888888888888888888844* *8              66888888888888888",
"8888888888888888888888888845XX8              .$88888888888888888",
"888888888888888888888888854X*8          .$66&.o+X*88888888888888",
"88888888888888888888888845X18        .$76>+X*8888888888888888888",
"8888888888888888888888726+*8       @56>+X*8888888888888888888888",
"888888888888888888888555X*8      .@68**8888888888888888888888888",
"8888888888888888888865> 88      @66*X*88888888888888888888888888",
"888888888888888888885O&1      o46*X*8888888888888888888888888888",
"88888888888888888886$>*      .48**888888888888888888888888888888",
"88888888888888888885O7      .58**8888888888888888888888888888888",
"8888888888888888886$>      ,48**88888888888888888888888888888888",
"8888888888888888885o>     X5811888888888888888888888888888888888",
"888888888888888884%O      68**8888888888888888888888888888888888",
"888888888888888865Oo     -1+*88888888888888888888888888888888888",
"88888888888888885.&     X%%6666666688888888888888888888888888888",
"8888888888888886$1X     :>>6666668866668888888888888888888888888",
"8888888888888887o*     X..@@@@@@###44686688888888888888888888888",
"888888888888888%:      &++******%44#%%#6646888888888888888888888",
"888888888888888:.     o            ..24%%84688888888888888888888",
"888888888888886.     o                 @@%%666888888888888888888",
"888888888888887.                         .X446888888888888888888",
"88888888888888.:                            %6488888888888888888",
"88888888888886$%     X+                      *468888888888888888",
"88888888888887       o+           .           848888888888888888",
"8888888888888%@     .1876>o......     @      XX46888888888888888",
"8888888888888O@     .*888888888888866          %6888888888888888",
"8888888888888O     o>18888888888888888*%.      .6888888888888888",
"8888888888888.      %888888888888888888*%.     .6888888888888888",
"888888888888*$      >888888888888888888**.     .6888888888888888",
"8888888888881$      %8888888888888888888*.     .6888888888888888",
"888888888888*#      68888888888888888888*@      6888888888888888",
"888888888888*:      78888888888888888888%@      6888888888888888",
"888888888888*#      68888888888888888888%.      6888888888888888",
"888888888888*>      58888888888888888888.@      8888888888888888",
"888888888888*&      58888888888888888888.#     .8888888888888888",
"88888888888816      66888888888888888886.      %8888888888888888",
"888888888888*7      *5888888888888888885       %8888888888888888",
"88888888888816X     O488888888888888887.#      *8888888888888888",
"888888888888*8>      648888888888888884 6     .*8888888888888888",
"8888888888888*&      %2688888888888884;X      *88888888888888888",
"888888888888816*      8646888888888824X.     .*88888888888888888",
"8888888888888*8>       -5657667666526XX     X**88888888888888888",
"88888888888888*%*     .O%$6456667446 *&     %**88888888888888888",
"88888888888888*8%       .=@-$@=@@$o 6<     &**888888888888888888",
"888888888888888*%&         X>%**1X*8      %6**888888888888888888",
"888888888888888*1*#                      .6118888888888888888888",
"88888888888888888XOX                    .48**8888888888888888888",
"88888888888888888**o&                  $48**88888888888888888888",
"8888888888888888888*  oo              @48**888888888888888888888",
"8888888888888888888886.             .@68**8888888888888888888888",
"888888888888888888888888%o        O$66*X*88888888888888888888888",
"8888888888888888888888888867%OO.OO..++*8888888888888888888888888",
"8888888888888888888888888888888888888888888888888888888888888888",
"8888888888888888888888888888888888888888888888888888888888888888",
"8888888888888888888888888888888888888888888888888888888888888888"
};
