/* XPM */
static char *result[] = {
/* columns rows colors chars-per-pixel */
"64 64 35 1 ",
"  c black",
". c #000100",
"X c #000201",
"o c #000301",
"O c #010302",
"+ c #000401",
"@ c #010402",
"# c #010502",
"$ c #010602",
"% c #010702",
"& c #010703",
"* c #010803",
"= c #010A03",
"- c #010B04",
"; c #020B04",
": c #010D05",
"> c #020D05",
", c #020E05",
"< c #020F05",
"1 c #021206",
"2 c #021407",
"3 c #031808",
"4 c #031809",
"5 c #031B0A",
"6 c #031E0A",
"7 c #031F0B",
"8 c #041F0B",
"9 c #04240D",
"0 c #052C10",
"q c #063312",
"w c #073A15",
"e c #084318",
"r c #094D1B",
"t c #0A591F",
"y c #0C6624",
/* pixels */
"yyyyyyyyyyyyyyyyyyyyyyyyyyyyyyyyyyyyyyyyyyyyyyyyyyyyyyyyyyyyyyyy",
"yyyyyyyyyyyyyyyyyyyyyyyyyyyyyyyyyyyyyyyyyyyyyyyyyyyyyyyyyyyyyyyy",
"yyyyyyyyyyyyyyyyyyyyyyyyyyyyyyyyyyyyyyyyyyyyyyyyyyyyyyyyyyyyyyyy",
"yyyyyyyyyyyyyyyyyyyyyyyyyyyyyyyyyyyyyyyyyyyyyyyyyyyyyyyyyyyyyyyy",
"yyyyyyyyyyyyyyyyyyyyyyyyyyyyyyyyyyyyyyyyyyyyyyyyyyyyyyyyyyyyyyyy",
"yyyyyyyyyyyyyyrrrtrrrrtrrtyyyyyyyyyyyyyyyrrrrryyyyyyyyyyyyyyyyyy",
"yyyyyyyyyyyyrrrtrrrrtrrtyytrtrrtrrrrrtrwwrrryryyyyyyyyyyyyyyyyyy",
"yyyyyyyyyyyrww**&<$$&$1**3ewetrrrrrtrrwww&&&=&rrryyyyyyyyyyyyyyy",
"yyyyyyyyyyyy>>>9>>>>9>>8ee3&3&$1$$&$$<&.X=&$r>yyryyyyyyyyyyyyyyy",
"yyyyyyyyyyy>>>            +o=8>>>>>9>>X>>     ==wryyyyyyyyyyyyyy",
"yyyyyyyyyyyyy                                  .>ryyyyyyyyyyyyyy",
"yyyyyyyyyyyy                                    Xryyyyyyyyyyyyyy",
"yyyyyyyyyyyrr                                   .yyyyyyyyyyyyyyy",
"yyyyyyyyyy>>>9                                  =yyyyyyyyyyyyyyy",
"yyyyyyyyyyyy>X          .+                     .yyyyyyyyyyyyyyyy",
"yyyyyyyyyyyyyyrr=..++....              . &      >yyyyyyyyyyyyyyy",
"yyyyyyyyyyyyyyyyyyyyyyyyyytr8+++.++....       X>>yyyyyyyyyyyyyyy",
"yyyyyyyyyyyyyyyyyyyyyyyyyyyyyyyyyyyyyet+o     3>>yyyyyyyyyyyyyyy",
"yyyyyyyyyyyyyyyyyyyyyyyyyyyyyyyyyyyyre+X     X>>yyyyyyyyyyyyyyyy",
"yyyyyyyyyyyyyyyyyyyyyyyyyyyyyyyyyyyyr+r=     8>>yyyyyyyyyyyyyyyy",
"yyyyyyyyyyyyyyyyyyyyyyyyyyyyyyyyyyyt*9+     =>>yyyyyyyyyyyyyyyyy",
"yyyyyyyyyyyyyyyyyyyyyyyyyyyyyyyyyyyr*r     5t99yyyyyyyyyyyyyyyyy",
"yyyyyyyyyyyyyyyyyyyyyyyyyyyyyyyyyyy3-     .r>>yyyyyyyyyyyyyyyyyy",
"yyyyyyyyyyyyyyyyyyyyyyyyyyyyyyyyyyr*&     2y99yyyyyyyyyyyyyyyyyy",
"yyyyyyyyyyyyyyyyrrrtrtrtyyyyyyyyyye      Xt>>yyyyyyyyyyyyyyyyyyy",
"yyyyyyyyyyyyyyrrrtrtrtyytrtyyyyyyw*-     o99yyyyyyyyyyyyyyyyyyyy",
"yyyyyyyyyyyyyrww***1$3=2rrttrttrwr.=     +>yyyyyyyyyyyyyyyyyyyyy",
"yyyyyyyyyyyyyy>>>9>9>8ee8-5reettr.O     X77rtrrrrryyyyyyyyyyyyyy",
"yyyyyyyyyyyyy>>>        o2q3*35$.r%     =5trrrrryyrrrtyyyyyyyyyy",
"yyyyyyyyyyyyyyy            @-=1:4.     X.o2$1$$*&&weryyyyyyyyyyy",
"yyyyyyyyyyyyyy                        .8:#9>>>>=ww*->5rrtyyyyyyy",
"yyyyyyyyyyyyyrr                                   .orryyyyyyyyyy",
"yyyyyyyyyyyy>>>9                                      =5rtyyyyyy",
"yyyyyyyyyyyyyy>X   .  .6                               >9yyyyyyy",
"yyyyyyyyyyyyyyyyrr=..+.   o                             9yyyyyyy",
"yyyyyyyyyyyyyyyyyyyyyyyyt5.                            yyyyyyyyy",
"yyyyyyyyyyyyyyyyyyyyyyyyyw&;          .....      o    rtyyyyyyyy",
"yyyyyyyyyyyyyyyyyyyyyyyywwX.     ,r@.+-++-++-+++     6yyyyyyyyyy",
"yyyyyyyyyyyyyyyyyyyyyyywr.X     .y99yyyyyyyyyyyyyyrr=.X@9yyyyyyy",
"yyyyyyyyyyyyyyyyyyyyyyrw.>5     ->>yyyyyyyyyyyyyyyyyyyyyyyyyyyyy",
"yyyyyyyyyyyyyyyyyyyyyyw.rX     =>>yyyyyyyyyyyyyyyyyyyyyyyyyyyyyy",
"yyyyyyyyyyyyyyyyyyyyyr&==     -r99yyyyyyyyyyyyyyyyyyyyyyyyyyyyyy",
"yyyyyyyyyyyyyyyyyyyyyw.r     .r>>yyyyyyyyyyyyyyyyyyyyyyyyyyyyyyy",
"yyyyyyyyyyyyyyyyyyyyw$&      wy>>yyyyyyyyyyyyyyyyyyyyyyyyyyyyyyy",
"yyyyyyyyyyyyyyyyyyyr0.      $y>>yyyyyyyyyyyyyyyyyyyyyyyyyyyyyyyy",
"yyyyyyyyyyyyyyyyyyyr.      .r>>yyyyyyyyyyyyyyyyyyyyyyyyyyyyyyyyy",
"yyyyyyyyyyyyyyyyyyy&.&     .>>yyyyyyyyyyyyyyyyyyyyyyyyyyyyyyyyyy",
"yyyyyyyyyyyyyyyyyyr&.      X>yyyyyyyyyyyyyyyyyyyyyyyyyyyyyyyyyyy",
"yyyyyyyyyyyyyyyyyyw.      &>>yyyyyyyyyyyyyyyyyyyyyyyyyyyyyyyyyyy",
"yyyyyyyyyyyyyyyyyw&.     .=>yyyyyyyyyyyyyyyyyyyyyyyyyyyyyyyyyyyy",
"yyyyyyyyyyyyyyyyr0 .     &>>yyyyyyyyyyyyyyyyyyyyyyyyyyyyyyyyyyyy",
"yyyyyyyyyyyyyyyye.X     .>X>yyyyyyyyyyyyyyyyyyyyyyyyyyyyyyyyyyyy",
"yyyyyyyyyyyyyyyt*.o     .X>yyyyyyyyyyyyyyyyyyyyyyyyyyyyyyyyyyyyy",
"yyyyyyyyyyyyyyyy@X     .>>yyyyyyyyyyyyyyyyyyyyyyyyyyyyyyyyyyyyyy",
"yyyyyyyyyyyyyyy9>      &>>yyyyyyyyyyyyyyyyyyyyyyyyyyyyyyyyyyyyyy",
"yyyyyyyyyyyyyyyy=     .>>yyyyyyyyyyyyyyyyyyyyyyyyyyyyyyyyyyyyyyy",
"yyyyyyyyyyyyyyy>      =>>yyyyyyyyyyyyyyyyyyyyyyyyyyyyyyyyyyyyyyy",
"yyyyyyyyyyyyyyy-r    r>>yyyyyyyyyyyyyyyyyyyyyyyyyyyyyyyyyyyyyyyy",
"yyyyyyyyyyyyyy9>y>  e=X>yyyyyyyyyyyyyyyyyyyyyyyyyyyyyyyyyyyyyyyy",
"yyyyyyyyyyyyyyyy9@+$y>>yyyyyyyyyyyyyyyyyyyyyyyyyyyyyyyyyyyyyyyyy",
"yyyyyyyyyyyyyyyyyytr9@>yyyyyyyyyyyyyyyyyyyyyyyyyyyyyyyyyyyyyyyyy",
"yyyyyyyyyyyyyyyyyyyyyyyyyyyyyyyyyyyyyyyyyyyyyyyyyyyyyyyyyyyyyyyy",
"yyyyyyyyyyyyyyyyyyyyyyyyyyyyyyyyyyyyyyyyyyyyyyyyyyyyyyyyyyyyyyyy",
"yyyyyyyyyyyyyyyyyyyyyyyyyyyyyyyyyyyyyyyyyyyyyyyyyyyyyyyyyyyyyyyy"
};
