/* XPM */
static char *result[] = {
/* columns rows colors chars-per-pixel */
"64 64 29 1 ",
"  c black",
". c #000100",
"X c #000201",
"o c #000301",
"O c #000401",
"+ c #010402",
"@ c #010502",
"# c #010602",
"$ c #010703",
"% c #010803",
"& c #010A03",
"* c #010B04",
"= c #010C04",
"- c #020D05",
"; c #021006",
": c #021206",
"> c #021507",
", c #031A09",
"< c #031B0A",
"1 c #031E0A",
"2 c #041F0B",
"3 c #04240D",
"4 c #052C10",
"5 c #063312",
"6 c #073A15",
"7 c #084318",
"8 c #094D1B",
"9 c #0A591F",
"0 c #0C6624",
/* pixels */
"0000000000000000000000000000000000000000000000000000000000000000",
"0000000000000000000000000000000000000000000000000000000000000000",
"0000000000000000000000008888988800000000000000000000000000000000",
"0000000000000000000000668898880888800000000000000000000000000000",
"000000000000000000006466$%%#;#$%68688000000000000000000000000000",
"0000000000000000008468XX-&<-&$6$$&$88600000000000000000000000000",
"00000000000000000648X -&        .#$$-668000000000000000000000000",
"000000000000000066- -0             #$&80800000000000000000000000",
"00000000000000068.X0                  .8680000000000000000000000",
"0000000000000086X&0                   -X080000000000000000000000",
"000000000000008.0&                     XX76000000000000000000000",
"00000000000000&$0                       .-8000000000000000000000",
"00000000000000&$      .#88&.X            o&098000000000000000000",
"00000000000000&      @88-X-00008&       $8-008000000000000000000",
"00000000000000.     .6-X-00000000-&&.   $  3&7800000000000000000",
"0000000000000-$     .&-000000000000-X.#     o-800000000000000000",
"0000000000000-$      &0000000000000008#      .800000000000000000",
"0000000000000-&      60000000000000006@$     .000000000000000000",
"0000000000000-&      6000000000000006=       &000000000000000000",
"0000000000000-8      0600000000000044.      .0000000000000000000",
"0000000000000-8      &60000000008658X &      -000000000000000000",
"0000000000000-8-      9600000876768 X-     .--000000000000000000",
"0000000000000-0&      -488868667*X 88      .X-000000000000000000",
"00000000000000-&-      6,7777&+Xo*8       &--0000000000000000000",
"00000000000000-0&     . 4@%X&.&2         68--0000000000000000000",
"000000000000000-&-       &X:-           @8--00000000000000000000",
"000000000000000-0&                    .@8-X-00000000000000000000",
"0000000000000000-##                  #68-X-000000000000000000000",
"0000000000000000$$                 .%80--00000000000000000000000",
"00000000000000066  X             X167&X-000000000000000000000000",
"0000000000000084.--            .:$X.o288800000000000000000000000",
"000000000000006.&-               X$&<&69888000000000000000000000",
"00000000000008$X&                  .:4%&&86600000000000000000000",
"00000000000008.8      .O$.            O#5$-888000000000000000000",
"0000000000000$&      $8-  Xo             $.$88800000000000000000",
"0000000000008$.     #0--0-o*.               -8600000000000000000",
"0000000000008      .6--0000X. .             XX680000000000000000",
"000000000000&.     .--0000000&O   1           &80000000000000000",
"000000000000.#     .X-00000000089.   o        .80000000000000000",
"000000000000.     .&-000000000000008*         .80000000000000000",
"000000000000.      &000000000000000000&.      .80000000000000000",
"00000000000-$      $0000000000000000000&X     X90000000000000000",
"00000000000-&      $0000000000000000000&.      80000000000000000",
"00000000000-&      68000000000000000000.#      00000000000000000",
"00000000000-8      &8000000000000000000.$     .00000000000000000",
"00000000000-8      .4000000000000000000o      &00000000000000000",
"00000000000-8.     X6688800000000000008X      *00000000000000000",
"00000000000--.      $66888880000000000$.     X<00000000000000000",
"000000000000-&      .##&$6888888000004.$      -00000000000000000",
"000000000000-8        .4#&&$6680898644 X     .000000000000000000",
"000000000000-8&          .#4#&&%66448        &000000000000000000",
"000000000000--&&            ..55$>$. .$      -000000000000000000",
"0000000000000-XX.               ....0       +3000000000000000000",
"000000000000000X ..                        &--000000000000000000",
"00000000000000000.                        8&-0000000000000000000",
"0000000000000000000&                     @8--0000000000000000000",
"0000000000000000000008&                .@8-X-0000000000000000000",
"00000000000000000000000088.    .      #68-X-00000000000000000000",
"000000000000000000000000000088.     .#8-X-0000000000000000000000",
"0000000000000000000000000000000089&oo.XX-00000000000000000000000",
"0000000000000000000000000000000000000000000000000000000000000000",
"0000000000000000000000000000000000000000000000000000000000000000",
"0000000000000000000000000000000000000000000000000000000000000000",
"0000000000000000000000000000000000000000000000000000000000000000"
};
