/* XPM */
static char *result[] = {
/* columns rows colors chars-per-pixel */
"64 64 38 1 ",
"  c black",
". c #000100",
"X c #000201",
"o c #000301",
"O c #000401",
"+ c #010402",
"@ c #010502",
"# c #010602",
"$ c #010703",
"% c #010802",
"& c #010803",
"* c #010A03",
"= c #010B04",
"- c #020D05",
"; c #020F05",
": c #021005",
"> c #021206",
", c #021407",
"< c #021507",
"1 c #021408",
"2 c #031608",
"3 c #031808",
"4 c #031A09",
"5 c #031B0A",
"6 c #031E0A",
"7 c #041F0B",
"8 c #04240D",
"9 c #04270D",
"0 c #052C0F",
"q c #052C10",
"w c #063312",
"e c #073A14",
"r c #073B14",
"t c #073A15",
"y c #084318",
"u c #094D1B",
"i c #0A591F",
"p c #0C6624",
/* pixels */
"pppppppppppppppppppppppppppppppppppppppppppppppppppppppppppppppp",
"ppppppppppppppppppppppppppppppppppuiuiuipppppppppppppppppppppppp",
"ppppppppppppppppppppppppppppppputuuiuippuipppppppppppppppppppppp",
"ppppppppppppppppppppppppppppptyyyy&3&3&3iuyupppppppppppppppppppp",
"ppppppppppppppppppppppppppptwty=X-*5=5yi*5puyupppppppppppppppppp",
"pppppppppppppppppppppppppuqyiX++5=      #3$&ptuppppppppppppppppp",
"pppppppppppppppppppppppptquX -5           o,*=uuuppppppppppppppp",
"pppppppppppppppppppppppty- 8p               OXyuuppppppppppppppp",
"ppppppppppppppppppppppytXXp                    *utpppppppppppppp",
"pppppppppppppppppppppyyX8p                     .-ypppppppppppppp",
"pppppppppppppppppppptuO-p          .  o2         ptppppppppppppp",
"pppppppppppppppppppuy+*p        o6ui*O   .      +-uppppppppppppp",
"pppppppppppppppppppi.p1      X2uu=X+8ppp.         iupppppppppppp",
"ppppppppppppppppppp*:p      #ui-+8ppppppp-*.     -*ipppppppppppp",
"ppppppppppppppppppp1+     .tu-X-pppppppppp-=o     Oipppppppppppp",
"ppppppppppppppppppp%      wp--pppppppppppp8p.     -tpppppppppppp",
"ppppppppppppppppppp      Xe--pppppppppppppp-=     +upppppppppppp",
"pppppppppppppppppp-.      18ppppppppppppppp8i      uuppppppppppp",
"pppppppppppppppppp8.      %pppppppppppppppp8u     X=ippppppppppp",
"pppppppppppppppppp-@      upppppppppppppppp-iO     Ouppppppppppp",
"ppppppppppppppppppX@      upppppppppppppppp8pX     Oippppppppppp",
"ppppppppppppppppppX@      uppppppppppppppppp-o     Ouppppppppppp",
"ppppppppppppppppppX*      tppppppppppppppppp8$     Ouppppppppppp",
"pppppppppppppppppp-*      tupppppppppppppppp-&      uppppppppppp",
"pppppppppppppppppp-u      ptuppppppppppppppp8&      uppppppppppp",
"pppppppppppppppppp-u     . ptyuppppppppppuup-$      uppppppppppp",
"pppppppppppppppppp-u-     * uuuuuppppppytupp->      ippppppppppp",
"pppppppppppppppppp-p*-     & 5$uituuuy09u--p%@      uppppppppppp",
"ppppppppppppppppppp--*#     ..u$*uttyrtoX-iu&X      ippppppppppp",
"pppppppppppppppppppp--$&       ,###$#o  u  - ;      pppppppppppp",
"ppppppppppppppppppppp--$&         X*O@-     .X     Opppppppppppp",
"pppppppppppppppppppppp--$&                         =pppppppppppp",
"ppppppppppppppppppppppp--$$                       O5pppppppppppp",
"pppppppppppppppppppppppp-+.&               #o      =pppppppppppp",
"pppppppppppppppppppppppppp-   .           # i     .8pppppppppppp",
"ppppppppppppppppppppppppppppuX          .#&..     +ppppppppppppp",
"ppppppppppppppppppppppppppppppp*.     o4u5.      o8ppppppppppppp",
"pppppppppppppppppppppppppppppppppuu*....Xo&     +58ppppppppppppp",
"pppppppppppppppppppppppppppppppppppppppppy      **-ppppppppppppp",
"ppppppppppppppppppppppppppppppppppppppppu.7     O88ppppppppppppp",
"ppppppppppppppppppppppppppppppppppppppppu.y     .-pppppppppppppp",
"pppppppppppppppppppppppppppppppppppppppp&o      -ppppppppppppppp",
"pppppppppppppppppppppppppppppppppppppppt$o     $8ppppppppppppppp",
"pppppppppppppppppppppppppppppppppppppptu      .78ppppppppppppppp",
"ppppppppppppppppppppppppppppppppppppputXo     o--ppppppppppppppp",
"pppppppppppppppppppppppppppppppppppppu.**     +-pppppppppppppppp",
"ppppppppppppppppppppppppppppppppppppp&&-     *88pppppppppppppppp",
"ppppppppppppppppppppppppppppppppppppt&8     *=-ppppppppppppppppp",
"pppppppppppppppppppppppppppppppppppyt+      y--ppppppppppppppppp",
"ppppppppppppppppppppppppppppppppppyyXo     Xp88ppppppppppppppppp",
"pppppppppppppppppppppppppppppppppqt+Xu     8--pppppppppppppppppp",
"ppppppppppppppppppppppppppppppitqt+--     *--ppppppppppppppppppp",
"ppppppppppppppppppppppppppppyttqu -p     -=-pppppppppppppppppppp",
"pppppppppppppppppppppppppitwyt<. =u     &u--pppppppppppppppppppp",
"pppppppppppppppppppppppiuttu+XX.u      .yp88pppppppppppppppppppp",
"ppppppppppppppppppppppiyt5X =*        .yp--ppppppppppppppppppppp",
"ppppppppppppppppppppppp8-X-p         Otp--pppppppppppppppppppppp",
"pppppppppppppppppppppp8--           .yp88ppppppppppppppppppppppp",
"pppppppppppppppppppppppp           #tp--pppppppppppppppppppppppp",
"ppppppppppppppppppppppp           #tp--ppppppppppppppppppppppppp",
"ppppppppppppppppppppppiu        .#u-X-pppppppppppppppppppppppppp",
"ppppppppppppppppppppp8--p   .#iu5oXX-ppppppppppppppppppppppppppp",
"ppppppppppppppppppppppp8+ .&uu-X-ppppppppppppppppppppppppppppppp",
"pppppppppppppppppppppppppiu5+X-ppppppppppppppppppppppppppppppppp"
};
