/* XPM */
static char *_25e7e94e5ef4225a609a5aa5c9b00eeT7PYsI82D5OhlIH9[] = {
/* columns rows colors chars-per-pixel */
"64 64 255 2 ",
"   c #020C01",
".  c #001400",
"X  c #001C00",
"o  c #091B05",
"O  c #0E160F",
"+  c #1A150C",
"@  c #1C1610",
"#  c #241B12",
"$  c #281910",
"%  c #281C13",
"&  c #012400",
"*  c #0A2703",
"=  c #012C00",
"-  c #122E0A",
";  c #023400",
":  c #0B3301",
">  c #023C00",
",  c #0B3B00",
"<  c #163A03",
"1  c #133D01",
"2  c #173917",
"3  c #27330C",
"4  c #2D2217",
"5  c #382718",
"6  c #153428",
"7  c #342F27",
"8  c #462915",
"9  c #51331B",
"0  c #6E3717",
"q  c #473626",
"w  c #533A2A",
"e  c #683B24",
"r  c #0D4200",
"t  c #084900",
"y  c #144401",
"u  c #1C4301",
"i  c #144B01",
"p  c #1B4C00",
"a  c #19460C",
"s  c #0C5507",
"d  c #1B5502",
"f  c #1A4615",
"g  c #244806",
"h  c #344C0C",
"j  c #245301",
"k  c #235B01",
"l  c #2C5B03",
"z  c #2A580A",
"x  c #345905",
"c  c #274A16",
"v  c #2B5413",
"b  c #2A5916",
"n  c #355A19",
"m  c #176901",
"M  c #2A6606",
"N  c #366706",
"B  c #2B7505",
"V  c #387504",
"C  c #2B6615",
"Z  c #386717",
"A  c #3B7617",
"S  c #18512C",
"D  c #2B5824",
"F  c #2D502D",
"G  c #355B28",
"H  c #3A6726",
"J  c #3B7525",
"K  c #386535",
"L  c #397031",
"P  c #475017",
"I  c #75451C",
"U  c #447705",
"Y  c #50710F",
"T  c #456A19",
"R  c #467818",
"E  c #707E1C",
"W  c #5A4427",
"Q  c #4D4E33",
"!  c #674728",
"~  c #744C27",
"^  c #6C5434",
"/  c #466B28",
"(  c #487827",
")  c #547A29",
"_  c #456835",
"`  c #546A33",
"'  c #4A7737",
"]  c #557936",
"[  c #716F32",
"{  c #3B6247",
"}  c #574C45",
"|  c #57524C",
" . c #665649",
".. c #6A594E",
"X. c #4D724E",
"o. c #577846",
"O. c #70704C",
"+. c #776759",
"@. c #566864",
"#. c #766C67",
"$. c #657066",
"%. c #7A7267",
"&. c #7B7876",
"*. c #934A18",
"=. c #A45317",
"-. c #B16B1A",
";. c #8C5630",
":. c #AA5827",
">. c #966C2E",
",. c #88693A",
"<. c #AD712E",
"1. c #CA5F19",
"2. c #C87430",
"3. c #866649",
"4. c #8D7354",
"5. c #A9774B",
"6. c #847668",
"7. c #907867",
"8. c #867B75",
"9. c #C27F4A",
"0. c #37840B",
"q. c #478604",
"w. c #51910B",
"e. c #488619",
"r. c #558819",
"t. c #699112",
"y. c #61AB0B",
"u. c #4C8428",
"i. c #568729",
"p. c #57942A",
"a. c #4D8533",
"s. c #588638",
"d. c #599338",
"f. c #6D8F2C",
"g. c #669A28",
"h. c #65893A",
"j. c #679838",
"k. c #6FA734",
"l. c #5A8744",
"z. c #5D9445",
"x. c #578951",
"c. c #648A45",
"v. c #699647",
"b. c #769348",
"n. c #678758",
"m. c #6A9655",
"M. c #749957",
"N. c #6FAA4D",
"B. c #77A84A",
"V. c #76A856",
"C. c #5D8565",
"Z. c #769668",
"A. c #6BA865",
"S. c #7BA967",
"D. c #958B37",
"F. c #B58C37",
"G. c #90A531",
"H. c #D89A18",
"J. c #CB8F33",
"K. c #D3A93B",
"L. c #E4AF32",
"P. c #9DDD2B",
"I. c #F2CA39",
"U. c #F0CE3C",
"Y. c #958C54",
"T. c #B08E53",
"R. c #88B156",
"E. c #B3B14E",
"W. c #9A8669",
"Q. c #8D8C70",
"!. c #978877",
"~. c #A58B67",
"^. c #A8946A",
"/. c #B69867",
"(. c #A78D76",
"). c #A89578",
"_. c #B69977",
"`. c #8BB26D",
"'. c #B9A576",
"]. c #B3A871",
"[. c #C6934D",
"{. c #D5AA49",
"}. c #DBB64C",
"|. c #CFA951",
" X c #DBB857",
".X c #E7B848",
"XX c #E2BC53",
"oX c #E7BC58",
"OX c #C39D61",
"+X c #C7A769",
"@X c #DAB866",
"#X c #C6A978",
"$X c #D0B572",
"%X c #E3B969",
"&X c #A0D257",
"*X c #94C872",
"=X c #AAC975",
"-X c #EAC948",
";X c #F3C948",
":X c #F4D446",
">X c #E6C45B",
",X c #F2CC58",
"<X c #EED350",
"1X c #EAD452",
"2X c #F5D954",
"3X c #F5D55B",
"4X c #F6DA5C",
"5X c #DAC56A",
"6X c #D8C579",
"7X c #E5C566",
"8X c #EACE6F",
"9X c #F5D966",
"0X c #F4DC77",
"qX c #F6E468",
"wX c #F5E476",
"eX c #807F80",
"rX c #759389",
"tX c #8C8887",
"yX c #958E89",
"uX c #A69789",
"iX c #B19A88",
"pX c #A49C95",
"aX c #8DAE89",
"sX c #B8A688",
"dX c #A9A39A",
"fX c #B3AC90",
"gX c #B6A997",
"hX c #B7B2AE",
"jX c #CBB48F",
"kX c #C7BBAC",
"lX c #A7D290",
"zX c #D9CB92",
"xX c #E6D689",
"cX c #E9D28D",
"vX c #E5D796",
"bX c #F6E489",
"nX c #EBE291",
"mX c #F7EA96",
"MX c #F8F19B",
"NX c #D3C9AC",
"BX c #E5D9A8",
"VX c #E7D9B5",
"CX c #F4EAA7",
"ZX c #F9F5A7",
"AX c #EFE7B1",
"SX c #F8F7B8",
"DX c #BCEFCE",
"FX c #D0CFCE",
"GX c #E4DBC6",
"HX c #DEFDC2",
"JX c #F0E7CA",
"KX c #FAF9C8",
"LX c #FAFAD7",
"PX c #FBFCE8",
"IX c #FBFDF2",
/* pixels */
"R N g.R a R j u & & c.i.p ) N i ' S.B V i.V.; , N H t u.; d d.M A = X h.= S y.p T Z.L s B w.T P x & ].l.Y R.zXh.P * / ` h R.p K ",
"i.l i.N R.d h.= u c v f.m.d.A J t t B p.d.J r.b j 2 r w.i = = i.A a - k.k = y.B./ K A.B d f.< x R.f.j.T g R.n.  - o h j U U ( ' ",
"b b : o.K x.N.2 / X c g.f / d.y ; ; A i.C m R y z O c q.( F F _ C ; i.g.> p.w.t h $.b m ) j HX&X=Xk.`.Y P.G.r.xXf.`.`.) / J C v.",
"A ) ) x H y m S = 2 X.) $.< n `.] / V.N J X.b.Z g K H k.j X R Z i i g.g f m 0.D c @.> s / Y.h.i.r.U 3 h.P.R.] - Q./ 3 g r.q.i ) ",
"u R.&XN.Z.r.V H f ; J aXx.= * / 6 D v.` M l.h.N V a.: ] -   F p.. a.q.> m B l.l.f aX< b j d Z 0.V b.Z.i.P.Y.*X3 P Y.V S z g Z f.",
"x 1 z a._ o > y l.`.D u a r ] b.F x.s.u l a A k.j.lX/ / ^ iX6XbX8X].b./ Z C H S.& `.c j = j.k B i.h.O.j y.R.&XR.` < R q.( g N N ",
"x 3 * p B.Z.H j M X.& z Z & Z.i.2 m.h.  j.L H i.^.xX|.6X5X@X>X X@X@X X@XOX@X` < 3 lXH , ( R 0.Z M.N G h x g *Xw.y.U Z p E.&Xr.V ",
"c f.b = g.l f x d.o.: x ( c.M.= K ' s.n.) ] zX5X5X X|.5XoX XXXXX-X X}. X X@X X8Xb.m.lXl R e.s u h Z L   Y s.A.= ) O g & x rXN.q.",
"/ f.u : N < / c Z.Z j ' H A R.N K S.d * #X6X5X%X>X{.@X>X-XXXXXXX XXXXXXX XXX X X X/.c.i v.u.B ` n t l.h Y *XY h k.< U B.&Xx.N.0.",
"P . < h.: 6 x X m.l , ( V.e.) r.`.M ^ $X6X8X7X%X}.}. X}.}.}.}.}.}.XXXXXXXXXX>X>X|.|.#XP J b m = N r ; g.R.M $ f.g.l G r.z.s L d.",
"Y 3 Y Y   @.l.g s.B.e.k A M U t.c.^ 5 $ }  X|.D.|.@XF.{.{.}.}.}.}.XX}.-X-X>X>X<.oX X XjX^ C p A.V h.n.M w.e.Y t.v w.V t.k.k aXi ",
"@.` Y < o ` : A N ' ( B q.N w.q.[ q 9 # # q $X X{.}.@XT.K.{.K.{.{.}.}. X X>X7XD.>X7XoX}.T.n./ t w.` 3 y.w.f.' DXC d U gX_ ( aXz ",
"*X1 S.. z M M d s.n c l.d.t t ].w vXCXCXSX].W <.<.F.J. XY.F.K.K.{.|.}. X X X3.E.8X4 5 % 4 ^ i.u.d.u.u.u.j i.k.N P o.X HX) x X.X ",
"=Xa.aXn.c c.i.l ( u ' J M B T W jXSXKXJXAXZXAX(.>.>.D.F.$X,.F.F.J.F.J.F.F.P uX X5 W >.9 5 4 ^ > d.> d.b `.R.R g / ] M.' ( T n.* ",
"N : = , < = ) v.: c a , u.u.,.'.SXSXLXSXHXKXZXBXY.>.>.>.J.+X~ D.[ +.jXGXGXFX'.^.vXnXbXxX/.@ 5 [ k C a.1 ` ] Z ) g ) lXA d.R b.v ",
"j.( ; _ = M.s.H b n / r R.^.^ AXKXLXSX@XcXxXzXT.OX].>.8 5 ! ~.T.$XjX^.3.W zXzXW.SXZXMXmXbX4.# [ R.z s.c.R.< = R.j f.j.0.J ( ) p ",
", p v H c ( ' X H c.' N.p T.3.^.BXLXLXjX{.J.}.[.@XT.].^ # gXW 4 5 5 q jXCXSXSXAXQ.KXZXMXbXzX4 4 l.C V.' < g / h.T j.e.e.e.N.j.U ",
"H C C D C d n & ' i A z Q.! BXKXKXfXKXPXPXAXjXcXvXcXT.Y.q BX+ @ @ ].CXZXSXKXLXKXvXfXKXZXmXbX .4 sXt a.h.Z s.) p x R M e.m u.r.k.",
"Z ( u.Z i Z ' M.s.a.A Z ^.W SXLXPXGXLXIXIXBX#XBX/.jX).6XfXAXO % MXMXZXZXSXKXLXLXLX$XjXKXMXmX].4 ! C v.M B.s.z g ) s.k A V g.U R.",
"g.i.p C z p u X i u.e.i W BXKXLXPXPXzXIXIXzXAXSXvXCXxX7.VXVX@ # CXmXZXZXKXKXLXLXPXLXzXSXZXmXxX4 $ h.A B B.R v.Z v y C k k.E.g.p.",
"d J Z ' = `._ M.g o.  X W BXKXPXPXIXzXIXIXLXLXKXSXZXnX,.xX+.# + VXCXZXZXKXKXLXPXPXPXHXAXmXwXvX! q ,.V q.V L T N j.d d M s.M G.m ",
"a r ; g.V.m.( D 2 G : h.9 vXKXLXPXPXuXLXPXKXSXSXCXmX6X[ BX% $ $ Q ZXZXSXSXKXLXPXIXPXVXBXSXZXnXW 5 O.u.b i t j i.R N.e.u.i R t.0.",
"X c p.U N l.R x.- H x r.9 vXKXPXPXIXLXAXmXwX8X5X5XzXNX6.NX4 4 $ + mXMXZXZXSXKXPXIXPX#XLXSXMXbX .# Y.x l b x.Z s p.B A s 0.k.t.m ",
"o.g : k Z ; y S.& / x j 9 vXLXLXIXPXAXKXKXJXjX+X'.zXnXQ ^.4 7 4 $ bXmXmXZXZXKXPXPXJXNXKXZXmXbXq + [ G o i l Z *Xt B t s u.g.n M ",
"] ] c < 1 N C h.N T * F 8 zXSXLXPXBXvXPXPXKXKXSXZXMX4.4 pX).+ + $ vXmXbXMXMXSXKXLXBXNXKXZXbX0X+ @ 3.] S C w.M.1 Z R A R k.U Q.Z ",
") T . 6 D Y v x g < 6 Z.8 zXSXLXPXxXKXLXKXKXZXZXMX].8 % # hX%.+ + } bXbXbXmXZXSXKX^.KXZXMXwXbX@ @ [ 1 V u.`.  g T = y v.*Xx ] M.",
"s.n _ F * 1 ) ) * - F O.8 ^.MXSXJXwXIXLXKXSXMXMXMX! 5 4 @ # kXQ + + $X6X6X5XvXvXvXNXSXZXMXwX$X4 @ ^ a H N.e.x.c a.) i a.B.B.S.`.",
"_ / ] ` M.` Y _ O O v t.W 9 8XnXwXAXLXKXSXMXMXbX$X9 5 # @ @ # 8.7 !.xX X>X5X6XCXJXzXSXZXMX6X,.4 % W u.j.t > F m.; i i d B.d X.E ",
"u.N j.`.P / - F M ' N o T.T.%X7XxX>X0XwXwXCXnXwXT.5 $ $ $ + + Q 7 gXzXzX6XzXzXW.#X|.Q % W ~ 9 + 5 q.A D , a w.x.; V ; Z 0.w.p.i ",
"C l Z j ] 3   c i Z N . @Xe ~ }.NX1XwXwXwX1X1X4.W 7 5 3 $ + % zX5 4 8 4 5 7 ].9XY.W.T.4 I I 9 $ W i N p R i.0.z.i.z.D d y.e.r A ",
"H s.v c `.o.c.l C R m.] =X[.oX0XqX5X3X4XwXwXqX3X-X}.L.}.-XT.wXVX*.~ 0X0XwXwXwXwX7X[ qX5 I I $ $ ^ u N g.U k N u.e.b.o.r q.d.( B.",
"c o.; H ' ' g ) a k $.) g %X8X3X-X8X8X-X1XqXqX4X4X4X4XqX9X9X-XQ.9X9X9X9X9X9XqXqXqX4.}. XI 3 9 ,.y v p.r.Z . w.H J w.p b g.U j ; ",
": l.D H H l.. ) & x 6 ] - 6X%X9X3X;X,.-X:X2XqX4X4X2X2X2X4X1X<X9X9X9X9X9X9X9X4X3X4X9X@XT.>.OX@X$Xv.*X) i H F d D z q.v.N.A p.R 1 ",
": m.b , g s.aX`.L x F n.G O.8X9X,X:XU.'.:X:X2X2X2X2X2X:X2XqXbX4X3X4X9X9X4X4X4X3X3X3X7XNXJX].# $Xr *Xp.j.d.Z l j.r.p.S.g.k / x s.",
"( c.j j y ( o.< u.( u G M.1 $X,X,X;X-XU.XXU.:X2X2X2X2XqX2X-X1X2X3X3X4X4X4X3X2X3X3X+X6X,X>X X7XsXR r.e.N v.0.d A V 0.o p.&Xl.: h.",
"R j ( v.T T _ n.q.H j Q z l.v.8X,X;X:X:XL.}.>X8XwXE.^.].8X2X>X:X2X4X3X4X3X3X3X,X XT.,X>XoXXX%XQ.V 0.B A C ; k ' = P.t s A u.] Z ",
"U P g h / x Q o./ c F Q P + n ].8XoXI.I.;.;XI.U.U.U.U.:XU.:X2X-X>.-X2X9X,XL.K.|.F.L.-.*.F.@X$Xo t.k.C i ( p.i C d d M i R , b w.",
"Y h.( / C ( v.j c.l.] ] * ) Z : D.8X.X.X5.I.I.I.U.:XU.U.U.:XU.2XoX*.>.<.J.J.[.@XH.L.-.I >.@X| / e.k.C i J e.i.i a b m.j.Z J y q.",
"J z.*XV.d.A A u.A d.l., ) s.G c h c.oX.X;.{.-.*.-.-.-.=.=.*.=.*.T.3XF.*.:.[. X<.=.1.0 8 ;.!.c T U j d.u H y h.s.l.H ] Z z `.i.t ",
"s H t r.e.C d u.u.J ' y s.Z n.S.* T ] {.5.K.=.-.-.-.-.=.=.;.2.*.H.F.>.>./.>.0 *.0 0 ~ 8 O.C G ( j.l z v H ) & M._ u / M Z L j.d.",
"K X A d A r y = c./ n.c < 1 o._ X 1 1 H ` J.*.:.2.H.2.=.:.*.H.=.*.<.F.9 :.=.9 0 8 9 ;.J.K.Q./ z r.j : g ' ] h M.: X b.v.] X p x.",
"/ u =Xh.N > G n G ` Z.2 ] H d o.f X ; ' y ^ 0 :.H.1.L.1.1.*.0 ;.-.*.1.$ 8 e e  .3.*.U.<XU.5.^ +.3.$.Q.` `.: ) c./ g i.R Z ' ; X.",
"j.M p.y b y D 2 g g c c v ( V.d.a K D ' H ; ..*.H.H.H.0 *.*.8 :.0 5 0 4 ..tX .9 ;...^ /.T.!.3. .gX6.5./.o.& N.1 y j B.R.( _ Z S.",
"w.k.X s L > K b H M._ H ; A M V._ D s.' x ) O.$XmX7XvX^ ^ 3.4.3.q 7 W.4.7 gX~ tX;.~ Q 6.| } kXpXjXjX5.O.m.f v.J m.( i.j.v.`.M.- ",
"d X._ z Z R N 6 6 g * R q.X.x.c G c c D c g X.9.[.oX#XgX6.3. .} q q 4.uX!.pX} w yX8.^.&.8.6.Q.eXsX+./.5.N.d C.V & ( 0.w.; w.j.K ",
"t H ( / a ] r.f : o.X Z C C.X.< o.' _ ..P o._.jXNX[.e 9.uX .3.7.^ gX5.(.q 5 w uX6.NXQ.uX8.tXQ.8.$.hX6...N C { i { Z.A r 2 M N ( ",
"k.R j ' X z V y H ' x.u G rX  Q _ - | w 3.iX/.jXGXjX6.gX7.#.hXhX#.7.8.uX .e } 7.7.uX4.8.gX| } kXpXgXQ _.= R ( A o.A H e.s.= w.A ",
"Z V q.x.6 ' &XM n v _ v o.X.O - - .. ...8.7.jXyXFX(.6.dXjXe e 7.! ).3.7 | ~ 7.JXjX_.uX4.iX~.fXjXNXO.~.!.j _ ( a.d V n r.f.h.e.s ",
"g y U H F i.a.z.' c n : g v.n.Q | pX#...iX_.tX8.FX&.} @.} w iX;.#.@.dX} } #.kXjXzX6.8.3.gX .6.iX$X/.6.#.J c lXaXt V F ' v f ( _ ",
"G _ R : G V.D d b K ( v G l n.dXyX| eX| pX!.3. .} tXFX} 8 } FX} 8.q 7 +.3.&.| W #.#.pXtXhX&.+.#X5.(.6.yXo.k m.X.C w.c R ) D x _ ",
") _ ( ' H p n j.v _ z n 2 aX} ..tXhX&.} ..8.} &.eXpXFXyXtXgX6.gX'.2.T.I ..!.} } 6.8.!.gXhX'.#XOX7._.7.~.p.n u.y i w.A V M A N < ",
": 2 H c./ ' v r.b.c ) a X.dX%.kXGX9 6.jXiX7.6.8.FXhX#.5 4 pX!.(.BXW.jX;.;.3...} 6.%.+.6.hXkX'.5./.jXjXO.J i . H ' M > M s m.U T ",
"V N aX$.n Z.K y ; 2 G 1 hX$.! ! w } 7.jX8.6.&.tXkXFX6.uXpX3.7 hX$XpX#.3.uX>.iX!.W.jX#.&.hX6.7.(.+.+XT.^.d.> u M.R f k c 1 `.d f ",
"d *XN & 2 i.X.; v X.X.Z.yX4.....6.(.jXkXpX#.FXJXiXGXjX7.FXeXhX&.6.+.7 q 8 +.(.6.'.!.dXFXeX..kX+._.~.).#X/ : g x H 1 ' / x =XA a ",
"e.t ; _ z N.D H v G X.] iX+X_._.(./.[._.kXhXGXJXJX7.iX..| eX3.#.w eXw @.tX..8.!.tXuXdXdXkX7.pX6.iX!.!.aXh b.< N : N _ z h T ( l.",
"B 0.i H V ; Z r B.( x T 7./.hX6.kXuXkX3.7.pXjXiX:.tX .6.7.pXtX#.#.7 #.yX8.dXpXyX_.~.8.dXpXtX8.~.8.7.pXT P h n h.c l : , O.) b y ",
"B b R Z aXA C c z r d.y / jXOX_.7.(.uX8.8.!.4.7.pXdXuXiX4.iXkXhX| yXOX_.7.dX_.jX^.(.(.uX).^.7.jX#././ n h P / a j.: N v T - u l ",
"z ( `.P d A.; & $.: o.aXn.n <.2.9.[.[.OX[.5.7.7.iX5./.|.7.jX#XzX#XVXcXjX%XoXoXoX+X_.%XXX{.:.;.:.*.e O.u ] g c.H r.: N n R.Z.G T ",
". h.o h.U L ' F ; H `.F 2 4.zXjXjXkXiX5.~ e 0 0 e ;.:.9.:.2.2.2.2.2.1.1.1.1.1.=.:.1.<.+X_.4.3.[.T.$XY.: `.s.`.S.r M V Z ) X a j.",
". @.b.E.j U M p > U U j 1  X,X,X9X3X0XwXbXnXCXSXAXVXVXVXNXkXVXVXVXVX/.T.cX8X%XcXmXbX0X9X,X,XoXoXoX@Xg l.J J ; j.m.V C d ' n X.i.",
"p N s.s.z C G d t s.: c u M ) |.:XI.I.I.I.I.I.:X,X;X3X9X3X4X9X0X0X0X0X8XoX9XoX,X,X,X,X-X;X>X>.E ) N A A d z.G u k.r.i./ _ u k.0.",
"a.v ( X v l.: y s j _ Q , M H . & a O.P >.E G.G.D.|.E.}..XL.K..X{.|.[.J.2.2.F.>.G.f.E v.0.0.a & g / b z.;   p v < V.x i.1 o.*XlX",
"x.n n.r a l.l.M k r n : z N b D & u c & p m.t R N & v ] : n u g P / s.z.] : Z ( s ; u.s B m & = ' a ; A.' _ e.; * K r u.X K c   ",
"p Z l.C C i Z `.' u n u *X> & aX/ c.( M.G f N d R Z / ) * g l.P b.g j ( Z v J > z.B a.B 0.0.G s D = f H f o.R b a x., r z.z.3 Z "
};
