/* XPM */
static char *_82351962cfa4090c7cbee9bc1cbad59O613hTgLFvsLMEtW[] = {
/* columns rows colors chars-per-pixel */
"64 64 244 2 ",
"   c None",
".  c #060606",
"X  c #0C0B0C",
"o  c #0A0606",
"O  c #130E0E",
"+  c #190908",
"@  c #18110E",
"#  c #110F11",
"$  c #151313",
"%  c #1A1514",
"&  c #1E1915",
"*  c #1C1A1B",
"=  c #1A1719",
"-  c #0F1012",
";  c #25120E",
":  c #211514",
">  c #2A1A16",
",  c #231C1B",
"<  c #2B1D1B",
"1  c #261814",
"2  c #341D19",
"3  c #2C211E",
"4  c #2B241E",
"5  c #34231D",
"6  c #3B231C",
"7  c #3B281D",
"8  c #171722",
"9  c #231F21",
"0  c #242223",
"q  c #2B2524",
"w  c #2E2A29",
"e  c #332422",
"r  c #3B2622",
"t  c #352B26",
"y  c #3C2A26",
"u  c #3B2C2A",
"i  c #372928",
"p  c #3C302E",
"a  c #34312D",
"s  c #3B3633",
"d  c #2E2B31",
"f  c #1F2234",
"g  c #4A281D",
"h  c #432C24",
"j  c #442F29",
"k  c #4C2D2B",
"l  c #43322D",
"z  c #4B342B",
"x  c #443429",
"c  c #57362B",
"v  c #453433",
"b  c #4C3633",
"n  c #433C3C",
"m  c #4A3B38",
"M  c #533A33",
"N  c #5B3C34",
"B  c #523E39",
"V  c #573832",
"C  c #522D2A",
"Z  c #653F38",
"A  c #594139",
"S  c #4D413E",
"D  c #63453B",
"F  c #6B4A3C",
"G  c #67463C",
"H  c #734B3C",
"J  c #7B4836",
"K  c #77503D",
"L  c #33344F",
"P  c #7F3F42",
"I  c #483C40",
"U  c #584946",
"Y  c #5F5357",
"T  c #4E4648",
"R  c #644A43",
"E  c #6C4D43",
"W  c #644C48",
"Q  c #754C46",
"!  c #69524C",
"~  c #685248",
"^  c #7C554C",
"/  c #7A5C4D",
"(  c #745448",
")  c #675758",
"_  c #7B5C52",
"`  c #765C56",
"'  c #786259",
"]  c #6E6059",
"[  c #6C5E65",
"{  c #796867",
"}  c #726468",
"|  c #574F70",
" . c #804B3F",
".. c #825A4D",
"X. c #8A5748",
"o. c #945B48",
"O. c #9B5B54",
"+. c #A45E4A",
"@. c #A15C54",
"#. c #9D624D",
"$. c #876458",
"%. c #936353",
"&. c #9A6453",
"*. c #996A59",
"=. c #9A725E",
"-. c #A9634E",
";. c #A5624B",
":. c #A56451",
">. c #AB6552",
",. c #A36A55",
"<. c #AD6A53",
"1. c #A46D5C",
"2. c #AB6C5B",
"3. c #A5655C",
"4. c #B26C55",
"5. c #B46B58",
"6. c #AC735E",
"7. c #A6735B",
"8. c #B47056",
"9. c #B5735C",
"0. c #BA745D",
"q. c #BC795F",
"w. c #8C6D62",
"e. c #856C67",
"r. c #926C61",
"t. c #887166",
"y. c #9B7462",
"u. c #987668",
"i. c #947B78",
"p. c #877676",
"a. c #A76D63",
"s. c #B36A65",
"d. c #A47563",
"f. c #AC7562",
"g. c #AD7A64",
"h. c #A47C6C",
"j. c #AB7E6B",
"k. c #A77667",
"l. c #B47462",
"z. c #BB7662",
"x. c #B47B64",
"c. c #BD7B63",
"v. c #B47E6A",
"b. c #BC7E6A",
"n. c #B6746B",
"m. c #C56951",
"M. c #C27C65",
"N. c #C27C6A",
"B. c #C67869",
"V. c #C87A76",
"C. c #C75F4C",
"Z. c #AA806D",
"A. c #B5836C",
"S. c #BB846C",
"D. c #BB8368",
"F. c #AB8374",
"G. c #B58573",
"H. c #BB8671",
"J. c #BC8A72",
"K. c #BB8C7A",
"L. c #B58A77",
"P. c #BD907C",
"I. c #C4836C",
"U. c #C9856C",
"Y. c #C2896E",
"T. c #CA896E",
"R. c #C38165",
"E. c #C58572",
"W. c #C98572",
"Q. c #C38B73",
"!. c #CB8C74",
"~. c #C28E79",
"^. c #CC8D79",
"/. c #C98179",
"(. c #D18B75",
"). c #D28E7A",
"_. c #C69175",
"`. c #CB9276",
"'. c #C5937B",
"]. c #CC947C",
"[. c #CC997E",
"{. c #D4937C",
"}. c #D4987D",
"|. c #D5826B",
" X c #616582",
".X c #8C8487",
"XX c #998A8E",
"oX c #BD9287",
"OX c #AC9797",
"+X c #B99C99",
"@X c #B18B83",
"#X c #BCA09D",
"$X c #B6A8B4",
"%X c #C49483",
"&X c #CA9581",
"*X c #CD9B83",
"=X c #C99A8B",
"-X c #D19B83",
";X c #D69986",
":X c #C49D91",
">X c #D4A28A",
",X c #D7A289",
"<X c #CCA59E",
"1X c #CEA086",
"2X c #C8B7B8",
"3X c #D8B7AF",
"4X c #9594CE",
"5X c #9A99CB",
"6X c #9B9AD4",
"7X c #9997D6",
"8X c #8D8BC4",
"9X c #A19CCE",
"0X c #A29EDA",
"qX c #A9A8CB",
"wX c #AAA9D7",
"eX c #B4B2D3",
"rX c #9E9DE0",
"tX c #B4B7E2",
"yX c #A9AAE4",
"uX c #9FA2C8",
"iX c #C4BED3",
"pX c #CDC4C7",
"aX c #D6C6C8",
"sX c #C4C3DC",
"dX c #D5CDD6",
"fX c #DDDADD",
"gX c #D7D4D8",
"hX c #C6C6E2",
"jX c #DDDCE3",
"kX c #DCDCEB",
"lX c #D7D7EC",
"zX c #D3CFE7",
"xX c #E0DEE6",
"cX c #DFE1ED",
"vX c #E2E2E6",
"bX c #E5E4EB",
"nX c #EBEBEE",
"mX c #E9E7ED",
"MX c #EDEEF2",
"NX c #E7E7F2",
"BX c #F1EFF4",
"VX c #EFF0F3",
"CX c #F0F1F2",
"ZX c #E6D7D6",
/* pixels */
"                                                                                                                                ",
"                                                                                                                                ",
"                                                                                                                                ",
"                                                                                                                                ",
"                                                                                                                                ",
"                                                                                                                                ",
"                                                              i.) [ n I ) XX                                                    ",
"                                                        i.= X o . X $ * U n a } )                                               ",
"                                                    } n w $ % X # $ X . X O @ @ b { T                                           ",
"                                                  [ ) & + @ @ % : : o @ o O $ O % & ' .X{                                       ",
"                                              p.{ B + , 9 h h M e 2 > y > 5 j 6 1 j 3 u .Xe                                     ",
"                                            [ [ p : > r c  .o.,.o.H F Q ;.o.o.+.H Z G W B p.{                                   ",
"                                          .Xm Y i j X.#.>.>.<.4.c.5.9.9.8.4.-.+.+.+.:.k.R B B                                   ",
"                                        } OXa { r.a.:.>.<.>.-.>.9.z.0.8.q.-.<.-.<.<.4.k.2XXXY )                                 ",
"                                      [ Y Y iXZX+Xf.:.<.0.c.z.z.q.M.c.M.q.0.0.0.0.-.5.8.@XdXxXT                                 ",
"                                      Y ` eXdXOX%X6.4.c.4.0.q.z.9.9.9.M.9.M.q.M.0.M.5.4.B.<XxXW ]                               ",
"                                    ) ) e.#XaXoX<.<.<.;.9.8.0.0.M.U.M.c.U.M.M.M.0.0.8.q.9.5.aXiXW                               ",
"                                    XXU t.+X+XG.<.-.<.<.8.9.5.4.N.M.R.M.M.U.q.0.U.9.9.<.4.c.>X3X) }                             ",
"                                    ` ! u.j.v.f.9.9.<.q.l.z.N.E.I.z.M.0.0.q.z.U.U.M.q.8.8.q.=X+X` U                             ",
"                                    U ! $.d.H.v.x.9.,.<.c.l.E.!.^.!.W.z.I.!.E.W.I.c.:.:.<.6.%X:Xe.]                             ",
"                                  ' ~ ' 1.x.G.x.2.E E ( E c ! %.W.].).).^.!.a.Q V z D V ^ 2.oXoXF.e.t.                          ",
"                                  ! ' _ 6.g.x.A.N y b : < x ~ D 6.;X(.!.;Xg.A h M e 2 9 e B <XP.L.w._                           ",
"                                  ! ( =.J.S.H.A N / Z.u.( F ^ *.Y.!.`.{.`.x.*.%.N / Q j.%.~ ( :XK.u.`                           ",
"                                  ' _ =.A.J.7.$.f.S.S.E.g.7.,.x.T.T.`.).!.S.g.&.,.g.E.^.x.~.d.K.G.h.i.                          ",
"                                  u./ Z.A.J.6.Y.[.}.#.g.*.X. .o.D.T.M.M.R.c.o.J ..3.k.:.*X^.J.g.oXF.@X                          ",
"                                  _ ( Z.J.H.1X[.X.D.; 1 ; ` C ,.9.9.4.-.-.9.l.g e.n + 2 x.1.~.J.:XF.i.                          ",
"                                  K _ Z.1XP.[.`.&.Z OXm 1 u.c ,.6.+.8.5.>.l.9.Q h.; > OXV 7.'.J.P.P.e.                          ",
"                                  / / L.'.`.J.S.x.x.E.k.&.*.,.6.6.<.B.5.B.>.6.9.o.X.*.f.9.9.Y.~.'.:Xe.                          ",
"                              U.Y.$.$.:X=XJ.9.8.c.T.R.c.q.x.9.c.5.>.m.B.M.0.z.z.z.M.c.9.S.c.N.H.K.oX( *.R.V.                    ",
"                              B.-X`.$.%X%XY.c.D.T.Y.T.c.U.M.N.N.I.4.M.V.>.N.c.(.).N.z.N.M.N.W.b.P.%Xh.).{.m.                    ",
"                              |.,X`.u.K.H.^.{.^.U.R.M.T.z.N.W.l.:.I.;X;XW.2.z.W.{.|.M.N.).W.W./.&XK.j.;X;Xm.                    ",
"                              |.,X!.u.L.J.~._.^.T.U.M.W.c.I.z.W.!.{.;X;XW.W.).B.B.(.{.).W.).^./.&XJ.$.!.T.C.                    ",
"                              M.,X-XR h.J.~.>X{.{.^.!.W.W.W.E.^.I.-.&X;X+.-.).5.N.(.).{.(.(.).&Xv.F._ -X!.C.                    ",
"                                T.%X( =.J._.-X`.`.{.).U.U.N.l.@.s.2.6.n.B.3.2.z.M.|.).{.).^.~.^.v.! G.z.{.B.                    ",
"                                0.-X' z w.A.[.[.{.I.).T.U.N.b.C k N a.&.Z C O.z.M.{.{.).}.W.x.H.h.B K.M.!.b.                    ",
"                                >.9./ a w.L.A.J.;X`.R.T.x.%.l l I m e U v 5 h O.M.(.).^.{.~.J.G.! A &X5.5.                      ",
"                                3X,Xr.p $.F.P.*.~.E.Q.f.z 5 > 1 e u + k 2 y ; 2 N ,.!.E.'._.L.F.t U b.9.5.                      ",
"                                  >X_ 9 a / $.=.j.f.V h l M b N Q C e r ^ ! V h 6 5 o.~.'.Z.u.$.t p `.3X                        ",
"                                  >XW v v h ~ / y.K 7 z N X.*.s.s.V.V.s.V.V.3.$.h M D d.A.K.G b p A -X=X                        ",
"                                    v u t , A x A D z E H G @.3.V./.V.V.V.s.P Q N h h ( $._ l a 4 A E.                          ",
"                                      w , t 3 v e A 6 A ..%.x.n.3.O.O.s.N./.b.a.Q y A G A p u u t /                             ",
"                                    A : % @ $ u l A 5 N X.^ F h j v b < z F H X.F 6 7 A j > l , s )                             ",
"                                      L * % X & 5 , A A D D A h z 2 r 2 M F K F F x A 7 e q 4 , q x                             ",
"                                      w w $ . $ & 5 r D c K z 7 6 g 2 6 c N H c C 5 e x 4 % & t s                               ",
"                                      0 0 X X 9 X % t b c x j x v V G C z z 2 k > 3 5 & & $ , 0 s                               ",
"                                        0 , 0 . % - $ 4 @ 4 S y l ^ ..N N h h i @ , O & q X * = s                               ",
"                                        t , = - X $ $ 0 O < y b b u e B b k 2 u r @ X $ % X 9 S                                 ",
"                                        ( & = 9 - $ $ = % % 4 S b U i y p y , & , @ * 9 4 $ t r.                                ",
"                                        q./ 4 - 0 X $ * . $ X w = w S $ , X = $ . = $ * , , ..f.                                ",
"                                    iX=XD.g.F = 0 - * X . * & * s w % X = . = o X q X , > =.f.A.                                ",
"                                  aXe._.x.A.6.D q s . - . * - % * % X X O X 8 * = $ & { $.S.Y.J.2X                              ",
"                                bXpX` R.D.E._.d.u.~ X = $ - X - - 9 $ $ = $ q q O & ! r.g.E.S.S.$XfX                            ",
"                                vXpXA D._.D.D.A.y.=.w.v $ % $ . X - $ 0 0 * = w ~ y.k.d.A.S.D.c.+XgXNX                          ",
"                              BXvXdX5 S.R.`.J._.y.=.d.y.F.' / s s 4 , % , 2 ! $.y.L.k.E.J.E.Y.Y.#XgXnX                          ",
"                              CXCXdX> D.`.[.[._.J._.A.Z.G.J.L.Z.y.y.Q Z.Z.L.L.K.L.J.A.Q.!.Y.`.Y.2XvXnXCX                        ",
"                            MXCXCXfXA q.Y.`.`.[.[.J.J.G.P.'.A.'.A.P.H.'.%XK.%XL.[.S.`.].!.^.Q.A.pXnXnXnX                        ",
"                          uXMXCXMXbX2Xo._.`.}.`.J.P.'._.[.P.[._.'.].J.J.H.%XA.~.'.>X[.].].`.W.#.xXNXNXMXMX                      ",
"                      jXeXtXnXCXVXnXvXF D.[.`.[.`._.*X[.].'.'.P.'.].Q.*X*X&X].,X,XQ.!.`.`.`.R.$.bXMXMXMXMX|                     ",
"                xXNXeXrXuXtXCXCXVXCXnX$X&.T.`._.[.`.`.[.[.=X1X'.%X[.*X>X1X>X&X>X-X}.-X].{.`.&.gXnXVXMXMXMX XxXsXiX              ",
"          mXbXlXkXNXjXgXdXwXBXBXVXVXVXbXX.7._.[.[.[._.'.'.[.*X=X&X*X].>X>X1X[.*X}.-X,X]._.x.@XmXMXMXBXVXVXwX6XeXgXkXsXzX        ",
"      mXNXqXsXbXjXzXuX4X8X5XnXVXVXMXVXnXfX#.7.`.'.[.[.[._.-X1X1X>X>X>X-X>X*X,X[.-X}.[.*XR.&.jXMXCXBXVXBXMXyXzXzX7X6XNXcXeXiX    ",
"NXmXeXhXbXNXkX6X6X6XeXvXcXf tXVXVXMXVXVXnXZX,.7.J._.`.[.}.[.*X,X*X*X*X>X>X*X>X*X}.-XE.S.&.fXMXBXBXMXMXCXwXL 5XkXvXhX8X4XqXkXbXqX",
"hXkXcXMXuX4X4XqXcXNXbXvXjXd yXVXVXCXCXCXCXnX2X6.7.D._.'.].*X*X*X*X,X;X>X-X-X[.}.1X`.x.*.gXnXVXMXMXMXMXMX6X8 4X6X0X9XkXjXcXqX7XeX",
"lX7XwX5XNXvXNXbXmXvXjXjXjXL L 7XCXVXVXCXCXCXCXmX7.&.6._.`.Q.-X1X;X-X-X*X*X-X[.].Q.6.X.fXBXCXBXMXMXCXNXhX7X8 jXcXlX5X7X7X6XhXbXvX"
};
