/* XPM */
static char *YmVuemVmb25kdmVy[] = {
/* columns rows colors chars-per-pixel */
"64 64 255 2 ",
"   c #030A03",
".  c #0C0B0C",
"X  c #140C0C",
"o  c #001400",
"O  c #001C00",
"+  c #091B05",
"@  c #12140F",
"#  c #151313",
"$  c #1A1514",
"%  c #1D1817",
"&  c #1C1A1B",
"*  c #281917",
"=  c #2F1915",
"-  c #231C1B",
";  c #012400",
":  c #0A2703",
">  c #012C00",
",  c #162D02",
"<  c #033500",
"1  c #0B3301",
"2  c #023C00",
"3  c #0C3B00",
"4  c #173A03",
"5  c #133D01",
"6  c #0A2E19",
"7  c #183A17",
"8  c #243609",
"9  c #2C221E",
"0  c #36231D",
"q  c #161622",
"w  c #231F20",
"e  c #17312A",
"r  c #292524",
"t  c #382825",
"y  c #37322F",
"u  c #442D26",
"i  c #522D2A",
"p  c #47332C",
"a  c #57342B",
"s  c #57362B",
"d  c #483936",
"f  c #563B34",
"g  c #0D4200",
"h  c #094900",
"j  c #144401",
"k  c #1B4302",
"l  c #144B00",
"z  c #1C4C00",
"x  c #19460C",
"c  c #1B5300",
"v  c #1A5603",
"b  c #105609",
"n  c #1A4616",
"m  c #224C02",
"M  c #254708",
"N  c #235301",
"B  c #235B01",
"V  c #2B5B02",
"C  c #2A580A",
"Z  c #345904",
"A  c #274A16",
"S  c #334D11",
"D  c #2B5413",
"F  c #2C5C13",
"G  c #275618",
"H  c #355A18",
"J  c #1B6602",
"K  c #2A6506",
"L  c #366706",
"P  c #2B7605",
"I  c #387505",
"U  c #2B6616",
"Y  c #386717",
"T  c #3B7617",
"R  c #18512C",
"E  c #274A26",
"W  c #2C5724",
"Q  c #355B28",
"!  c #335033",
"~  c #396626",
"^  c #3C6B23",
"/  c #3B7524",
"(  c #396635",
")  c #387031",
"_  c #455415",
"`  c #466608",
"'  c #447605",
"]  c #57710B",
"[  c #456919",
"{  c #467818",
"}  c #557B19",
"|  c #425B29",
" . c #594139",
".. c #4D5035",
"X. c #67473C",
"o. c #754A3B",
"O. c #70533D",
"+. c #466B29",
"@. c #487827",
"#. c #547A29",
"$. c #456835",
"%. c #546A37",
"&. c #4A7737",
"*. c #567835",
"=. c #6D7937",
"-. c #33344F",
";. c #643E41",
":. c #3B6247",
">. c #594947",
",. c #57504D",
"<. c #674C44",
"1. c #754C46",
"2. c #68524A",
"3. c #77564A",
"4. c #675758",
"5. c #775C54",
"6. c #4A7547",
"7. c #577846",
"8. c #4D6F51",
"9. c #64734D",
"0. c #796358",
"q. c #5E6066",
"w. c #706C66",
"e. c #804B3F",
"r. c #875849",
"t. c #945B48",
"y. c #9B5B54",
"u. c #A35D4D",
"i. c #876458",
"p. c #986756",
"a. c #996A53",
"s. c #A9634D",
"d. c #A76856",
"f. c #AD6A53",
"g. c #B36B56",
"h. c #AA735D",
"j. c #B77359",
"k. c #B5735C",
"l. c #BA745D",
"z. c #886C64",
"x. c #8D726A",
"c. c #9A7565",
"v. c #AD6B64",
"b. c #A97966",
"n. c #B47B64",
"m. c #BD7B63",
"M. c #B87865",
"N. c #C56750",
"B. c #C27C64",
"V. c #C37B6A",
"C. c #C87A76",
"Z. c #368307",
"A. c #488604",
"S. c #548A09",
"D. c #52940C",
"F. c #488719",
"G. c #558819",
"H. c #69940F",
"J. c #57A112",
"K. c #6AB00D",
"L. c #4C8428",
"P. c #568829",
"I. c #579429",
"U. c #4D8531",
"Y. c #588638",
"T. c #599338",
"R. c #6C902C",
"E. c #669A29",
"W. c #658A3A",
"Q. c #679838",
"!. c #6FA734",
"~. c #5A8645",
"^. c #579046",
"/. c #5B8A54",
"(. c #658B47",
"). c #699647",
"_. c #759249",
"`. c #668856",
"'. c #6B9756",
"]. c #759857",
"[. c #6BA548",
"{. c #77A84A",
"}. c #76A756",
"|. c #74AE53",
" X c #5D8768",
".X c #769669",
"XX c #6BA865",
"oX c #7AA868",
"OX c #87A93B",
"+X c #9DDD2B",
"@X c #94A656",
"#X c #89B156",
"$X c #859068",
"%X c #B7836B",
"&X c #BB846C",
"*X c #AE8674",
"=X c #BC8A72",
"-X c #B98875",
";X c #8CB26E",
":X c #C4836C",
">X c #C5876C",
",X c #C9856C",
"<X c #D28169",
"1X c #C38B73",
"2X c #C58975",
"3X c #CB8C74",
"4X c #CC8D79",
"5X c #D28C77",
"6X c #C5937B",
"7X c #CA9479",
"8X c #CC947C",
"9X c #D4937C",
"0X c #D4987D",
"qX c #93D153",
"wX c #AAD256",
"eX c #93CA72",
"rX c #A7CD74",
"tX c #759389",
"yX c #91888B",
"uX c #B6948F",
"iX c #8DAF87",
"pX c #B3A99E",
"aX c #B0A8B0",
"sX c #C89685",
"dX c #CD9B83",
"fX c #D19B83",
"gX c #D69985",
"hX c #C39D90",
"jX c #D7A289",
"kX c #D4A28A",
"lX c #CCA498",
"zX c #CDB7B4",
"xX c #ABD591",
"cX c #CAE3AE",
"vX c #8D8BC3",
"bX c #9896CC",
"nX c #9A99D5",
"mX c #A19DD3",
"MX c #9FA0D4",
"NX c #ADACD3",
"BX c #B0B2E2",
"VX c #C5BFCF",
"CX c #BCEFCE",
"ZX c #CEC8CF",
"AX c #D9D6DA",
"SX c #E0E3DF",
"DX c #C8C7E3",
"FX c #DCDBE7",
"GX c #E4E4EB",
"HX c #E7E7EB",
"JX c #E7E7F2",
"KX c #EDEEF2",
"LX c #F1EFF4",
"PX c #EFF0F3",
"IX c #F0F1F2",
/* pixels */
"{ K E.} l { m k > O (.P.l U.L l @.oXP T L.|.< 3 L ~ g L.2 v P.K T < O Y.> R K.l { .X) b P S.[ ` M : ;XW.] @XxX=._ : +.%.S }.z ~ ",
"P.V P.L #Xz T.; m A D R.'.W.T T g h P I.T./ F.D V 7 g D.l > > P.T x , !.B > K.{.+.( XXP z E.8 Z @XW._.[ M OX_.  , , Z Z L S.U.*.",
"C H , 7.( /.|.7 +.O A R.n +.T.j > < T L.K G { k C 6 M S.@.! W $.U < P.E.2 T.D.h A w.b P #.m cXwXxXR.@X#.+XOXH.cX_.;X;X%.+.@.C ).",
"T P.@.C ^ g J R > 7 6.#.9.5 H ;X*.+.#XY ) &.[.Y l ! ~ !.m O { Y j h E.S x J Z.W A q.< b +.@X).P.H.' A P.+X#X%., $X_ 8 k G.' h U.",
"4 #XqX}..X} I ~ n < / iX X> : +.e U ).+.K ^.Y.I ' U.3 *., . E E.o &.Z.h J P ~.~.n iX5 G N c U Z.L _.$XP.+X@XrX8 _ _.I R F m Y R.",
"Z 5 C U.$.: 2 j ^.;XW k x g %.).! /.Y.4 V x T !.!.iXx 5 +.O l D.l T F.R b J +.oX; ;XA N > Q.V Z.P.W.9.N D.@XqX#X2.4 { A.@.M L L ",
"Z 4 ; c #X.X~ N K 6.; C Y > $XP.7 '.W.  Q.&.W T b +.&.F.U.n $Xx.4.4.d d 4.yXA 4 x xX^ 3 L.{ Z.Y ].L Q S Z m eXS.K.' Y z @XwXG.I ",
"S _.D > E.N x Z Y.7.1 V @.`.].< ( &.Y.`.{ G n 5 3 H H W.$Xq     . . # & ,.d t w.4.'.xXB { { h k M I )   ] Y.XX> @.@ M O Z iX[.A.",
"%.G.k g I 5 +.A .XY N &.^ Y #XL ) oXm   < .XH Z [ $Xw.d r $ $ . # X .     X X $ p w.>.z ).L.P %.[ h U.S ] ;X` N OXj ' {.qX/.|.P ",
"` o M W.: e Z ; '.V 3 @.}.G.P.G.;XH Z H L E 7.[ =.4.4.* X X X $ $ * . # . . $ X $ % 0.yX9.F b < L j > E.#XL 8 R.E.V ~ G.).b ) T.",
"] , _ ]   q.~.k Y.{.F.B I K ' H.^.l P.4 #X( *.x.w. .. * t t u f = 0 * t * 0 u 0 * u 9 t yXr z XXP *.`.K D.P.] E.N D.I H.!.v tXv ",
"q.%.' 4 + #.1 [ L &.@.P A.U S.A.U { } %.` 1 4.q.p $ = t s e.t.d.y.1.X.o.s.t.t.s.o.;.;.2.d x.9.h A.=.8 K.D.W.%.CXU v ` pX%.L.iXL ",
"xX4 .Xo C K K v Y.W A ^.T.h h qXZ.v qXI P.yXd 4.t p r.y.s.f.f.g.m.g.l.k.g.f.s.s.u.u.s.b.<.d  .&.T.U.L.L.V #.!.L _ 7.; CX#.V 9.O ",
"eX#.iX`.A (.P.K @.k &.^ U P c v E.U U G.w.yXy 5.z.v.y.s.f.f.s.s.l.l.j.j.l.s.f.f.f.f.g.v.zXyX,.4.T.2 T.F ;X#X{ z +.=.].&.{ [ `.; ",
"L 3 < 3 4 > #.).1 A k 3 L.L.U I.g g l ,.,.4.ZXAXuXh.s.g.l.B.l.m.m.m.m.B.l.j.l.l.g.f.g.j.sXDXGXd K C *.j *.*.L W.8 #.xXT T.{ '.D ",
"Q.+.< $.> '.Y.+.D H +.3 #XK 1 j @.Q ; 4.w.aXDXuXhXM.g.m.g.g.M.B.l.k.k.m.l.:XB.l.j.B.g.g.M.lXGX<.w.F U.(.].4 > {.V R.Q.Z./ @.#.z ",
"3 c n ~ G @.&.O ~ (.#.).z j [.~ `.1 2.,.x.uXZXsXf.f.f.s.j.f.M.g.B.,XB.m.:XB.B.B.l.k.j.l.l.k.zXZX>.T }.&.m M +.Y.} Q.I.F.F.).!.{ ",
"~ F U ~ F B H ; &.j T F 3 N I.g Q x yX,.x.pXuXM.f.s.h.f.g.j.l.g.:XB.B.B.B.,XB.l.,Xj.j.f.g.,XlXzX4.4.U.T.H Y.#.k Z T K Z.J L.G.!.",
"U @.@.Y l Y &.].T.U.T T ).}.J.Y 6.$.5.2.x.M.b.M.k.k.f.k.l.m.V.,X:Xm.B.l.l.l.M.,X,X:Xm.f.g.l.sXuX5.>.).L [.Y.N m #.Y.V { ` R.' {.",
"!.G.v F F c k O l L.{ h @.U K U E 9.>.<.i.c.-X-Xn.k.f.d.n.n.:X2X4X3X,XM.>X5X,X,X:Xm.s.d.f.k.sXsXx.4.&.P {.{ '.Y D 5 U v !.qXE.E.",
"B / ~ U.; ;X$.].S 7.  O G v }.z F.0.2.i.b.n.%Xb.g.<.<.1.<.s 3.i.2X5X5X5X5X2Xc.o.f i X.f 3.g.sXuXb.z.=.A.P ) [ ` Q.J v K #.K OXJ ",
"x 3 > E.|.'.+.G 7 Q 1 W.l ^ =.Y V 2.0.0.b.M.n.n.f u f * * p <.X.h.gX5X4XfXn.;.u f r = * r  .lXuX-Xz.0.F l h B L.T [.F.U.l { K.Z.",
"O A I.' L ~.@./.: Q L S.z n O 1 N 2.1.a.&X%X=X .f 3.c.b.3.O.3.a.>X3X3X0X7Xn.d.i.f 5.3.b.i.<.3.hXuXb.4.K F /.U l I.P T h Z.!.H.v ",
"7.m 1 B Y < l }.: +.Z M &.! 7 Q ; 0.5.c.&X=Xb.i.b.=X&X&Xb.h.d.%X1X3X3X5X3X=Xh.u.d.b.2X6Xn.1Xb.-X*Xb.x.O x K Y eX2 P h b L.E._ K ",
"*.*.A 4 4 L Y W.L [ : ! ! y 7 E 4 x.3.*X*X=X%X=XjX0Xa.k.d.t.o.r.&X,XB.B.B.n.t.o.r.v.b.d.dX2X=Xb.uX*XyXE U D.].4 { { T { !.' $XY ",
"#.[ o e W [ C V m 4 w .X8.( o E : 5.3.b.=X=X8X7Xr.%X= $ X 5.s d.k.j.g.f.s.k.g.i w.d X = M.f.6X=XdX*Xc.I L.;X  M [ ; j _.eXZ 7.].",
"W.D $.! O 4 #.#.: , E `.H M m D x 3.0.%XdX=X7X7Xu.;.uXp * c.i d.h.s.g.g.f.v.k.o.b.* - uXf d.6X=XsXuXz.) }.Z./.G #.U.j U.#X!.oX@X",
"+.+.&.%.].%.S.$.& + H G.c { } H ..3.3.*X6X7X=X>Xn.b.-Xb.p.p.d.n.k.f.l.l.l.s.k.M.t.r.p.v.k.M.=X1XsXsXz.Q.Q 2 E /.2 l h v {.v 8.R.",
"L.L ).;X_ +.: ! K &.L + D 6.D C.&Xi.i.hXsX=Xj.g.l.3X:Xl.j.%Xl.n.g.s.N.B.V.l.m.B.B.B.m.k.V.m.m.2X-XuX3.p.:X:XD.^.2 I < Y Z.D.I.j ",
"U V Y m #.8   A l U Y O 1 +.A B.0X7Xz.sXsX>Xm.&X>X>X,XB.:X:Xm.V.C.g.B.C.f.:XM.3X5XB.B.B.V.V.2Xm.-XsXb.5X0XN.F.T.P.^.E c J.F.g T ",
"~ ~.M G ;X7.`.V U { ].#.;XP.Q.<XjX0Xc.=X=X6X9X3X,X>XB.,Xl.B.,Xk.d.V.gXgX2Xg.M.C.9XC.V.m.5X4XC.2XsX2X*XgX0XN.L L.G.[.7.h A.T.@.{.",
"M ~.< ~ &.&.M } x N w.@.x V ~ ,XjX3Xx.*X=X1X6X4X3X,X:X,X:X:Xm.,X1X9XgXgX5X<X5XB.B.5X9X5X5X4X2X4XsX-Xi.,X,XN.S.~ ^ S.j Y E.' c 1 ",
"1 ~.W ~ ) *.o #.; U 6 =.1 c C >XkX0X .*X=X1XjX0X0X3X3X3X5X,XC.sX,Xs.dXgXu.s.5Xg.V.5X5X5X5X5X4XdXn.b.i.fX5XN.V H K A.!.'.I I.[ j ",
"3 ).D 5 m ~.iX;X( H E `.Q g L 0.7XdX3.a.-X6XdX7X7X9X5X,X,XB.M.y.M.d.v.b.V.d.v.V.B.3X5X9X5X5X4X2Xn.4.*Xm.9XB.Z W.G.P.oXE.K ) Z Y.",
"@.(.C m j @.7.4 L.+.4 | ].j $.+.g.kXi.p x.*X8X0X9X:X5X,XC.:XM.i i f v.y.;.i y.l.V.9XgX9X0X:Xn.=X*Xf -XB.,X9.c T I Z.; I.wX~.5 W.",
"{ N @.).[ [ $.`.A./ m $.C ~.(.: s.h.5.y i.*X%X=XgX3X>X>Xn.t.u p d d t >.p = u y.B.<X5X4X9X6X-X-X2.f sXg.l.< v U.> qXh v P #.*.Y ",
"` ` 8 M %.Z | 7.Q A E | _ # Z /.zXjXc.u i.*X=Xp.1X1X3Xb.p t * - t u X t 9 t * 0 f f.3X:X1X1X*X*Xt >.m.l.j.I.h U b v K l @.2 W D.",
"{ Q.#.+.Y / ).z ).W.*.7.: #.Y 1 ..jX5.= y 5.i.c.b.b.s u p f i f 1.i t = 3.1.i u 0 0 t.6XsX*Xc.i.t y 9XzX&.L.P.j x F '.Q.Y / j A.",
"^ ^.eX|.T.T T U.P T.~.3 *.Y.~ A D -X<.y d 0 <.3.c.O.0 s f r.y.v.v.C.C.C.C.C.d.i.u f  .b.%X-XX.d y >.fX*XY 5 W.Y.~.~ @.Y C ;XP.h ",
"x ~ h G.{ U B F.Y.@.&.j *.Y '..X> ~ d p t 9  .p  .X.p <.o.o.y.d.C.C.C.C.C.v.e.1.s u p 1.i.5.p y r f m.D +.#.> ].%.k +.K ^ ^ Q.T.",
") O L v { j j > (.+.`.A 4 5 7.$.; j A r & t 9 d t f 0  .r.t.b.n.v.y.y.v.C.2XM.d.1.u  .X. .p t t t O.1 m &.*.Z _.> O _.).*.O z /.",
"+.z rXQ.K 2 Q H ~ %..X7 6.[ z 7.n O >.% $ # X t p  .0 f r.3.O.u u u d = p X.o.r.X.0 0 X.p = y 9 d %.*.S oX1 *.(.+.m P.{ Y &.2 $.",
"Q.K I.g F g Q 4 M M A A D @.|.T.x ( W y & & . $ r * f f X.X. .u i 0 u 0 f o.r.X.O.u  .t r r - - r %.Z +.~.; '.j k N {.#X+.+.Y iX",
"G.!.O b ) 2 ( W ~ '.$.^ < T K |.) W *.y r # . # * 0 t <.f 1.s 0 0 0 = 0 s s X.a i 0 r p 9 $ & t y 8 4 *.'.n )./ '.@.P.Q.).;X].1 ",
"B 8.&.C Y { L e E 4 ; { T 6./.A Q A A r r . . & . # t p f p u p i f ;.s i i 0 i * 9 r - * X & r ! [ T U }.c  XI ; &.I D.< J.Q.~ ",
"g Q @.~ x &.G.n : ~.O Y K  X6., 7.&.) `.r & r . & . # r X r f u p r.3.;.f t u t $ * X % r . & & 9.$.x K I F :.l :..XT l 6 K L @.",
"!.T c &.+ C I l ~ &.`.k Q tX  ..$.: $.; t 9 % . . # # r . 9 t d d u 0 d f p 9 y 0 @ X # # @ & d H ' } +.> { +.T U.T ^ F.U.> G.T ",
"L ' A./.e *.qXK H H ~ D 7.8.+ , , 7.$.&.5.& % q # # # & # # r  .d >.t t y u * $ * @ % w 9 # t c.[ H P.` m ) L.Y.c I H G.R.W.F.b ",
"A g I ~ ! U.@.).&.G D 1 M )..X|   S '.! M.1.9 @ r . # %   # . r $ y d $ & . # @   $ # - 9 - r.b.#.*.[ _ [ G xXtXb A.R *.D 7 @.$.",
"~ +.P.: Q |.W v A ( @.D Q K 9..XA ;XpXhX&Xn.<.& r . % .   & # & y r & . &   & . . r . - * c.v.%XA R.Z Q 6.B '.6.U S.G { @.W [ +.",
"W.Q +.@.~ c H Q.C $.V H x P.*.&.Y.ZXi.6Xn.n.n. .r y   # . & . $ q $ . . . . r & & # & w.i.%X&X=XzX.Xo Z I.W L.g l S.T I K T Z 4 ",
"1 7 ~ (.+.&.D G._.E #.x 8.Y.) &.ZXZX0.&X&X>X1Xb.c.4.. # # # . X # r # # & # r r X % 2.p.b.>X%X&XaXFXS A ^ c O ^ &.K g K v '.' Y ",
"I L iXw.G .X( j 3 n Q j L $.T.; SXZX .&X7X&X%X=Xc.c.i.d # # #   . # # w 9 & & r 2.c.b.c.%X=X%XM.uXAXAXH Y.3 k ].{ n V A 5 ;Xc n ",
"v eXL : 6 P.8.< G :.6.+.x 7 L.VXHXZX0 B.&X7X=X7Xc.c.b.c.*X0.0.y y w - % - = <.i.c.-Xb.,X=X1X>X>XuXAXLX;X+.3 m V ^ 5 &.Y C rXT x ",
"F.h < $.K [.Q ^ D Q 6.Y Y &.Q KXHXAX= &X7X7X7X=X>X6X%Xb.-X-X*X*Xc.c.1.b.*X-X*X-X-X-XM.6X3X>X3X1XzXFXKXHXS W.8 ` : L ( S S [ @.~.",
"P Z.x U I 2 Y g {.@.V [ Z T.KXKXIXSX .j.>X7X8X8X6X&X=X-X=X6X-X6X-X2X-X6X6XuXsX-X8X&X8X8X3X7X3X%XZXJXKXKX| _ H W.D V 5 3 9.#.F k ",
"P F { H iXT Y x C j Y.4 [ NXPXKXKXGXzXt.7X7X0X7X=X=X6X6XkX=X8X6X6XdX-X2X-X6X%X-X6XkX0X8X8X7X>Xt.FXJXJXKXJXu +.4 W.1 L D [ , l V ",
"C &.#X[ v XX> ; 8.3 iXFXNXBXIXIXKXKXSX<.&X7X7X7X7X7XdX7X6X8X=X=X6X6X2XdXdXsXdXjXjX1X1X7X7X3X:Xr.GXKXKXKXKXq.iXQ G.3 L G {.$XQ [ ",
"o W., =.' ) @.8.DXJXNXnXbXBXIXIXPXPXGXzXa.>X7X7X0X7X7X6XdXkXhX7X8X8XdXkXkXkXdXkX0X0XgX8X9X3Xa.AXPXKXKXKXKXq.GXDXaXJ T Y #.O n Q.",
"+ 8._.;X_ SXGXFXHXJXFXAXAXNXKXIXPXPXHXGXr.f.>X0XkX7X6X6X6X6XdXdXsXdX8XfXkXdX8XdX0XfXjX8X1X%XuXGXKXKXLXKXIXBXnXNXAXFXDXZX~.H 6.P.",
"z V iXKXHXNXBXHXAXFXbXbXvXbXLXLXIXPXPXKXAXa.h.7X6X7X0X7X6XfXkXdXjXkXkXdXkXsXjX7X0XdX0XdXB.a.FXKXLXLXKXLXJXBXDXFXnXnXHXFXNXVX;XI ",
"ZXGXBXDXGXHXGXmXbXnXNXGXFXe BXKXIXIXKXIXHXSXa.a.=X7X6XkXdX8X0XkXdXdXfXkXkXkXjXdXfXfX1X%Xa.AXKXLXLXIXKXIXNX-.bXGXFXDXvXbXNXFXGXNX",
"DXFXGXJXnXbXbXNXFXJXHXGXFXr BXKXIXIXHXIXPXPXzX%Xa.%X=X7X8X0XdXdXdXkXfXjXdXkX9X8X0X7Xn.d.AXKXPXPXKXKXKXKXnXq nXnXnXmXFXGXFXNXnXNX",
"FXbXNXmXHXGXJXGXHXGXFXGXFX-.-.nXIXIXIXIXIXIXPXSXh.a.%X=X8X1XfXfXfXfXkXdX8XdXdX7X1Xh.r.AXKXLXLXKXKXKXJXDXbXq FXFXFXnXnXnXnXDXGXGX"
};
