/* XPM */
static char *Y29pbitiZA__[] = {
/* columns rows colors chars-per-pixel */
"64 64 254 2 ",
"   c #000D00",
".  c #001400",
"X  c #001C00",
"o  c #081804",
"O  c #021D16",
"+  c #002400",
"@  c #0A2703",
"#  c #012C00",
"$  c #132A01",
"%  c #033400",
"&  c #0B3301",
"*  c #033B00",
"=  c #0B3A00",
"-  c #143703",
";  c #133C01",
":  c #1B3D02",
">  c #093218",
",  c #163A17",
"<  c #28370F",
"1  c #163527",
"2  c #203E26",
"3  c #044500",
"4  c #0D4200",
"5  c #0B4B00",
"6  c #144401",
"7  c #1B4402",
"8  c #144B00",
"9  c #1B4C00",
"0  c #1A470C",
"q  c #075500",
"w  c #1C5401",
"e  c #1B5604",
"r  c #194717",
"t  c #175414",
"y  c #224C01",
"u  c #264708",
"i  c #344B08",
"p  c #245302",
"a  c #2C5403",
"s  c #245B01",
"d  c #2B5C02",
"f  c #27550C",
"g  c #2B5C0B",
"h  c #355A05",
"j  c #274A15",
"k  c #364E16",
"l  c #2B5513",
"z  c #285617",
"x  c #2B5C13",
"c  c #375A18",
"v  c #345B1A",
"b  c #186905",
"n  c #296803",
"m  c #2C620C",
"M  c #366707",
"N  c #336C01",
"B  c #3A650B",
"V  c #2B7505",
"C  c #387604",
"Z  c #2C6617",
"A  c #356313",
"S  c #336B13",
"D  c #3C6B13",
"F  c #39661B",
"G  c #3B7517",
"H  c #194D2D",
"J  c #2C4C2E",
"K  c #2B5823",
"L  c #365B28",
"P  c #365736",
"I  c #396725",
"U  c #3C6B24",
"Y  c #3B642B",
"T  c #366D2F",
"R  c #3B7426",
"E  c #396636",
"W  c #465213",
"Q  c #466707",
"!  c #457706",
"~  c #57710B",
"^  c #466A19",
"/  c #467718",
"(  c #537A19",
")  c #425C28",
"_  c #715720",
"`  c #436D24",
"'  c #436C2B",
"]  c #486928",
"[  c #556A24",
"{  c #447323",
"}  c #487828",
"|  c #4C7C2C",
" . c #557A28",
".. c #456936",
"X. c #556936",
"o. c #4B7434",
"O. c #4A7737",
"+. c #557836",
"@. c #6D7734",
"#. c #3C6947",
"$. c #496F4A",
"%. c #557945",
"&. c #567B58",
"*. c #697B4A",
"=. c #5A6D60",
"-. c #9D6B1C",
";. c #B6661C",
":. c #986D2F",
">. c #AD6F2E",
",. c #DC5C19",
"<. c #FE5406",
"1. c #FE5A06",
"2. c #FE550A",
"3. c #FD5B0C",
"4. c #F54C10",
"5. c #FC5712",
"6. c #FD5D12",
"7. c #FD610D",
"8. c #E5631C",
"9. c #FD6314",
"0. c #FD631B",
"q. c #F86519",
"w. c #FD6A1C",
"e. c #D37532",
"r. c #FD6523",
"t. c #FD6C23",
"y. c #FD662A",
"u. c #F66829",
"i. c #FD6C2B",
"p. c #FA7429",
"a. c #FD722C",
"s. c #F76B34",
"d. c #FD6C33",
"f. c #FD6E3A",
"g. c #EA7431",
"h. c #FD7333",
"j. c #F97A35",
"k. c #FC733B",
"l. c #FC7C3B",
"z. c #907044",
"x. c #B47846",
"c. c #D5774A",
"v. c #FC7744",
"b. c #FC7C43",
"n. c #F27B4F",
"m. c #37840B",
"M. c #488605",
"N. c #538908",
"B. c #4A940E",
"V. c #539502",
"C. c #49861A",
"Z. c #558818",
"A. c #599516",
"S. c #6A9511",
"D. c #55A110",
"F. c #6AB00D",
"G. c #4B8528",
"H. c #558729",
"J. c #579528",
"K. c #4D8633",
"L. c #588738",
"P. c #5A9338",
"I. c #6F912F",
"U. c #659829",
"Y. c #658939",
"T. c #679838",
"R. c #69A537",
"E. c #73A932",
"W. c #5A8745",
"Q. c #518B49",
"!. c #5D9445",
"~. c #5B8B55",
"^. c #638A45",
"/. c #768A48",
"(. c #689647",
"). c #769647",
"_. c #678857",
"`. c #748A5B",
"'. c #6A9755",
"]. c #749958",
"[. c #6BA546",
"{. c #77A84A",
"}. c #76A757",
"|. c #74AF54",
" X c #5E8361",
".X c #779766",
"XX c #71946A",
"oX c #6DA465",
"OX c #7AAA67",
"+X c #889F30",
"@X c #B3842B",
"#X c #D0893E",
"$X c #FB823C",
"%X c #9DDD2B",
"&X c #8E8B4A",
"*X c #85A957",
"=X c #84B458",
"-X c #90B554",
";X c #ADA55A",
":X c #829B66",
">X c #8CAF6F",
",X c #87B767",
"<X c #96BA78",
"1X c #D28C50",
"2X c #FC8445",
"3X c #F88847",
"4X c #FC834C",
"5X c #FC8B4C",
"6X c #E78854",
"7X c #FA8A55",
"8X c #FD8C54",
"9X c #F79357",
"0X c #FD9255",
"qX c #FC935B",
"wX c #FD9A5D",
"eX c #DF8A60",
"rX c #FD9464",
"tX c #FD9C64",
"yX c #FA9768",
"uX c #FD966A",
"iX c #FC9C6B",
"pX c #FDA26B",
"aX c #FDA468",
"sX c #FDA977",
"dX c #FDB17E",
"fX c #93D153",
"gX c #A6C652",
"hX c #94C970",
"jX c #A5C974",
"kX c #ADEA68",
"lX c #779B91",
"zX c #8D9A8A",
"xX c #B99A89",
"cX c #8EAF8A",
"vX c #96A589",
"bX c #A7B192",
"nX c #A6B39A",
"mX c #B4B4A4",
"MX c #BABDB5",
"NX c #D6A992",
"BX c #F1AE8D",
"VX c #FCB889",
"CX c #96C287",
"ZX c #B0D894",
"AX c #BEC1B8",
"SX c #B0E2A1",
"DX c #C2C4BB",
"FX c #D4C2BA",
"GX c #D8E6A5",
"HX c #BCEFCE",
"JX c #C6C7C3",
"KX c #CFCCCC",
"LX c #D0CCCC",
"PX c #DEFDC2",
/* pixels */
"/ M U.( 7 / y 7 # X ^.H.9 K.M 8 | OXn G J.|.% = N F 4 G.% JXKXKXKXKXKXKXP t F.8 ^ XXT q S N.^ Q i @ <XY.~ -XZX@.W @ ] +.i }.9 Y ",
"H.d H.M ,Xw Y.# 9 j l U.'.Y.G G 3 5 N J.P.R C.z g , 4 A.DXJXKXKXKXLXKXKXo.% F.}.] ..oXm.w U.: h *XY./.Q : -X*.  $ o i h M N.| +.",
"l x & %.E ~.[.r ` . j I.r ` P.6 # % G H.b t / 7 a > 0 V.DXKXKXLXLXLXKXKXE J.B.3 j =.t V  .i PXgXjXE.*X .%X-XS.ZX).>X>X[ ' ` m !.",
"D  . .g I 4 b H # , $. .&.& c <X+.` =XA o.O.].A 7 P L E.KXKXLXKXLXKXKXKX#.b m.K j =.% q ' *XY. .Z.! < Y.%X*X@.$ :X) < u Z.M.6 K.",
"7 =XfX}.XXZ.C I t * R cX&.# @ ] r K (.' n P.Y.C ! K.= L.LXJXLXKXKXKXKXKXb V W.W., cX6 z p w A m.D /.`.H.%X&XjX< W &XC H g y A Y.",
"h ; f K...@ = 6 L.>XK 7 f ; X.).J _.+.: a 0 G R.R.CX0 6 KXLXLXKXKXKXKXKXq m ] OXX >Xj p # T.s C H.Y.*.a S.>XfX-X$.- / M.} u D M ",
"h - @ 9 *X.XY p g $.X g D # .XH., oXY.. T.T K G 5 ' o./ KXKXKXLXKXKXKXAX~.G.u - 0 ZXU = } / m.S }.B L k h 9 hXV.F.Q D 9 -XgXA.C ",
"k I.z # U.d 0 a L.%.& g { _.].# E O.+._. .z r 6 = c L DXJXKXLXLXKXKXKXAXQ.} K .XW.'.ZXs / C.q : u C T   ~ P.oX# ( O j + h zXR.M.",
"X.Z.7 = C - ' k .XD p o.U D =XM #.OX9 . % XXK i ^ :X@ AX:XLXLXLXKXLXLXAXF ! K z ; L L.8 [.G.b X.W q %.i ~ hXQ i +X: ! *XfX~.|.V ",
"Q . u Y.@ 1 a X `.n 3 } oXZ.Z.Z.>Xx h k B z %.Q [ X.$ JX/.LXLXLXLXLXKXAXt n OXO.O.o.'.% R m b & N 4 % U.-XB $ I.U.d L Z.(.q T P.",
"~ $ W (   =.W.0 L.[.C.s C n Q A.!.8  .: =XL +.Z.I.8 t JXF AXLXLXKXDXAXC #.V Q...%.L.OXI R K 0 OXV Y._.n M.G.~ U.f V.C S.{.b cX8 ",
"=.X.! : o X.& D M | | N M.M A.M.F / ( +.Q # M N.J.Z t bXu AXFXLX&XAXAXe H OXK r % T t oXQ.K ' 3 V.X.< F.B.I.o.HXZ e Q nX] ( cXg ",
"CX: OX. g m n s K.c j !.P.q 5 fXC n |.C N.f }.B &Xc.7Xn.v.NXNXFXv.FXLX4Xn.6Xz.;X/.x o.H. .G.L.G.P.G.| K.h H.E.M W *.+ PX .a &.. ",
"jX+.cX_.j ^.Z.d { 0 o.U Z S 8 8 J.S S A.W _ c.v.b.l.f.v.v.v.v.n.v.BXNXk.f.v.v.b.6X&X~ P.g e s = P.* P.g ,X*X/ 7 ] +..XO.^ ^ _.# ",
"N = # & 0 + H.^.& j 7 = | G.S J.8 6 a :.1Xk.f.f.f.f.f.f.f.f.f.f.k.f.f.k.d.d.k.f.k.v.g.1X[ K !.w g g K.; +.+.B Y.u  .CXm.P.{ ].z ",
"T.{ % ..# ].+.` z v ' ; =Xm = 6 ' X.;.k.k.h.d.f.y.f.d.y.y.r.y.y.r.y.u.d.h.k.h.f.h.h.v.v.e._ # { |.x L.^.].- % {.y I.P.G C.{ ( 7 ",
"= u t K f { +.. I ^.o.].9 6 [.F x.g.k.f.d.d.d.i.d.r.r.y.y.y.u.y.d.d.d.i.t.i.d.d.h.k.h.k.k.g.g.d G S }.O.u u ` Y./ T.G.m.G.[.T.! ",
"I Z I I x s c # | 6 G g = p P.;.v.k.i.y.y.y.y.r.r.y.y.y.y.r.r.0.6.6.r.i.d.d.r.i.d.d.d.d.k.h.k.e.0 3 K.P.A +.| 7 h ^ n C.n G.Z.E.",
"Z } } F 8 A o.].L.L.G G (.*X@Xh.d.y.y.y.r.r.r.r.r.r.r.r.r.r.y.f.v.y.r.r.0.t.i.y.r.i.i.d.i.d.h.h.6X/ (.M {.H.p y  .L.s G C U.! {.",
"U.J.w g x w 7 X 8 K.m.5 | -.d.i.y.y.r.r.r.0.r.r.0.r.0.0.0.u.u.y.u.4.6.0.0.0.0.i.i.r.t.i.h.i.a.a.i.@X( S |./ (.A l 6 Z s E.gXU.U.",
"m R Z O.+ OX..].u %.  . :.d.y.y.r.y.r.r.r.r.r.0.0.0.6.4.5.c.>.xXNX,.4.u.0.0.r.w.t.r.t.t.p.p.p.a.i.a.>.N.C T ^ D T.s s n +.n +Xb ",
"E E P *X<X>X+.K , L $ &Xd.y.y.r.r.r.r.6.0.0.0.0.0.0.5.4.eXmXbXnXvX@.:.>.5.w.0.r.w.t.t.t.p.w.p.w.a.h.j.>.w 5 p H.G [.C.K.9 / F.m.",
"J %.).Y.{ Q.{ XX@ ..h g.y.r.0.r.r.r.0.r.6.r.0.6.0.9.4._ nXMXnXLXLXzXzX2 _ 6.w.w.t.t.t.t.7.w.p.w.t.a.a.g.Z ~.S 5 J.V G q m.[.S.e ",
"JXDXDXJXJXMXnX>XP %.-.i.r.r.r.r.r.6.0.0.r.6.0.0.6.2.-.H nXzXLXLXLXLXAXzXF #X0.w.w.w.t.w.$Xw.w.7.t.t.a.a.g.d U hX3 V 3 q G.U.W n ",
"DXDXMXMXzX .x nXB W c.r.y.r.0.r.6.0.6.0.9.q.6.9.6.2.:.# A LXLXLXLXLXLXMXg @Xq.7.7.w.w.w.w.w.w.$Xt.w.w.p.p.U.].: ^ / / / [.! .Xc ",
"LXLXKXLXLXLXKXAXbX*.c.r.r.6.0.6.0.9.r.6.6.6.6.6.9.,.z.!  .LXLXLXLXLXLXzX% -.7.7.7.w.7.7.w.7.w.7.9.w.w.w.a.1X  u / # ; (.gXg %.].",
"KXKXLXLXLXLXLXLXMXFXr.d.0.9.9.9.9.9.6.6.3.9.6.3.1.5.:.zXvX) LXLXLXLXI.y + -.7.7.7.w.7.7.7.7.7.7.7.7.7.7.a.e.~.l | | 6 K.=XE.,X>X",
"LXKXKXLXLXLXLXLXLXxXNX6.6.6.6.6.3.6.9.6.3.9.9.2.1.w.:.vXzXbXDXLXLX$.jX- u 8.7.7.7.w.7.7.7.7.7.7.7.7.7.7.w.,.L ~.% 8 5 s {.e $.@.",
"LXLXLXLXLXLXLXLXLXLXNX3.6.6.3.9.9.6.9.3.3.1.3.1.6.k.g.@.: bXMXMXbXzXJXZXg.5X$X9.7.w.7.7.9.7.7.7.7.7.q.7.w.g.+XQ.* C % U m.V.J.6 ",
"LXLXLXLXLXLXLXLXLX;.9.6.6.7.3.9.3.3.9.3.<.<.6.q.a.b.b.l.u.*X*X+.%.vXFXNXqXwXwX$X$X7.7.w.9.9.9.9.7.7.3.9.9.p.>.U.H.!.j e D.C.6 G ",
"LXLXLXLXLXJXmXLX^ e.5.1.3.3.3.<.1.1.1.3.<.<.2.q.l.7X8X4Xl.r.3.1.1.a.4X0XaXaXwX$X$X7.9.w.w.w.9.7.7.3.3.9.9.a.>.G.Z.'.%.6 M.P.} {.",
"$.XXMXLXLXLXKXLXJXNX5.1.1.3.1.2.<.<.<.6.1.<.u.2Xh.5X8X4Xl.0.1.1.1.a.3X9XaXwX3X$X0X$Xp.w.w.9.w.7.7.7.3.7.9.w.@XI R N.8 m U.! y % ",
"& W.v T Y L.. Y.$ xXNX<.<.2.<.<.<.<.<.6.6.a.qXiX3Xl.k.l.t.1.<.1.<.q.$X$X3X2X5XaXaX9X$Xw.w.w.7.7.9.7.7.7.9.w.-.K S M.R.'.C J.^ 6 ",
"- ^.z ; u L.cXcXE ;.<.<.<.<.<.<.<.<.<.5.w.4XiXsXiX8Xl.t.0.3.9.6.9.q.a.a.2XaXVXdXdXaX$Xp.w.p.w.w.w.7.9.7.q.u.>.P.A.J.OXU.n ' h L.",
"} ^.f p 6 } %.: H.;.2.<.<.<.2.<.<.<.<.5.i.h.rXVXVX7X7Xa.9.6.9.9.9.q.9.5X9XsXVXVXdX$X3XwX$Xp.w.w.9.9.9.w.6.p.@.S C m.X J.kXW.& Y.",
"/ p { ^.^ / ) _.M.;.2.<.<.<.<.<.<.<.3.h.rX4Xk.qXrX7X5Xr.3.<.1.<.1.3.0.$X0XwXdXdX$X3XaXwX5X$Xw.w.w.9.w.w.9.;.n O.+ fX5 e M G.+.F ",
"Q h u i o.i ] %.Y :.u.2.<.<.<.2.<.<.u.7XuXBX7Xb.k.2X2X0.1.3.<.1.1.1.7.j.5X5X$X3XwXaXsXaX0X2Xj.q.w.w.w.w.w.e.5 S t e x 8 / = K N.",
"( Y. .' A { (.9 (.&X8.<.<.<.4.<.2.r.b.7XuXsXVXiX2Xh.a.0.3.3.3.1.3.7.q.a.a.$X5XaXdXdXaXaX0X0X2Xh.t.t.t.w.w.#XH.6 8 x '.T.S U 4 M.",
"I !.hX|.P.S G J.S P.e.<.<.5.5.5.r.k.7XqXuXBXVXiX8Xb.i.0.9.6.3.6.9.q.w.t.$X5XwXaXdXsXaXaXwX5X3X2Xj.p.t.t.p.c Y.L.W.v | D g ,XJ.3 ",
"0 T * A.C.Z e } H.{ &X1.<.<.5.5.k.b.n.rXsXVXVXrX8X2Xa.3.6.3.3.1.2.1.7.9.$X9XwXsXpXpXaXwX9X9X0X5X2Xa.t.t.3XG.# ].o.7 { g I U T.P.",
"E X D s / 6 6 % ^.` `.u.5.<.5.i.2X7X7Xn.uXVXBXrX8Xb.t.6.3.<.<.1.<.1.6.6.a.0XtXiXaXaXaX9X9XwXqX0X2Xj.p.p./.o.a ].$ X (.(.+.X w ~.",
"{ 9 jXJ.m % L v L X.XXz.5.4.0.b.4X7XuX7XuXsXrXqX5Xh.6.<.2.1.<.2.1.1.3.6.t.8XaXaXtXiXaXqXtXtXqX0X2X$Xj.6X:X$ +.^.] y H.^ A O.% $.",
"T.n J.4 x 4 K : u u j j e.6.s.b.7X7XrXuXiXrXqX7X5Xy.3.<.<.<.1.1.<.1.3.9.w.$XwXtXaXrXiXiXiXwXqX8X2X$X3X@.^.# }.6 6 p {.-X` ' A >X",
"Z.R.X t T * E K I ]...I W l.d.b.7XrXrXuXsXuX5XqX2Xr.5.2.1.<.<.2.<.<.3.6.0.j.5XqX9XpXpXpXtXqXqX8X2X5Xx.Y.'.r (.R '.| H.T.(.>X).> ",
"m $...a F } B 1 H : + / Z.&Xl.v.n.rXuXiXiXiXqXrXh.6.6.2.3.2.<.<.1.3.6.6.6.r.$XtXyXaXtXtXtXqX7X3X5X#X} Z }.8  XN + o.C V.% V.T...",
"3 Y { ` 0 | Z.r $ L.X F Q  Xx.v.v.rXuXuXuXuXrX8Xh.6.2.<.2.2.<.2.2.<.3.2.3.6.l.wXaX9XqXqXwXqX4X8XeX/.0 n C x #.8 #.oXR 8 , n M o.",
"R./ 9 O.X f C 6 Y o._.: L lX  x.8X5XiXrXqX7XtX8Xr.5.2.2.<.<.<.2.2.<.2.2.6.0.i.2X8X0X0X0X0XqX5XeX@.! C.` % / R D O./ F C.L.# B.G ",
"B C N.~.1 | fXm v v L k %.$.o $ x.4X7X4Xn.5X4Xk.5.5.2.2.<.<.<.<.2.2.<.2.2.6.0.d.l.2X5X3X5X9XeXk ^ c H.Q p ..} L.w C v Z.Y.L.C.e ",
"j 6 C Y P H.| !.O.z k & u (.`.)   x.eXn.n.b.v.5.2.2.2.<.<.<.<.<.2.<.<.2.6.6.0.r.h.l.4X0X9Xx.XX . .+.^ h U j SXcX* C J +.l r { o.",
"L ' Z.& J |.K e j ..} l I d `.XXu <X&X>.b.b.i.4.6.2.<.2.<.<.<.<.2.<.2.1.5.6.6.6.i.2X0XeX&XH.{.O.< I.i L %.s (.$.Z V.r ( | K h ..",
"H.P ' o.Y 9 K T.j ..a z ; G.O.O.%.+ ^.).&X1Xk.u.0.2.<.2.3.3.3.1.6.3.5.3.3.6.r.u.b.6X&XX.7 P.t H.u %.X h J.v G.4 8 N.G C N S h 7 ",
"- r Y Y.'  .l A.).z  .0 &.K.T %.'.+ ' a c &XE.z.v.r.u.i.0.9.9.9.6.0.i.d.i.d.v.c.bX< `.z = B C.U & L j j R e . U O.n * n q '.! ^ ",
"C N cX=.v XXE 0 = r L 6 S ..L.+ v x E X 7 . C R.5 e @.c.l.g.u.s.s.s.f.g.c.[ j L ].$ :Xo.5 b R 6 X k i F !.% 7 ]./ r p j ; ,Xp r ",
"e hXB @ > H.#.= l #.$.` 9 , | % %.o.S { 7 `.M.M.jXK.S G.F x $ - ( ! I 0 { = g ].k X...# } n t ; ' i . <X' = y a I ; O.^ c jXG 6 ",
"C.5 # ' d [.L U x L $.F c %.8 = c j C s . h % z T G N Z./ ; - jX! Q h % w J.B - ) %.< v t w % +.'.}.o.CXi /.: B & M $.y k ^ } ~.",
"V m.6 I C % F 4 {.{ g Q M L.x a v % U.8 f a p / C.C.N H.# P *.I.<XA H.(.}.J.T.d } _.%.K '.' ^.7 8 + GXF W i c Y.j d & - ^.[ g 6 ",
"S f / F cXG Z f f 6 L.6 F <X|.%.o.7 O.Z S +.&.%.4 * ! A.h B $ Q W L h A CX8 C D g +.%.+ ].L F { x |.F c i W ' 6 T.@ M j ^ - 7 d ",
"n } ,XW t oX# + &.= %.cX X: }.XX@ F r z m j s / hXZ.{.| ' @ $ jXj P y f H L.M s R ' o.T ..o.% L.f '.9 y +.i ^.I Z.= N v *X.XL D ",
". Y.$ ^.! R o.J > I }.P , F ^ *.  o.O.Z } k m P.G e R.C fXc ] S.: 1 U.& J 9 D A w f e U U T S P.6 y ' = >X+.>XOX4 s ! D  .X , R.",
". =.Y.;Xa ! n w = ! ! a - N.m h ' , P.w K ` M.J.J.e R.[.D ^.^ = ] X ! B P ^ 7 g ' F 4 6 6 % K.Z g Y.7 W.R R % T.'.m.S e O.^ P Y.",
"9 g L.L.x g L f 3 L.$ j 6 n t # + r ..6 D ,XC.C 8 f ; K %.- | {  .-X*XG.!.A n } A v ; U # ` j f g m G G w !.L 7 E.Z.H.] ..u F.C ",
"| x } X z W.$ 8 q g ) ) & n ' . + ; _.% F x Z.R.8 { ..' 0 ] | h [ ( 9 G A ` Y.9 | t 8 P.m.m.0 + z U t !.%   9 x - =Xh H.= &.<XSX",
"W.v '.; r K.W.m g 4 v $ g m j K + 7 j + u XX8 / M # l +.& ^ 7 u W { K.(.| $ F R 8 * G.q V b + # T 0 3 oXO...C.# . E 4 G.. E j . ",
"7 I !.x Z 5 F >X| 9 v : hX% + CXU ^.| ].L r N e / A ^ o.@ u W.c /.u f } F l R * !.V P.V m.m.K t I # j Y j %.G Z 0 ~.% 8 !.Q.u v "
};
