/* XPM */
static char *Y29pbmJn[] = {
/* columns rows colors chars-per-pixel */
"64 64 253 2 ",
"   c #000D00",
".  c #0C0C0A",
"X  c #001400",
"o  c #001C00",
"O  c #081804",
"+  c #071E16",
"@  c #012400",
"#  c #0A2704",
"$  c #012C00",
"%  c #142B01",
"&  c #033400",
"*  c #0B3301",
"=  c #033C00",
"-  c #0B3A00",
";  c #133704",
":  c #133D01",
">  c #1B3D01",
",  c #093218",
"<  c #163A17",
"1  c #27370E",
"2  c #153428",
"3  c #203E26",
"4  c #0D4200",
"5  c #094900",
"6  c #134401",
"7  c #1B4302",
"8  c #144B00",
"9  c #1B4C00",
"0  c #1A470C",
"q  c #1C5401",
"w  c #1B5604",
"e  c #10550B",
"r  c #194716",
"t  c #224C01",
"y  c #264808",
"u  c #354C0F",
"i  c #245302",
"p  c #2C5403",
"a  c #235B01",
"s  c #2B5C02",
"d  c #27550C",
"f  c #2C5C0B",
"g  c #355905",
"h  c #254C12",
"j  c #284917",
"k  c #2B5513",
"l  c #285617",
"z  c #2B5C14",
"x  c #365A18",
"c  c #345B1A",
"v  c #186A05",
"b  c #296703",
"n  c #2C620C",
"m  c #336C01",
"M  c #376608",
"N  c #2A7505",
"B  c #387604",
"V  c #2C6616",
"C  c #366313",
"Z  c #336B12",
"A  c #3C6C13",
"S  c #34641C",
"D  c #3A671A",
"F  c #3B7517",
"G  c #194D2D",
"H  c #2B4D2E",
"J  c #2B5823",
"K  c #365B28",
"L  c #355836",
"P  c #2E6325",
"I  c #396627",
"U  c #3C6B24",
"Y  c #3B7426",
"T  c #386635",
"R  c #3B7334",
"E  c #465314",
"W  c #6B5519",
"Q  c #466608",
"!  c #447706",
"~  c #57710B",
"^  c #46691A",
"/  c #477718",
"(  c #537B19",
")  c #425C28",
"_  c #53592E",
"`  c #436E25",
"'  c #436C2B",
"]  c #486929",
"[  c #556A24",
"{  c #447323",
"}  c #487829",
"|  c #547A28",
" . c #466935",
".. c #556936",
"X. c #497737",
"o. c #557836",
"O. c #697237",
"+. c #3C6947",
"@. c #486D4F",
"#. c #4D7645",
"$. c #557945",
"%. c #567B58",
"&. c #667D4B",
"*. c #5A6D60",
"=. c #A5541C",
"-. c #9D6B1C",
";. c #B7651A",
":. c #996F31",
">. c #AD6C2C",
",. c #D05D1A",
"<. c #FE5406",
"1. c #FE5A06",
"2. c #FE550A",
"3. c #FD5B0C",
"4. c #EE4E16",
"5. c #FC5712",
"6. c #FD5D12",
"7. c #FD610D",
"8. c #E5631C",
"9. c #FD6314",
"0. c #F86519",
"q. c #FD641B",
"w. c #FD6A1C",
"e. c #F55B26",
"r. c #D47530",
"t. c #FD6523",
"y. c #FD6C23",
"u. c #FD662A",
"i. c #F66928",
"p. c #FD6C2B",
"a. c #FA7428",
"s. c #FD722C",
"d. c #F86C33",
"f. c #FD6D33",
"g. c #FD6E3A",
"h. c #E97230",
"j. c #FD7333",
"k. c #F87936",
"l. c #FC733B",
"z. c #FC7C3B",
"x. c #8F7344",
"c. c #B47846",
"v. c #D37A4B",
"b. c #FC7C43",
"n. c #FB7846",
"m. c #F47A4E",
"M. c #36840C",
"N. c #478506",
"B. c #538908",
"V. c #539402",
"C. c #498719",
"Z. c #558818",
"A. c #509311",
"S. c #65920F",
"D. c #56A213",
"F. c #6AB00D",
"G. c #4B8528",
"H. c #568729",
"J. c #589428",
"K. c #4E8533",
"L. c #588738",
"P. c #5A9338",
"I. c #6E912E",
"U. c #669929",
"Y. c #658939",
"T. c #679838",
"R. c #6AA536",
"E. c #71A830",
"W. c #598745",
"Q. c #528948",
"!. c #5D9445",
"~. c #5A8953",
"^. c #5E8D5B",
"/. c #648946",
"(. c #758A4F",
"). c #679547",
"_. c #789847",
"`. c #678957",
"'. c #6B9756",
"]. c #749A57",
"[. c #6AA446",
"{. c #78A84B",
"}. c #76A757",
"|. c #74AF54",
" X c #779765",
".X c #719469",
"XX c #6DA465",
"oX c #7AA867",
"OX c #B58529",
"+X c #86A63D",
"@X c #FB823C",
"#X c #9DDD2B",
"$X c #8E8B4A",
"%X c #AC9F56",
"&X c #86AB58",
"*X c #84B458",
"=X c #90B654",
"-X c #829B66",
";X c #87B767",
":X c #8FB370",
">X c #D18C50",
",X c #E8834E",
"<X c #FC8445",
"1X c #F88847",
"2X c #FC834C",
"3X c #FC8B4C",
"4X c #E88958",
"5X c #FA8955",
"6X c #FD8C54",
"7X c #F79357",
"8X c #FD9254",
"9X c #FC935B",
"0X c #FD9A5D",
"qX c #DF8A60",
"wX c #FD9464",
"eX c #FD9C64",
"rX c #FA9768",
"tX c #FD966A",
"yX c #FC9C6B",
"uX c #FDA26B",
"iX c #FDA468",
"pX c #FDA977",
"aX c #FDB17E",
"sX c #93D153",
"dX c #AAD256",
"fX c #94CA73",
"gX c #A6CB76",
"hX c #779B91",
"jX c #8C9A88",
"kX c #AF9E89",
"lX c #8CAE86",
"zX c #AFB190",
"xX c #A9B59A",
"cX c #AFB9A3",
"vX c #BABCB5",
"bX c #D7AC92",
"nX c #F1AF8C",
"mX c #FCB889",
"MX c #DFB8A3",
"NX c #96C287",
"BX c #AED890",
"VX c #BDC1B6",
"CX c #B0E2A1",
"ZX c #C5C7BA",
"AX c #C3C4BC",
"SX c #D4C2B9",
"DX c #D8E6A5",
"FX c #BCEFCE",
"GX c #C8C8C3",
"HX c #CFCCCC",
"JX c #D3C8C3",
"KX c #D0CCCC",
"LX c #DEFDC2",
/* pixels */
"/ b I.Z.8 / t 7 @ @ /.H.9 K.m 8 X.|.N B H.|.* - m P 4 G.& w H.b F $ o L.& r F.9 ^ .XR e N B.[ Q p O gXO.~ =XBXO.E % ] [ u }.t I ",
"H.s H.M ;X9 Y.$ t h x H.'.Y.F F 4 5 N P.P.Y C.k p < 8 A.8 @ $ J.F 0 ; T.a $ F.{.]  .XXN q I.; g &XY._.Q y +X&.. % % u p m B.K.o.",
"d x * $.I ~.|.r ` o j I.j { L.8 $ & F H.V l / 8 p , h B.} L H X.V & H.I.& J.D.5 j *.e N G.p LXdXBXI.-X( #X=X( DX(.:X:X..{ Y d ).",
"A | } f I 4 v G @ < #.| %.; x :Xo.` *XC R X.).D 7 L K E.i X / C 4 8 U.p r v M.J j *.& e ' $XY.H.Z.! y L.#X&X| # -XE > t Z.! 8 K.",
"7 *XsX{.oX( m I r = Y lX%.$ # ] 2 l ).] m Q.Y.B ! K.- o.; . G U.X } M.5 v v /.W.< lX: z i q C M.B (.-X| #X$XgX1 E _.m G z t C Y.",
"g ; d K. .O - 6 Q.:XJ 6 0 6 ..'.L ~.L.> s w D R.R.fX0 6 ] X 8 V.8 Y N.l 5 N ' oX@ lXh i $ T.a B H.Y.&.i S.&XsX=X$.> / N.} y M M ",
"g 1 @ 9 |. XI i M #.@ p D @ -XH.< '.Y.  T.R P A 5 ' X./ H.e G.V.P.[.w w ^.G.y ; 0 BXU - G./ M.Z ].M K u g t fXV.+XQ C t =XdXZ.N.",
"u T.k $ U.s h p L.#.; f { /.].$ T X.L.`.| h r 6 ; K c H.J.'.C.D.v w M.a Q.{ K .XW.'.BXa / / 5 > y B R   ~ P.XX$ / O y X Q hXR.N.",
"_ Z.7 4 Q ; ] J  XA i } I A *XM +.XXt   & .XJ p ^ -X% m R.V = a A Y m = P N.J l : K W.8 [.G.N X.x 8 X.u Q fXQ y E.> ! &XsX~.|.N ",
"Q X y Y.* 2 p o '.s - } XXZ.Z.Z.:XC g x M l $.Q [ ..% *X( $ #.= A R J.Z.l a oXX.X.X.!.= Y z w & m 6 & U.=Xg 1 I.I.s K Z.).e P P.",
"( % E ~   *.W.7 W.{.C.a B b ! S.!.8 | > &XI o.( I.9 l BXi k oX@ L.$.8 B +.N Q.T Q.X.oXI R l w XXm Y.`.b V.| ~ U.d V.B S.E.w lXq ",
"*...! > O ..* A M } } N N.Z Z.N.S / ( o.Q $ M B.J.V e Y y _ x.c.x.$.S w G |.K j & R l XXQ.K ' 5 V...r F.V.Y.o.FXV w Q xX..G.lXf ",
"NX> oXX d f m i K.x h W.P.5 5 sXM.w *XB Z.k {.M $Xv.2Xm.n.n.n.n.b.z.n.2Xm.,Xx.%X(.g | L.| G.K.G.P.K.G.G.g H.E.M E $.o LX| p %.o ",
"gX| lX`.d /.G.b ` y X.U V Z 8 w U.Z Z A.Q W v.n.m.k.n.n.n.n.n.n.n.l.n.l.n.n.n.b.,X$X~ P.f w d 4 P.= P.z ;X&X/ 7 [ o. XX.{ Q `.$ ",
"M - $ - < $ | ).- h 0 - | G.Z J.8 - i :.v.l.g.g.g.g.f.g.g.g.g.g.g.g.g.l.f.j.l.g.l.n.h.>X[ G ).q f a o.6 o.o.M Y.y | fXY P.} (.k ",
"T.} $  .@ }.o.I x c ' 7 |.b & 8 [ ..>.l.l.f.g.g.u.g.f.u.u.e.u.u.t.u.u.s.f.l.f.g.l.f.n.n.r.W $ / |.z L./.].; $ {.i I.R.Y M.{ | 9 ",
"- 0 d P k { o.X I /.o.).9 8 {.I c.h.l.f.d.f.f.f.f.u.t.u.u.u.i.u.f.f.f.p.y.u.f.f.g.j.j.l.k.n.h.s F S }.o.7 y ` Y./ T.G.G.M.[.T.! ",
"I V P P f a c @ o.6 F f - i U.=.l.l.p.p.u.u.u.t.t.t.u.u.t.t.t.q.6.6.t.u.f.f.y.p.p.f.j.f.d.j.k.r.0 5 K.P.x L.o.9 p Q b M.b H.Z.R.",
"Z G.} S 9 C X.].P.K.F A ).&XOXl.d.p.u.u.t.t.t.t.t.t.q.t.t.t.t.g.u.u.t.t.q.y.u.u.t.p.p.f.p.d.f.j.,X( [.b {.H.d t o.L.b C.! I.! *X",
"U.Z.q z z q 7 o 8 K.M.4 } -.f.p.u.u.u.t.t.t.t.q.t.q.t.t.q.n.5.5.u.i.6.q.q.q.t.y.p.t.p.p.s.p.s.s.k.>.( n {./ ).C z 6 z w E.=XU.U.",
"w Y S X.@ ;X .].h $.  o :.f.u.u.t.t.t.e.q.q.t.t.q.6.t.e.e.4.>.zX=.4.4.4.q.q.y.t.y.t.y.y.a.a.a.s.a.s.;.V.B R ^ A T.a i n H.s +Xv ",
"0 4 & U.|.'.' J 1 K * $Xd.u.u.t.t.t.q.q.q.t.q.6.q.q.i.e.%XAXO.`.xXzXW >.e.9.q.y.y.y.y.y.w.a.a.y.s.s.k.:.8 e i P.).;X!.'. .).=XM.",
"o h J.! M W./ ~., K M h.u.t.6.t.t.t.t.q.q.t.q.6.q.9.<.kXxXK xXHXG.jX..3 W 6.w.w.w.y.y.y.w.w.a.w.y.s.j.k.z .XQ. .}.L.!.R oXR.&X} ",
"$.y * i A & 8 oX@ ] -.p.u.t.t.t.t.q.q.6.q.6.q.t.5.5.zX3  .JXHXHXKXKXvXjXD >X9.w.y.w.y.w.a.w.w.w.y.y.y.j.,X/. XZXVXAXAXHXHXZXHXo.",
"o.o.j ; > M z Y.M ^ ,.u.t.q.t.t.q.q.6.q.6.0.0.6.7.5.:.$ HXHXHXHXKXKXKXxXjXOX8.7.7.w.w.w.w.w.@Xw.y.w.y.a.a.zXZXvXVXVXVXAXHXY.GXVX",
"| ^ X 2 J / d g 9 W h.u.t.q.6.q.6.9.q.6.6.9.5.6.9.4.:.HXHXHXHXHXKXKXKXKXjX-.7.7.7.w.7.7.7.7.7.7.9.w.w.w.bXSXvXKXKXHXHXHXHXHXHXGX",
"Y.x  .H @ > | | # =.e.t.q.9.6.q.9.6.q.3.3.9.6.3.3.5.x.jXHXHXKXKXKXKXKXy o OX7.7.7.w.7.7.7.7.7.7.7.7.7.9.s.r.KXKXKXKXHXHXHXKXHXHX",
"I ` o...(...(  .+ =.q.6.6.9.3.6.7.6.9.6.3.7.0.2.3.nX:.L kXKXKXKXKXKXfXu 1 8.7.7.7.w.7.7.w.7.7.7.7.7.1.7.y.KXKXKXKXKXHXHXKXKXHXHX",
"G.A ).:X^ ) # L b ;.q.6.6.6.6.3.6.6.9.3.1.1.3.1.7.k.h.ZXjXxXjXKXvXAXxX{.h.1X@X9.w.w.7.9.w.7.7.7.7.7.9.7.j.,XHXKXKXKXKXKXKXKXKXKX",
"f a D t o.> X h d ;.9.6.6.7.3.6.7.3.9.3.<.<.3.9.d.b.b.@Xi.cXcXAXxX^ bXSXMX0X0X@X@X7.7.7.9.7.9.7.7.7.3.bXSXSXZXKXKXHXKXKXKXKXKXKX",
"U W.y h -X$.(.g D ,.q.3.3.3.3.1.1.<.1.3.<.<.3.i.z.5X6X2Xz.y.1.i.1.bXMX8XiXiX0X@X@X7.w.w.y.9.9.7.7.7.3.3.9.bXHXKXKXHXHXHXHXHXKXKX",
"j W.& I o.X.y C.j ;.6.1.1.3.1.1.2.<.<.9.2.<.i.b.j.1X6X2Xz.q.1.1.1.s.1X7XiX0X1X@X8X@Xw.w.w.9.w.9.7.7.3.7.9.w.OX#./.xXGXHXHXHXHXHX",
"* ~.J I I L.X | # ;.2.<.<.<.<.<.<.<.<.3.9.p.wXyX2Xk.z.z.y.3.<.1.1.0.@X<X1X@X8XiXiX0X@Xw.w.w.7.7.7.7.7.7.9.w.-.J n N.R.}.B J./. .",
"; ).l : y L.lXlXT ;.2.<.<.<.<.<.<.<.<.6.t.<XyXpXyX9Xj.p.9.3.6.6.9.0.a.s.<XiXmXaXaXiX@Xa.w.w.w.w.w.7.7.9.9.a.OXP.A.G.oXU.w X.g | ",
"^ ).d i 7 } $.> G.;.<.<.<.<.<.<.<.<.<.6.p.j.eXmXaX9X2Xj.9.9.6.9.9.9.q.1X8XpXmXmXpX@X1X0X@X@X7.w.0.9.w.9.9.i.O.F B M.o J.dXW.- Y.",
"/ i { ).A ^ ] `.N.>.4.<.<.<.<.<.<.<.2.l.wX1Xj.wXtX5X3Xt.2.1.1.1.1.3.0.@X8X0XaXaX1X1XiX0X8X@Xw.w.w.9.w.w.w.,.a X.$ sX5 w F } o.U ",
"Q g y u ] g ) $.) :.0.1.<.<.<.5.<.2.i.5XtXpX5Xm.k.<X<Xq.1.1.1.1.1.1.9.k.1X3X@X1X0XpXpX0X8X1Xk.0.w.w.w.w.w.r.5 Z e w n 6 / - k A.",
"( Y.| ` C } '.t ).$X8.2.<.2.2.2.2.e.2X5XtXnXmXyXb.j.s.q.6.3.2.3.3.9.0.y.k.@X1XiXaXaXiXiX0X3X<Xj.y.w.y.w.a.OXH.8 9 z '.T.Z Y 6 N.",
"U !.fX|.P.V F K.Z P.r.1.<.2.2.5.t.l.2XwXtXmXmXyX6X<Xp.q.9.6.6.3.9.9.w.y.@X1X0XpXpXpXiXiX0X3X1X<Xz.a.w.y.a.x Y.L.~.c | A f ;XH.5 ",
"r P 5 C.C.V a C.H.` $X2.2.2.5.5.j.b.m.wXtXmXmXwX6X<Xs.3.6.3.1.1.1.1.3.9.@X8XiXiXiXuXiX0X7X7X8X3X<Xs.y.y.3X| # ]...7 ` f U Y P.P.",
"R o B a F 6 6 $ Y.' `.i.5.2.5.u.<X5X5X5XtXnXpXtX6Xb.t.6.1.1.<.<.2.1.3.9.s.8XeXiXiXiXiX7X7X0X0X6X1X@Xa.a.(...p ].# @ ).).L.o q ~.",
"` 7 gXY.Z & K x K .. Xx.5.5.t.z.2X5XtX5XrXpXwXwX6Xj.6.1.2.1.<.1.2.1.3.6.y.8XeXiXeXyXuX9XeXeX9X8X1X@Xa.,X-X- o./.` t H.^ x X.& #.",
"T.a J.6 z 4 J 0 y h j h v.5.i.2X5X5XwXtXyXeX9X9X3Xp.2.2.2.<.1.<.1.1.3.6.w.z.0XeXiXrXyXyXeXwX9X6X<X@X,XO.W.$ }.: 7 i {.=X^ ' x oX",
"A.E.o e R & T l I '. .I E d.p.n.5XwXwXtXpXyX2X5X<Xt.2.2.1.2.2.2.2.1.3.6.q.k.3X9X7XuXyXuXyX9X8X6X<X1Xc.Y.'.j ).Y '.} H.T.).:X].< ",
"f @. .p S ^ M 3 3 y @ / C.c.l.b.m.wXtXyXtXyX9XwXj.6.5.2.2.2.2.2.2.2.6.5.6.t.@XeXeXiXeXeXeX9X6X1X1X>X} V |.8 ^.m @ } B V.& V.T.T ",
"4 P } ` 0 o.Z.r % W.o C b .Xc.n.n.wXtXtXtXtXwX6Xf.6.1.2.1.<.2.<.2.1.2.1.6.6.z.0XeX9X9X9X0X9X5X6X7X/.0 b B l +.0 +.XXY 8 < b M X.",
"R./ q X.@ d B 4 U X.`.> J hX  c.5X3XtXwX5X9XeX6Xt.5.2.2.2.2.<.<.2.<.2.2.6.q.y.<X8X6X8X8X8X7X3XqXO.! B.I & / X.A #.! I ( W.$ A.F ",
"M B N.~.2 o.sXn c c K k $.@.O % c.2X9Xm.2X2X3Xj.5.5.<.<.<.<.2.2.<.2.2.2.2.6.t.f.z.1X3X1X6X7XqXu [ C | ^ i T / L.q B c Z.J.L.A.8 ",
"h 6 ! K L G.} ).X.l u * y ). X)   c.4X5Xm.n.z.5.2.2.<.<.1.<.d.2.2.2.1.2.6.6.6.t.j.b.1X5X7Xc..X{ | o.^ Q ^ l CXlX= ! H X.h j {  .",
"I ' G.* H *XJ w j T } k P s `. Xj :X$X>.m.b.u.4.5.6.<.<.g.1.k.2.<.2.2.2.5.6.6.6.p.b.7X4X$XH.{.#.> I.p K $.a '.R z A.l / | J C T ",
"L.K ` } I 9 c T.d  .d c 0 G...X.$.@ /.(.$X>Xd.u.q.2.<.d.qX3.SX1.2.n.3.3.6.6.t.i.b.4X$XO.t L.l C.t $.  p J.J G.6 8 V.{ B m Z g t ",
"; < ] /.U o.k Z._.j | 0 %.K.R #.'.@ { p C $XE.x.n.u.i.4XJX9.SX9.9.m.p.f.f.d.n.v.zX1 `.l - A C.Y * ) j j U 9 o U X.b = b e '.! D ",
"m m lX*.K  XT 8 & 0 K 6 M  .K.o x z T o 0 . B R.8 8 O.JXJXk.HXk.SX4X4Xb.v.[ h K ].# -XX.5 v R 6 o u u x P.- 7 ]./ r i j : :Xq 0 ",
"q fXM # , H.@.& k @.@.U 8 < X.- W.X.Z { 7 (.N.N.gXK.Z AXAXHXHXHXVXVX/.; { - f ].x _  .$ } b 0 6 ' u O fX] - t p I : X.` g gXD 0 ",
"C.5 & ' s [.K U k K #.D x X.8 6 x j B a o g * l R / m GXHXHXHXHXHXHXo.& i J.n ; ] $.1 c w w & o.'.}. .NXu (.; M * M  .p c ^ } W.",
"N M.0 S B = D 4 |.{ f Q M Y.z i k $ R.8 y p a / C.M.m GXHXHXHXHXHXHX].).}.J.T.s ' `.$.K '.' /.7 8 @ DXS u E x Y.k p * - &.[ z 8 ",
"N d / D lXF S d d 6 L.6 D :X}.%...9 X.v F $.$.#.8 = VXGXHXKXHXKXHXHXo.S NX9 Z F f X.$.o .XP D ` z |.S x u E ] 7 Y.* M k ^ % 7 f ",
"z | ;XE w XX$ @ %.- $.lX`.> {..X$ ^ r l p j s / fXC.VXGXHXKXHXKXHXHX .z G H.M a F ' X.' ' X.= K.d '.9 7 O.y /.P Z.- m c {.-XK A ",
"X Y.% &.! R X.H # S oXL < x ^ /.   .R V X.k n P.Z w ZXGXHXKXHXKXHXHX_.- H 9 A C 9 z w I ' U Z !.8 t ` * ;XL.:XoX4 a ! A } o < R.",
"X *.T.%Xp B b y - / N.p : Z.n g  .r P.q J ` N.J.J.w ZXGXKXKXHXKXHXHXY.Q L / 7 f { S : 8 8 $ K.V f Y.7 L.R Y & T.'.M.V q o.` L Y.",
"9 n L.L.f f K w = L.% j 7 v h & @ 0  .6 C ;XC.B 9 d vXVXHXKXKXKXKXKX:XK.W.Q n } V S ; U $ D h d f V F F q !.K 7 E.Z.H.'  .y E.M.",
"o.f } o d Q.* 9 8 d  .) * b ' X @ ; `.* ^ z Z.R.9 Y vXGXKXKXKXKXHXKXX.A C ` P.9 } q 9 P.M.C.0 @ l U d !.& X 9 z ; &Xg H.; $.fXBX",
"W.c `.4 0 Q.W.n b 4 c % a n j J o 8 k o 0 XX8 / n $ vX.XKXKXHXJXKXHXK.).o.% S } e = G.e N v @ @ R 0 = XXX. .C.$ o T 4 G.X T 1 X ",
"8 D W.V V 8 S ;XX.9 c > fX& @ NX` /.X.].K r m i / C vX(.KXKXHXHXHXHXa } S d Y & !.V J.N M.M.J l P & 0 I j #.F V 0 ~.- 4 !.Q.y S "
};
