/* XPM */
static char *Y29pbmJhZw__[] = {
/* columns rows colors chars-per-pixel */
"64 64 255 2 ",
"   c #000D00",
".  c #001400",
"X  c #001C00",
"o  c #081804",
"O  c #071E16",
"+  c #012400",
"@  c #012C00",
"#  c #0A2804",
"$  c #142A01",
"%  c #033400",
"&  c #0B3301",
"*  c #033B00",
"=  c #0B3A00",
"-  c #143704",
";  c #133C01",
":  c #1B3D02",
">  c #093218",
",  c #163A17",
"<  c #27370E",
"1  c #163427",
"2  c #203E26",
"3  c #044500",
"4  c #0D4200",
"5  c #0B4B00",
"6  c #144301",
"7  c #1B4402",
"8  c #144B00",
"9  c #1B4C00",
"0  c #1A460C",
"q  c #075500",
"w  c #1C5401",
"e  c #1A5504",
"r  c #194716",
"t  c #1A5514",
"y  c #224C01",
"u  c #264708",
"i  c #344B08",
"p  c #245302",
"a  c #2C5403",
"s  c #235B01",
"d  c #2B5C02",
"f  c #27550C",
"g  c #2C5C0B",
"h  c #355905",
"j  c #254C12",
"k  c #284917",
"l  c #364E16",
"z  c #2B5513",
"x  c #285617",
"c  c #2B5C14",
"v  c #365A17",
"b  c #345B1A",
"n  c #186905",
"m  c #296803",
"M  c #2C620C",
"N  c #366707",
"B  c #336C01",
"V  c #3A650B",
"C  c #2B7505",
"Z  c #387604",
"A  c #2C6617",
"S  c #356313",
"D  c #336B13",
"F  c #3C6C13",
"G  c #34651C",
"H  c #3A671A",
"J  c #3B7517",
"K  c #194D2D",
"L  c #2C4C2E",
"P  c #2B5823",
"I  c #365B27",
"U  c #375836",
"Y  c #386625",
"T  c #3C6B24",
"R  c #3B642B",
"E  c #366D2F",
"W  c #3B7426",
"Q  c #386635",
"!  c #465314",
"~  c #6C5416",
"^  c #466707",
"/  c #457706",
"(  c #57710B",
")  c #466A1A",
"_  c #467818",
"`  c #547A18",
"'  c #425C28",
"]  c #436D24",
"[  c #436C2B",
"{  c #486928",
"}  c #556A24",
"|  c #447323",
" . c #497829",
".. c #557A28",
"X. c #466835",
"o. c #556936",
"O. c #4A7737",
"+. c #557836",
"@. c #6C7737",
"#. c #385843",
"$. c #3C6947",
"%. c #4A6F4C",
"&. c #557845",
"*. c #55665C",
"=. c #567B58",
"-. c #657C4A",
";. c #6A7C6D",
":. c #A65318",
">. c #9D6B1C",
",. c #B7651A",
"<. c #976C2F",
"1. c #AE6E2E",
"2. c #D85D1C",
"3. c #FE5406",
"4. c #FE5A06",
"5. c #FE550A",
"6. c #FD5B0C",
"7. c #F54C10",
"8. c #FC5712",
"9. c #FD5D12",
"0. c #FD610C",
"q. c #E5631C",
"w. c #FD6314",
"e. c #F86519",
"r. c #FD641B",
"t. c #FD6A1C",
"y. c #D47532",
"u. c #FD6523",
"i. c #FD6C22",
"p. c #FD662A",
"a. c #F66B28",
"s. c #FD6C2B",
"d. c #FA7429",
"f. c #FD722C",
"g. c #F76B34",
"h. c #FD6C33",
"j. c #FD6E3A",
"k. c #E97331",
"l. c #FD7233",
"z. c #F97A35",
"x. c #FC733B",
"c. c #FC7C3B",
"v. c #91734B",
"b. c #B47846",
"n. c #D17A4A",
"m. c #FC7C43",
"M. c #FB7844",
"N. c #F47B4F",
"B. c #36840C",
"V. c #488505",
"C. c #548909",
"Z. c #539502",
"A. c #4A871A",
"S. c #558818",
"D. c #509313",
"F. c #6A9511",
"G. c #52A113",
"H. c #6AB00D",
"J. c #4B8428",
"K. c #568729",
"L. c #579528",
"P. c #4D8633",
"I. c #588738",
"U. c #599338",
"Y. c #669728",
"T. c #6F912F",
"R. c #65893A",
"E. c #679938",
"W. c #69A537",
"Q. c #71A832",
"!. c #5A8745",
"~. c #558D4B",
"^. c #5D9445",
"/. c #5B8A54",
"(. c #648A46",
"). c #768A48",
"_. c #689647",
"`. c #789847",
"'. c #678957",
"]. c #748A5B",
"[. c #6A9756",
"{. c #749A57",
"}. c #6BA546",
"|. c #78A94A",
" X c #77A856",
".X c #74AF54",
"XX c #5E8361",
"oX c #7A9865",
"OX c #719369",
"+X c #6DA465",
"@X c #7AA967",
"#X c #A39332",
"$X c #D0893E",
"%X c #FB823C",
"&X c #9DDD2B",
"*X c #8D8B4B",
"=X c #86A956",
"-X c #8DB152",
";X c #84B458",
":X c #A9A258",
">X c #829B66",
",X c #89A968",
"<X c #87B767",
"1X c #8DB272",
"2X c #98BA7A",
"3X c #D38B50",
"4X c #FC8445",
"5X c #F88847",
"6X c #FC834C",
"7X c #FC8B4C",
"8X c #E78854",
"9X c #FA8A55",
"0X c #FD8C54",
"qX c #F79357",
"wX c #FD9255",
"eX c #FC935B",
"rX c #FD9A5D",
"tX c #DF8A60",
"yX c #FD9464",
"uX c #FD9C64",
"iX c #FA9768",
"pX c #FD966A",
"aX c #FC9C6B",
"sX c #FDA26B",
"dX c #FDA468",
"fX c #FDA977",
"gX c #FDB17E",
"hX c #93D153",
"jX c #A6C652",
"kX c #93CA72",
"lX c #A5C875",
"zX c #779B91",
"xX c #8C9A89",
"cX c #B39586",
"vX c #87A888",
"bX c #95A988",
"nX c #8DB888",
"mX c #AAB394",
"MX c #B1B5A4",
"NX c #BABCB5",
"BX c #DAAF97",
"VX c #F3AF8D",
"CX c #FCB889",
"ZX c #D3B9AE",
"AX c #98C386",
"SX c #AFD892",
"DX c #BDC4B3",
"FX c #B0E2A1",
"GX c #C8C4BB",
"HX c #D4C2BA",
"JX c #BCEFCE",
"KX c #C8C8C3",
"LX c #CFCCCC",
"PX c #D0CCCC",
"IX c #DEFDC2",
/* pixels */
"_ N Y.S.6 _ y 7 @ X (.K.9 ..D 8  .<Xm J J..X% = B Y 4 KXPXPXPXPXPXLXL &.% t H.7 ) OXE q D C.} ^ a # 2XR.( -XSX@.! $ ' +.i  X9 R ",
"K.d K.V <Xw R.@ 7 j l Y.[.U.J J 3 5 C L.U.W A.z a , NXGXPXPXPXPXLXLXX.E.s @ H.|.) U +XB.w Y.: h =XR.T.! u -X-.  $ $ i h ^ C.J.O.",
"z b & &.R /..Xr | . k E.r ] U.6 @ % J K.m t _ 7 g O DXKXLXPXLXPXLXLX{.Y.% L.G.3 k ;.t C J.a IXjXlXT.,X..&X-XF.SX).,X,X+.| T c _.",
"F `  .f Y 4 n K @ , %.` =.& v 2X+.] ;XS W %.|.G 8 #.DXKXLXPXPXPXLXPX=Xu r n B.P k *.% q [ *XR.K.F./ , T.&X=X@.$ >X' : u S.V.6 P.",
"7 ;XhX XoXS.B Y r % W nX=.@ # { K x _.{ m !.I.Z Z P.NXKXLXLXLXPXLXLXE.3 n C !.!., nX; x p e S B.J ).>X..&X*XlX< ! *XZ K g p S T.",
"h ; f P.X.o = 6 ~.1XP 6 j 6 o.`.L '.+.: d e J W.}.kXNXDXLXLXLXPXLXLXE.t q M R @X+ 1Xj f @ E.s Z K.R.-.p F.,XhX-Xo.- _ V. .< V B ",
"h - # 9 .XoXR p M %.+ a H + oXK., +XR.  E.[ P J 5 [ DXKXLXLXPXPXLXLX .t ~.P.u : 0 SXT =  ._ B.D  XN I l h 9 kXZ.H.^ V 9 jXjXA.V.",
"l T.x @ Y.d u g I.+.- g | (.{.@ Q O.+.'. .x r ; - v NXMXLXLXPXPXLXLXJ.e ~._ I OX&.[.SXs _ A.q 7 u D W   ( U.+X@ ..O j . h zX}.V.",
"o.S.7 = Z - [ l oXF p [ W F ,XZ $.@X9   % +XP i ! >XNX+.PXPXPXPXPXLXB * H / I x 0 Y I.8 }.J.C o.v 5 !.i ( kX^ u Q.: / -XhX/..XC ",
"^ . u R.& 1 a X [.d =  . XA.S.S.1XS d l h P -.^ ..o.NXlXPXPXPXPXPXLXU.D.t n +XO.O.X.^.% W M q & N 4 @ Y.-Xd < T.Y.d I S.^.q E U.",
"( $ ^ )   *.!.0 !.|.A.s J m ^ F.^.9 ..: -XI ..A.E.7 NXSXNXPXPXPXKXDX8 Z $.C &.X.&.I.@XE E x 8 @XZ R.'.m V...( Y.f Z.Z F.|.s vX9 ",
"*.o.( : o o.& F N  . .C V.C S.V.A ` ` o.) @ N C.L.A xXE NXKXPXb.KXGXS e K ;XP r * E j +X~.I [ 3 Z.o., H.Z.T.+.JXA e ^ mX{ J.vXh ",
"AX7 @X. c M m s P.b j ^.U.5 5 hXB.e .XZ C.l |.v *Xn.N.N.BXBXZXM.ZXPXM.6X9XN.v.:X).c ..K...J.I.J.U.J.J.P.h K.Q.N ! &.X IX..a =.o ",
"lX+.nX'.j (.S.d ] 0 O.T M C 8 e Y.D D G.! ! 8XM.c.c.M.M.M.M.N.M.BXBXM.x.j.M.M.6X8X*X} U.M e s = U.* ^.g <X=X_ 9 { +.oXP._ F '.+ ",
"N = # & - @ ..(.- j u = ..J.A L.6 4 a <.$Xx.j.j.h.M.h.j.j.j.j.j.j.j.j.x.h.h.x.j.x.M.k.3X} P ^.w g g O.6 +.+.V R.u ..AXJ U.| ].g ",
"E.| % Q @ {.I.] z b [ 6  Xm % 7 } o.1.x.x.l.j.j.p.h.h.p.p.u.p.u.p.u.p.h.x.x.h.j.l.h.M.M.y.~ @ | .Xg P.(.{.- @ |.a T.E.B.W _ ..9 ",
"= u t I j | O.. Y (. .{.9 8 }.G n.y.x.j.s.g.h.h.h.p.u.u.p.p.p.h.p.p.h.s.p.s.h.h.h.l.l.x.M.k.k.d J H  XO.7 u ] R._ E.J.B.J.}.Q.^ ",
"Y A G A A s b @ +.6 J g = p U.,.x.j.s.p.p.p.p.u.u.u.p.p.p.u.u.g.u.r.u.p.l.s.p.s.h.h.l.h.j.l.z.y.0 5 P.U.v I. .y a ) m J.m J.S.W.",
"D J. .Y 6 D o.{.U.P.J J _.=X#Xx.h.p.p.p.u.u.u.u.p.p.u.u.u.g.a.M.p.u.u.u.r.i.i.p.u.s.h.h.p.h.l.l.$X` _.m |.I.f y ..I.s B.Z Y./ |.",
"E.S.w g c w 7 + 8 J.J 8  .>.p.p.p.p.p.u.u.u.r.u.9.u.u.9.h.M.8.BX8.8.a.r.r.r.u.p.s.u.i.s.f.s.f.f.l.1.` D |._ _.S v 6 A w Q.jXY.Y.",
"e W Y P.+ <XX.{.u &.  . <.h.p.p.u.u.p.9.r.r.u.u.r.r.r.5.u.BX:.cX:.7.7.8.r.t.r.t.s.i.u.s.d.i.d.d.f.l.1.Z.Z E ) V E.m s M I.h -Xn ",
"8 = @ Y..X[.] P , I - *Xh.p.p.u.u.u.u.u.r.u.r.r.r.e.6.7.ZXMX! PXO.mXv.1.7.w.t.u.e.i.i.t.t.t.d.i.f.f.c.<.8 8 s K./ }.W P.8 _ F.B.",
"X z L./ N !.| /.> I h k.p.u.u.r.u.r.r.r.9.u.9.r.r.w.7.~ mXKXPXPXPXxXbXL ~ 6.t.t.t.i.i.i.t.%X%Xt.s.f.f.d.A /.A w L.C J q B.W.F.n ",
"&.u & p F & 8 @X@ { >.s.p.u.r.u.u.r.r.r.u.9.r.r.0.6.1.1 KXLXPXPXPXPXNX&.d $Xw.t.i.i.t.i.t.t.0.t.i.i.d.l.z.s T AXQ U.E X.[.=X+.m ",
"+.+.k - : F c R.V H 2.p.u.r.u.u.9.r.9.u.e.r.9.w.6.8.<.%  .PXPXPXPXPXLXF g #Xe.6.0.t.t.t.t.t.%X0.i.t.i.f.s.=X,XQ oXoXoX@XbXR.bX'.",
"..) . 1 l _ f d 9 ~ k.p.u.r.9.r.r.9.r.9.9.9.9.9.w.7.v.bX} PXPXPXPXPXKX6 % >.0.6.0.0.0.0.t.0.0.t.w.t.t.e.9XBX;.KXKXKXKXLXLXKXKX,X",
"R.v X.L X : K.} + :.p.9.r.w.w.w.w.w.9.9.6.w.9.6.0.0.>.xX&.xXPXPXPXQ K.y + >.0.0.0.t.0.0.0.0.0.0.0.0.w.w.s.GXKXKXLXLXLXLXLXKXKXLX",
"[ R +.o.[.o.` X.O :.u.9.9.9.9.9.9.9.w.9.6.0.e.6.6.t.<.KX, mXmXPXj MXDX6 < q.0.0.0.t.0.0.0.0.0.0.0.0.6.0.ZXHXLXLXLXLXLXLXLXLXLXGX",
"J.D _.<X! { # U m 1.9.9.w.9.6.w.9.w.w.6.6.6.6.3.0.z.k.@.: PXGXKX6 bXmX|.%X5X%X0.t.t.0.t.t.0.0.0.0.0.w.0.t.ZXLXLXLXPXLXLXLXLXLXPX",
"g s H y +.< . j e 2.w.9.w.6.6.9.6.4.w.6.3.3.6.w.s.m.m.c.a.=X=XoX} KXHX5XqXrXrX%X%X0.0.0.w.0.w.0.0.0.9.9.w.LXLXLXPXPXPXPXLXLXPXPX",
"T !.u z ,X&.).g H y.6.6.6.6.6.4.4.4.4.6.3.3.6.a.m.0X0X6Xx.t.6.4.0.d.5XwXdXfXrX%X%X0.w.t.t.t.t.0.0.6.6.0.4X9XPXPXPXPXPXPXPXPXPXPX",
"j !.% Y O.O.u _ k ,.6.3.5.6.4.3.3.3.3.9.3.3.a.c.l.5X0X6Xz.r.4.4.6.d.5XqXdXrX5X%XwX%Xi.t.t.w.e.0.0.0.6.HXHXHXPXPXPXPXPXPXPXPXPXPX",
"& !.P Y T &..  .# ,.5.3.3.5.3.3.3.3.3.6.9.f.eXpX5Xz.x.c.u.4.3.4.4.e.%X4X5X4X7XdXdXrX%X0.0.t.0.0.0.0.0.0.HXLXLXLXLXLXLXLXLXLXLXLX",
"- _.x = u I.nX2XQ ,.5.3.5.3.3.3.3.3.3.9.u.4XaXfXaXeXl.i.r.6.w.0.w.e.d.f.%XdXgXCXgXdX%X%X0.%Xt.t.t.0.w.0.e.d.GXLXLXLXLXLXLXLXLXLX",
"| _.f f 6  .&.- J.,.5.3.3.3.3.3.3.3.3.8.s.l.pXCXCX9X0Xl.w.w.w.w.w.e.w.5XwXfXCXCXfX%X%XrX%X%X0.t.w.w.t.t.w.q.@.J K.E.NXLXLXLXLXLX",
"_ y | R.) _ ' '.V.1.5.3.3.3.5.3.3.3.6.x.yX5Xz.yXpX9X7Xu.4.5.3.4.6.6.e.%XwXrXgXgX5X5XdXrX7X%Xt.t.t.t.t.w.e.2.s O.@ hX5 e N J...H ",
"^ h u i { h ' -.) 1.a.7.3.3.5.3.3.7.u.0XpXfX0Xm.x.4X4Xr.4.4.5.5.4.4.w.z.5X5X%X5XqXfXfXdXwX5Xz.t.t.e.e.e.t.y.5 D e t g 8 _ = P C.",
"` R...[ A  .[.y _.).q.3.5.5.3.7.5.u.6X9XpXVXCXsX4Xf.f.r.9.6.4.6.6.0.e.f.c.%X5XfXgXgXdXdXwX7X4Xl.i.t.i.t.t.$XK.6 6 x }.E.A | 4 V.",
"Y ^.kX.XU.D J J.D U.y.3.5.5.8.8.u.j.0XeXpXVXCXaX0X4Xs.r.e.6.9.6.w.w.e.t.%X7XrXdXgXfXdXdXrXqX5X4Xc.d.i.i.d.v E.I.!.I O.F g <XL.3 ",
"r E * D.A.A s  .L.) *X4.5.5.5.8.x.m.N.yXpXCXCXpX0X4Xs.6.6.6.6.4.4.4.0.w.%XwXrXfXsXsXuXrXqXwXwX7X4Xf.i.i.5XJ.+ {.O.7 | g T T E.U.",
"X.X F s _ 4 6 % R.[ [.u.8.7.8.p.4X9X9XN.pXVXfXpX0Xm.u.6.6.5.3.4.5.4.9.w.f.wXdXsXsXdXdX9XqXrXrX0X5X%Xd.d.).+.i [.# X `.E.+.X w /.",
"] 9 lXL.m & I b I o.OXv.8.5.u.m.6X0XpX9XpXfXuXyX7Xx.w.4.5.4.4.3.5.4.4.9.i.7XuXdXuXaXsXeXuXuXeXwX5X%Xd.8X>X& K.(.{ y .._ S O.% %.",
"E.m L.4 c 4 P , u j k k y.e.p.m.9X9XyXpXaXuXeXeX7Xp.6.5.4.3.4.3.5.4.6.9.u.%XrXuXuXiXdXaXuXyXeX0X4X%XqX@.!.+  X6 7 p |.<X] [ S 1X",
"D.W.. t E * Q x R {.R Y ! x.h.m.9XyXyXpXfXaX6X0X4Xu.5.5.5.3.5.5.3.5.6.9.r.z.7XeXqXsXsXsXaXeXwX0X4X5X1.-.[.k _.W [. .K.E._.1X{.# ",
"s %.O.f H _ D 2 2 u + _ S.v.x.m.N.yXpXpXpXsXeXyXl.9.8.5.6.5.5.3.5.4.9.9.9.u.%XuXaXdXuXuXuXeX9X5X5X3X .A  X8 XXB +  .Z Z.% Z.E.X.",
"4 Y [ T 0 +.S., - +.X G N OXb.m.M.yXpXpXpXpXpX9Xx.8.5.3.5.5.3.3.5.5.4.5.9.9.c.rXdXqXeXeXrXeX7X0XqX(.0 m Z c $.8 $.+XW 6 > B B O.",
"W._ y O.+ f Z 6 T O.'.: I zX  b.0X6XpXyX9XeXyX7Xu.8.8.5.3.3.3.5.5.3.5.5.6.r.p.4X0XwXwX0XwXeX7XtX@./ ` T @ _  .F &.J G A.I.+ D.J ",
"S / V./.1 ..hXM b b I z &.%.o $ b.5X9X9X6X6X6Xc.9.5.3.3.3.3.3.5.3.5.5.6.5.9.r.l.c.5X7X5X7XqXtXl ) v K.^ p Q J.I.9 Z b K.Y.R.A.q ",
"f 6 Z R U .. .^.&.j v & u _.].'   b.tXN.m.6Xc.8.5.5.3.3.3.3.3.3.5.3.5.5.9.9.r.p.l.c.7X7XqXb.oX[ ..o.} V ) x FXvX3 / L O.z L _ X.",
"I [ ` & I .XP e x Q | z I d ].OXu nX*X1.M.m.s.7.8.6.3.3.3.5.3.3.3.5.5.5.5.9.9.9.f.4X0XtX*XK.|.O.: T.a I &.s /.O.c D.k _  .P h X.",
"K.U [ ..R 9 x E.f X.f b 0 J.O.O.I.X (.).*X3Xg.p.r.8.3.5.4.6.6.4.6.6.6.6.8.w.a.a.m.8X*Xo.u K.t L.y &.. a U.c J.4 8 Z.J Z B J h 7 ",
"& r R (.T +.z Y._.l ..0 =.P.E &.[.+ [ a v *XQ.v.M.u.a.s.r.w.w.w.9.r.s.h.g.s.g.N.mX< '.P = F A.T & ' k k T e X T O.m * m 5 [./ H ",
"Z B vX;.l OXQ 9 % r I 6 m X.I.+ z v Q + 7 . Z W.5 e @.n.z.k.d.g.g.g.j.N.n.} j I ].$ >X[ 5 n W 6 X l l S ^.* 9 {._ r d k 6 <Xp r ",
"e kXV @ > K.$.% c %.%.] 0 ,  .& !.O.D | : ].V.V.lXP.D J.H b $ - ` / H ; | = z {.v o.X.#  .m t = T i . 1X{ & y a Y ; O.] z lXJ 0 ",
"A.5 @ [ d }.I T z I %.H D %.8 4 b k Z s X h % z W J Z S./ 6 $ lX^ ^ M % w L.S ; ' +.k z t w % +.[. XX.lXi R.: V & N X.y I )  .!.",
"C B.6 Y Z * H 4 |.W a ^ N R.c p z % E.8 f i p A.J.J B K.@ U -.T.jXv K._. XL.E.a  .'.&.I [.[ (.7 8 @ IXv l ! ! R.z d & - -.} g 6 ",
"C f _ Y nXJ A f f 6 I.6 H 2X.X&.o.6 O.A J +.&.%.4 * / F.h V $ ( I U d S AX8 Z F g O.&.+ [.I H T A .XH v i ! [ 7 R.& N z ) $ 6 a ",
"M ..,X! 0 +X@ @ =.= !.vXXX:  XOX# ) r t d k d _ kXA.|.J.[ # # jXu U y z K I.N s H  .O.[ X.O.% I.p [.9 7 @.u (.Y S.& B b =XoXY ) ",
". R.o R./ T O.L # H @XU - v F -.. O.E A O.z M U.J w W.Z kXN [ Y.: 2 Y.& L 9 H D 9 x e T E T J ^.6 y ] & <X+.1X@X4 s / D ..X , E.",
". *.).jXa Z M y = _ / a ; S.V h X.r U.w P ] V.L.L.e W.E.D (.) * R X / V U _ 7 f | G 4 6 6 % J.A g (.7 ^.E W % E.[.B.D e O.Y X.K.",
"9 M I.I.c g I e 3 P.- < 7 A t @ + r X.6 S <XA.Z 8 f ; x !.; ..) ..,X XK.!.V m  .A G - ] % [ j f g A D J w U.I 6 Q.S.K.{ O.u H.Z ",
"O.S  .. x !.& 9 e f X.' * m R . + - '.% ) c S.W.8  .[ X.u {  .v ` ` p F S { E.9 O.p 8 U.B.B.: + f W c ^.% . 9 b 7  Xh K.& =.2XFX",
"(.b [.4 0 P.(.A s = v & a M x b + 7 z X 0 OX8 _ N + z +.& v 7 u ! ) P._.O.$ G W q * P.q C n @ @ O.0 * +X&.Q A.@ X Q 4 J.. Q k . ",
"7 G ^.c A 8 G <X .0 I 7 kX% + nXT (. .{.Y r B w _ S T +.# u (.v ).u s  .H z W % ^.A L.C B.B.P t P @ 0 R u %._ A 0 /.= 5 ^.~.< b "
};
