/* XPM */
static char *e307b3d3278548ba842fa27329575be1uEf6lZZBQqCDTPFz[] = {
/* columns rows colors chars-per-pixel */
"64 64 256 2 ",
"   c #000D00",
".  c #0C0C0A",
"X  c #001400",
"o  c #001C00",
"O  c #081804",
"+  c #071E16",
"@  c #002400",
"#  c #092603",
"$  c #012C00",
"%  c #142B01",
"&  c #033400",
"*  c #0B3301",
"=  c #023C00",
"-  c #0B3A00",
";  c #173A03",
":  c #133D01",
">  c #093219",
",  c #163A17",
"<  c #28360D",
"1  c #153429",
"2  c #203E26",
"3  c #044500",
"4  c #0D4200",
"5  c #0B4B00",
"6  c #144401",
"7  c #1B4402",
"8  c #144B00",
"9  c #1B4C00",
"0  c #1A470C",
"q  c #075500",
"w  c #1B5401",
"e  c #1A5604",
"r  c #194716",
"t  c #185514",
"y  c #224C01",
"u  c #264808",
"i  c #344B08",
"p  c #245302",
"a  c #2C5403",
"s  c #235C01",
"d  c #2B5C02",
"f  c #27550C",
"g  c #2C5C0A",
"h  c #345905",
"j  c #274A15",
"k  c #364E16",
"l  c #2B5513",
"z  c #285617",
"x  c #2B5C14",
"c  c #365A18",
"v  c #345B1B",
"b  c #186905",
"n  c #296803",
"m  c #2C620C",
"M  c #376707",
"N  c #336C01",
"B  c #2B7505",
"V  c #387604",
"C  c #2C6717",
"Z  c #356313",
"A  c #336B12",
"S  c #3C6C14",
"D  c #34641C",
"F  c #3A681B",
"G  c #3B7517",
"H  c #194D2D",
"J  c #274B22",
"K  c #2B5823",
"L  c #365B28",
"P  c #2D4E35",
"I  c #375835",
"U  c #396627",
"Y  c #3C6B24",
"T  c #366D2F",
"R  c #3B7426",
"E  c #386635",
"W  c #465213",
"Q  c #6E5319",
"!  c #466608",
"~  c #447706",
"^  c #57710B",
"/  c #466919",
"(  c #467718",
")  c #537B18",
"_  c #425C28",
"`  c #53592E",
"'  c #436D25",
"]  c #446C2B",
"[  c #496929",
"{  c #556A24",
"}  c #447323",
"|  c #487828",
" . c #4B7C2C",
".. c #547A28",
"X. c #456835",
"o. c #556936",
"O. c #4B7334",
"+. c #497737",
"@. c #557837",
"#. c #6C7436",
"$. c #385843",
"%. c #3C6947",
"&. c #496C4D",
"*. c #4C7647",
"=. c #577747",
"-. c #547B44",
";. c #567B58",
":. c #667D4B",
">. c #5A6D60",
",. c #F83A02",
"<. c #9D5D1C",
"1. c #B7651A",
"2. c #976C2F",
"3. c #AE6D2C",
"4. c #FE5406",
"5. c #FE5A06",
"6. c #FE550A",
"7. c #FD5B0C",
"8. c #F54F10",
"9. c #E15F1E",
"0. c #FC5712",
"q. c #FD5D12",
"w. c #FD610D",
"e. c #E5631C",
"r. c #FD6314",
"t. c #F86519",
"y. c #FD641B",
"u. c #FD6A1C",
"i. c #D57330",
"p. c #FD6523",
"a. c #FD6C23",
"s. c #FD662A",
"d. c #F66929",
"f. c #FD6C2B",
"g. c #FA7429",
"h. c #FD722C",
"j. c #F86933",
"k. c #FD6C33",
"l. c #FD6E3A",
"z. c #E97230",
"x. c #FD7233",
"c. c #F97936",
"v. c #FC733B",
"b. c #FC7C3B",
"n. c #8F7344",
"m. c #B47846",
"M. c #D17A4A",
"N. c #FC7745",
"B. c #FC7C43",
"V. c #F57D52",
"C. c #37840B",
"Z. c #488606",
"A. c #538908",
"S. c #4A930C",
"D. c #539402",
"F. c #49861A",
"G. c #558818",
"H. c #599517",
"J. c #699311",
"K. c #55A20A",
"L. c #6AB00D",
"P. c #4B8528",
"I. c #568829",
"U. c #579529",
"Y. c #4D8633",
"T. c #588738",
"R. c #5A9338",
"E. c #6E912E",
"W. c #669929",
"Q. c #64883A",
"!. c #679938",
"~. c #5FA022",
"^. c #6AA538",
"/. c #73A932",
"(. c #598745",
"). c #518848",
"_. c #5D9445",
"`. c #5B8A54",
"'. c #5E8D5B",
"]. c #638946",
"[. c #689647",
"{. c #769049",
"}. c #678856",
"|. c #6A9756",
" X c #759958",
".X c #6BA546",
"XX c #77A84A",
"oX c #75A757",
"OX c #74AF54",
"+X c #779765",
"@X c #73956B",
"#X c #6DA565",
"$X c #7BA967",
"%X c #889F30",
"&X c #B3842B",
"*X c #D0893E",
"=X c #FB823C",
"-X c #9DDD2B",
";X c #8E8B4A",
":X c #86AB57",
">X c #84B458",
",X c #90B654",
"<X c #A9A258",
"1X c #829B66",
"2X c #89A967",
"3X c #87B767",
"4X c #90B575",
"5X c #D28C50",
"6X c #FC8445",
"7X c #F88847",
"8X c #FC834C",
"9X c #FC8B4C",
"0X c #E88856",
"qX c #FA8A55",
"wX c #FD8C54",
"eX c #F79357",
"rX c #FD9255",
"tX c #FC935B",
"yX c #FD9A5D",
"uX c #DF8A60",
"iX c #F79667",
"pX c #FD9464",
"aX c #FD9C64",
"sX c #FD966B",
"dX c #FC9C6B",
"fX c #FDA26B",
"gX c #FDA468",
"hX c #FDA977",
"jX c #FDB17E",
"kX c #93D153",
"lX c #AAD256",
"zX c #94CA72",
"xX c #A6CB76",
"cX c #779B91",
"vX c #8B978B",
"bX c #8DAF89",
"nX c #99A889",
"mX c #AEAF94",
"MX c #B8BDB3",
"NX c #D4A892",
"BX c #FDB187",
"VX c #FCB889",
"CX c #96C287",
"ZX c #AED890",
"AX c #BBC9A3",
"SX c #BEC1B8",
"DX c #B0E2A1",
"FX c #C3C5BC",
"GX c #D4C4BE",
"HX c #D8E6A6",
"JX c #BCEFCE",
"KX c #C6C7C2",
"LX c #CFCCCC",
"PX c #D2C8C4",
"IX c #D0CCCC",
"UX c #DEFDC2",
/* pixels */
"( N !.) 8 ( y 7 @ o ].I.7 I.m 8  .$Xn G U.OX& - N U 3 P.= w I.n G & @ Q.& t L.9 / @XT q A A./ ! i # 4XQ.^ ,XZX#.W % { o.f oX9 U ",
"I.d I.M >X9 !.@ 9 j l E.|.Q.G G 3 5 B U.R.R G.f a , 4 H.6 $ $ I.G 0 * !.e $ L.XX{ X.#XB w /.; h :XQ.{.! i ,X:.  % # i h M A. .@.",
"l x * -.E `.OXr ' o j !.r } R.6 & & G I.n t ( 7 g # u D.| I P +.C & I.E.= R.S.3 j >.t B | a UXlXxXE.2X) -X%X) HX{.2X2X@.} } m [.",
"S ....a U 5 e H $ , &.) ;.: c 4X@./ :XZ T *.XXc 7 $.L /.y o ( Z 4 8 W.a r b C.K j >.& q ] ;X].I.G.~ < Q.-X:X@.% 1X_ < y G.~ 4 Y.",
"7 >XkXoX@XG.V U t & R bX;.$ # ' 1 C [.O.N ).Q.V V Y.4 @.% . J U.X Y.Z.3 b B (.(., bX: z p w Z C.V ;X1X..-X;XxX< ! ;XV H x y Z Q.",
"h : f Y.O.O - 6 T.4XK 0 j 6 o.{.P |.@.; d e F ^.^.CX0 : ] X 6 D.4 G F.t q m U $Xo 4Xj p $ !.s V Y.Q.:.a K.2XkX,X&.: ( ~ | u V M ",
"h ; # 9 :X+XU p g *.@ a S @ $X.., |.Q.  !.T U A 5 ] +.) I.t P.S.R..Xe e `.P.u ; 0 ZXY - | ( C.S oXA L k h y zXD.J.^ S 9 ,XlXG.~ ",
"k E.z $ ~.a 0 a T.-.* g } }. X$ E +.@.}...z r 6 - c L I.U.|.C.L.n e C.s ).} L +X).|.ZXd ( F.q ; u V T   ^ T.#X$ ) + i O h cX.XZ.",
"` G.7 - V ; ] k +XS p O.Y S >XM E $X9   & @XK a / 1X% M W.A = m A Y N = U V L z 0 L T.8 [.P.B O.W 5 ).i ! zX! u /.; ~ XXlX'.OXB ",
"! o < Q.# 1 a o }.d 4 | #XG.G.G.4XZ g k M z -.! { o.% ,XF.$ *.= G T U.H.f b #X+.O.O.[.& R g b $ N 6 $ W.,XM < E.W.d U G._.q T R.",
") < ! (   >.(.7 (..X) s V n ~ H.[.8 ..: :XU ..) E.8 t ZXp v @X$ ..=.8 V %.B -.E Y.-.$XT T C 8 $XV T.}.n D...^ W.f D.V J./.e bX8 ",
";.` ^ ; O o.* S V  .| B Z.M H.~ C ( ) @./ $ M A.U.C t R 0 ` n.m.;X=.D e H >XK j & ] t #X).L ] 3 D.o., L.D.Q.@.JXC e ! mX[ | bXg ",
"CX; $XX g m N s Y.c j (.R.q 5 kXV e >XV A.z oXM ;XM.V.V.N.N.N.N.N.N.N.wX8XV.n.<X{.c ..@.I.P.Y.Y.R.Y.P. .h I.^.h W =.o UX..h ;.X ",
"xX .bX}.j ].P.d } 0 +.Y C A 8 w W.A A H.! Q M.N.B.v.l.N.N.N.N.N.v.l.v.v.v.N.N.8X0X;X^ R.g e g - R.= _.m 3X:X~ y [ @.+X+.| / }.$ ",
"M - $ * ; $  .].* z 7 :  .P.C U.6 6 a 2.M.v.v.l.l.l.l.l.l.l.l.l.l.l.v.v.j.x.v.l.v.N.i.5X{ K _.e s g  .: @.@./ ..u ..CXF.R.( {.l ",
"!.} & X.$  XT.] l c ] : >Xn & 7 [ o.3.v.v.v.k.l.k.k.k.s.s.p.s.s.p.s.s.k.v.v.k.l.k.k.N.N.i.Q $ } $Xm T.]. X; & XXa E.!.C.} R ..9 ",
"- y j U t } @.o U ].@.|.9 7 .XD M.i.v.l.f.l.j.f.j.s.p.p.s.s.s.s.s.l.f.f.f.f.k.k.l.x.k.v.v.b.i.d G C oX@.7 u ' Q./ !.P.C.P..X!.~ ",
"U D C U g s c @  .6 G g - p R.1.v.v.f.s.s.s.p.s.p.p.s.s.s.p.y.l.p.q.p.f.h.f.s.f.f.k.x.k.x.x.v.i.8 5 Y.R.Z @. .y h ( m C.n P.G./.",
"m |  .D 8 Z +. XT.Y.G G [.>X&Xv.k.s.s.s.p.p.s.y.s.s.p.p.p.v.s.p.p.v.p.s.y.s.s.f.p.f.f.x.f.j.x.x.5X( [.m XXT.a p ..T.n F.! G.~ >X",
"oX4XO.@.-.O.7 o 9 Y.C.4  .<.h.f.s.s.s.p.p.p.y.p.q.p.y.s.x.d.d.NX0.0.d.r.y.y.y.s.f.s.f.f.h.f.h.h.h.i.) B XX( [.x l : x e /.lXW.U.",
"+X+X;.|.@ 3X=. Xi =.  o 2.k.s.s.s.s.p.s.y.y.p.p.y.y.y.0.p.NX<.<.<.NX,.0.x.t.t.a.a.s.u.a.u.g.g.h.f.x.1.D.G T / S !.n s C T.d %Xb ",
"FXLXFXPXLXFX}.=.$.L * ;Xk.s.s.p.p.s.q.q.y.p.y.y.y.y.0.0.NXQ vXIX .mXQ i.8.w.p.y.u.a.a.a.u.u.g.a.h.h.c.2.w 5 s I.V XXG Y.9 ( L.C.",
"LXKXFXFX].`.nX`.# *.M z.s.p.p.p.p.q.y.p.t.p.y.q.y.r.8.Q mXt IXIXIXIXvXvXQ d.u.u.u.a.a.u.u.=X=Xu.a.h.x.c.C `.D 8 U.B G q C./.J.b ",
"IXIXIXIXIXIXMXKXI }.<.f.s.p.p.p.p.p.y.p.q.q.y.y.r.0.3.vXX.IXIXIXIXIXIX; nX*Xy.u.u.a.u.a.u.u.w.w.a.a.a.x.z.n D zX3 B 3 5 P.W.c d ",
"IXIXIXIXIXIXIXFXKX/ i.p.p.p.q.q.y.y.q.y.q.t.t.r.7.0.2.&  .IXIXIXIXIXIXIXnX&Xt.w.w.u.u.u.u.u.u.=Xu.u.g.g.h.W. X: / ( ( ( ^.~ 1Xc ",
"IXIXIXIXLXIXIXIXMXmX9.p.p.y.p.y.q.r.y.q.q.r.0.q.r.8.2.nXIXIXIXIXIXIXIX7 $ 2.w.w.w.w.w.w.u.w.w.u.r.u.u.u.h.5X  u } $ ; [.zXh -. X",
"IXIXLXIXIXIXIXIXKXNXj.p.y.r.r.y.r.q.r.0.7.r.q.7.7.q.2.c ; PXIXLXf LXI.c $ <.w.w.w.u.w.w.w.w.w.w.w.w.w.w.a.i.`.l  . .8 Y.XX/.2X2X",
"IXIXIXLXIXIXIXIX+ <.p.0.q.q.7.q.7.q.r.r.7.r.r.7.7.a.mXP , E.IXvXnXFXAX; u e.w.w.w.u.w.w.w.w.w.w.w.w.w.7.u.9.L |.& 8 8 e XXs &.E.",
"IXLXIXIXLXFXLXP / 3.q.q.r.q.q.w.r.q.w.q.7.5.7.4.q.v.z.#.nXmXnXO 9 D R.mXNX7X=Xr.u.u.w.u.u.w.r.w.w.w.t.w.u.z.%X).& V & U C.S.R.6 ",
"IXKXFXIXLXLXLXLXSX1.r.q.q.q.7.w.w.7.r.7.4.4.q.t.h.B.B.=Xe.:X:X..nXnXe.9XyXyXyX=X=Xw.w.w.r.w.r.w.w.7.7.r.u.g.3.U.I._.J w L.( 4 G ",
";.MXFXKXKX=.+Xh nXNX0.7.7.7.7.4.5.4.5.7.4.4.8.t.b.qXwX8Xv.a.7.7.w.h.6XrXgXgXyX=X=Xw.w.u.u.r.r.w.w.w.7.w.r.a.3.P.G..X(.4 Z.R....X",
"j (.& U +.+.u ) j 1.0.6.5.7.5.6.4.4.4.r.4.4.a.6Xx.8XwX8Xb.y.5.4.5.c.7XyXgXyX7X=XaXg.g.u.u.u.u.w.w.7.7.r.r.a.&XU Y A.6 m W.~ p & ",
"* (.K U U (.X  .# 1.6.4.4.8.4.4.4.4.4.q.q.h.pXdX7Xb.b.b.a.5.4.5.5.t.=X6X9X6X9XgXgXyX=Xw.t.u.u.w.w.w.w.w.r.a.3.D m A.^.|.~ U./ 6 ",
": }.z 6 9 T.nX4XT 1.6.4.4.4.4.4.4.4.4.0.a.6XdXhXdXwXx.a.y.7.r.7.r.u.g.h.=XgXVXjXjXgX=X=Xg.u.u.w.u.w.r.w.t.t.2.U.H.I.$X~.e +.h Y.",
"} [.f y 6  .=.; P.1.6.4.4.4.6.4.4.4.4.q.f.x.aXBXBXwXqXx.r.q.r.r.r.t.r.7XeXhXVXVXjX=X7XyX=X=Xu.u.r.r.r.u.r.g.#.A V C.o U.lX(.; Q.",
"( y } !./ / [ }.Z.3.4.4.4.4.4.4.4.4.6.v.pX6Xv.pXsXwX8Xa.5.6.5.6.6.7.t.=XrXyXjXjX=X7XgXyX=X=Xu.u.a.u.u.r.r.1.n *.$ kX5 e A P.@.F ",
"! h < i [ h _ =._ 2.d.4.4.4.6.6.4.8.p.qXsXBXqXB.v.6X6Xy.5.6.4.5.5.7.r.c.7X9X=X7XeXhXgXyXrX6Xc.u.u.u.u.u.u.i.5 A t e m 6 ( - K S.",
") !. .' F } |.y [.;Xe.4.4.6.8.4.4.p.8XqXsXBXVXdX6Xx.h.y.r.7.5.7.7.w.t.a.c.=X9XgXVXhXhXgXrXrX6Xh.u.u.u.u.u.*XI.8 8 x |.!.G Y 6 Z.",
"U _.zXOXR.C G U.A R.i.6.6.6.0.6.p.j.qXtXsXBXVXdXwX6Xg.y.t.7.q.7.w.t.u.u.=X9XyXgXjXhXgXgXyX9X7X6Xb.g.a.a.g.c !.@.].c  .S f 3XI.3 ",
"r U = H.F.C e } U./ ;X7.6.6.0.0.b.B.V.pXsXVXVXpXwX6Xf.7.7.7.7.5.5.5.7.u.=XrXyXhXgXfXgXyXeXeXtX9X6Xh.a.a.7XP.@  XO.7 } g Y R !.R.",
"T o S s ( 4 6 & [.' }.d.0.8.0.s.6XqXqXV.sXBXBXpXwXb.a.q.7.6.4.4.4.5.7.q.h.rXgXfXdXgXgXeXeXtXyXwX7Xc.g.=X;XO.i  X# o [.[.T.o 9 `.",
"' 9 xXU.m * L k L o.+Xn.0.6.p.b.8XqXpXqXsXhXpXpXwXx.q.6.5.5.5.4.5.7.7.q.u.rXaXgXaXdXfXtXaXaXtXrX6X=Xg.5X$X* I.].[ y P./ c @.- %.",
"!.n R.6 x 4 L 0 u u j j i.q.j.8XqXqXpXsXdXaXtXqX8Xf.0.6.6.4.5.5.6.5.7.r.u.b.yXyXaXiXdXdXdXyXtXwX6X=X7X#.=.$ |.8 7 p XX,X} X.Z 4X",
"H.U.@ t T = E z U |.X.U W v.k.B.qXpXpXdXhXdX8XtX6Xp.7.6.4.4.6.6.4.6.7.q.y.x.rXtXeXfXfXfXdXtXrXwX6X7Xm.#.|.r [.R |. .I.!.[.2X X* ",
"m &.X.a D } M 2 2 u o ( G.n.b.N.V.pXpXdXdXdXtXpXx.y.6.6.7.6.6.6.6.5.0.q.r.p.=XaXgXaXaXaXaXtXqX7X9X5X| C oX8 '.N @ O.V D.& D.[.X.",
"3 U | ' 0 @.G.r ; -.o Z M @Xm.N.N.pXsXsXsXsXpXwXx.q.4.4.4.6.4.4.6.6.6.7.7.q.b.yXaXyXtXtXyXtX9XqXeX].0 n V x &.6 %.#XR 5 > N N | ",
"^.( y +.o f V 6 U O.}.; L cX  m.wX8XdXpXqXwXaXwXp.0.6.6.4.6.4.4.4.4.6.6.0.y.s.7XrXeXrXrXrXeX9XuX:.~ Z.] & ( ] S +.( D ) T.@ H.A ",
"M V Z.`.1  .kXm v l ] z -.&.O % m.7XwXV.qXqX8Xx.0.0.4.4.4.4.4.4.4.6.6.6.7.q.y.x.b.6X9X6X9XtXuXk { h ../ y T P.T.w V c G.W.T.U.q ",
"j 6 V ] P I. ._.-.j l * u [.}.`   m.uX8XV.8Xb.0.6.6.6.4.4.4.4.8.6.4.6.6.0.q.y.p.x.B.7XqXeXm.+X} ) o.{ M / z DXcX4 ~ P  .f J ( X.",
"L ] ) * K >XK e l E ..l L d }.@Xu bX;X3.N.b.f.0.0.0.4.4.4.4.4.c.4.6.6.6.0.q.q.q.h.6XqXuX;XI.XX-.; E.i L *.s |.+.v D.J ( | K h X.",
"I.I ] O.L y K !.l X.f l 0 I.+.+.T.o ].{.;X5Xc.d.y.6.4.6.7.b.0.c.7.7.6.0.7.r.p.s.b.0X;X#.7 R.f P.u =.o h U.c Y.4 8 D.G V N G h 7 ",
"* r U Q.]  .l H.[.k ..0 ;.Y.T -.|.@ ] a c ;XE.n.B.s.d.f.6XuXr.GXq.y.qXx.f.j.N.M.mX< }.z * S F.Y * L j j R 8 o Y +.n = m 5 |.~ F ",
"V N bX>.K +XE 7 - r L : m X.T.@ z c E o 7   V ^.5 e #.M.uXPXj.GXj.j.0XB.M.{ j L  X# 1XO.3 b T 6 o i i F (.4 7  X( r s j 6 3Xp r ",
"w zXM # , I.%.& l %.&.' 9 , | & (.O.A R ;  XZ.Z.xXY.A P.FXFX; LXG.MX:.E ( - l  Xk o.X.$ P.n t : [ z O 4X' - y h U - @.' l xXG 0 ",
"F.5 $ ] g .XL Y l L *.F D +.0 4 v j V s O h & l R R V G.FXFXIXLXLXSXSXI p U.Z : [ =.j k 9 e & @.|.oXO.CXi {.; M * M X.a v / } (.",
"B C.0 D V & F 4 XX} g ! M Q.x p c & W.8 f i p ( P.V N I.FXIXIXLXLXLXLX2X#XH.!.d ' }.=.K |.O.].6 8 @ HXD W i k Q.j h * * :.{ x 7 ",
"B f ( D bXG C f f 6 T.6 / 4XoX;.o.9 T C G @.;.*.6 = ~ H.KXLXIXIXLXIXLX=.CX8 V G g +.-.@ |.L F ' C OXD c u W ] : !.$ M l / % 6 d ",
"g  .2XF t #X$ @ ;.- -.bX`.; XX@X# F r K d j n ~ zXG.XXSXKXIXIXIXIXIXLX@.H T.M p Y | O.] X.+.- Y.p |.9 7 #.i ].U G.- M z :X1XL S ",
"X Q.# #.~ Y O.P > Y $XI , Z / ].X O.T D | z Z T.G w ^.MXLXLXIXIXIXLXLXI P 9 S Z 9 f t Y ] Y A _.6 y } * 3XT.4X$X4 s ~ S  .o , ^.",
"  ;.;X,Xa ~ n u * ~ ~ p : A.c h X.r R.w K ] Z.U.U.e ^.FXFXLXIXIXIXLXLX(.P ( 7 g } D 6 4 4 & Y.C g ].7 (.R T & !.|.C.A w +./ I Q.",
"9 m T.T.g m L e 3 T.% 1 7 b j & @ 0 X.6 S 3XF.V 8 f : MXKXIXIXIXLXLXLX XQ.Z m ( Z v : ' & Y j f g A G G w !.L 7 /.G.I.[ O.u ~.Z.",
" .c O.X f (.* 9 8 g [ _ * n ] X @ : }.& F x G.^.8 } X.SXSXIXIXIXLXLXLX(.F } [.9 +.e 8 R.C.F.; $ f Y z _.& X 8 x ; oXh I.* ;.zXZX",
"].x [.6 0 ).(.x n - c * f m j K @ 7 f o j |.8 ( m @ x SXI PXIXIXIXIXLX[. .* D R 5 = P.q B b @ $ +.0 = #X*.E ( & @ E 4 P.o E 2 X ",
"7 U _.x C 8 D 3X .9 c 7 zX& @ CX' ].O.+XL r N s ( Z ' SXI IXIXIXIXIXLX| D i R = _.B R.B C.C.K r C $ r U j -.( x 0 `.- 4 _.(.u c "
};
