/* XPM */
static char *Y29sb25l[] = {
/* columns rows colors chars-per-pixel */
"64 64 255 2 ",
"   c #000D00",
".  c #001400",
"X  c #001C00",
"o  c #081804",
"O  c #071E16",
"+  c #012400",
"@  c #0A2704",
"#  c #012C00",
"$  c #142B01",
"%  c #033400",
"&  c #0B3301",
"*  c #023C00",
"=  c #0B3B00",
"-  c #133704",
";  c #133C01",
":  c #1B3D01",
">  c #0D3B1F",
",  c #163A17",
"<  c #27370E",
"1  c #173528",
"2  c #203E26",
"3  c #044500",
"4  c #0D4200",
"5  c #0B4B00",
"6  c #144401",
"7  c #1B4302",
"8  c #144B00",
"9  c #1B4C00",
"0  c #1A460C",
"q  c #075500",
"w  c #1C5401",
"e  c #1B5604",
"r  c #194716",
"t  c #1A5514",
"y  c #224C01",
"u  c #264808",
"i  c #344B08",
"p  c #245302",
"a  c #2C5403",
"s  c #235C01",
"d  c #2B5C03",
"f  c #27550C",
"g  c #2C5C0B",
"h  c #355905",
"j  c #254C12",
"k  c #274917",
"l  c #364E16",
"z  c #2B5513",
"x  c #285717",
"c  c #2B5C13",
"v  c #365A17",
"b  c #345B1A",
"n  c #186905",
"m  c #296803",
"M  c #2C620C",
"N  c #336C01",
"B  c #376708",
"V  c #2B7505",
"C  c #387604",
"Z  c #2C6617",
"A  c #356313",
"S  c #336B12",
"D  c #3C6C13",
"F  c #39671B",
"G  c #3B7517",
"H  c #184F2F",
"J  c #294A24",
"K  c #2B5823",
"L  c #365A27",
"P  c #315434",
"I  c #386625",
"U  c #3C6B24",
"Y  c #3B642B",
"T  c #366D2F",
"R  c #3B7426",
"E  c #386636",
"W  c #465314",
"Q  c #6C5416",
"!  c #466608",
"~  c #447705",
"^  c #57710B",
"/  c #456919",
"(  c #467818",
")  c #547B19",
"_  c #425C28",
"`  c #436E25",
"'  c #436C2B",
"]  c #496929",
"[  c #556A24",
"{  c #447323",
"}  c #4C7B24",
"|  c #477729",
" . c #4C7C2C",
".. c #547A28",
"X. c #466935",
"o. c #556936",
"O. c #4A7737",
"+. c #557836",
"@. c #6C7835",
"#. c #385843",
"$. c #3C6947",
"%. c #49704C",
"&. c #567945",
"*. c #567B58",
"=. c #667D4B",
"-. c #5A6D60",
";. c #A65318",
":. c #9D6B1C",
">. c #B7651A",
",. c #986D2F",
"<. c #AE6E2D",
"1. c #D75F1C",
"2. c #FE5406",
"3. c #FE5A06",
"4. c #FE550A",
"5. c #FD5B0C",
"6. c #F54C10",
"7. c #FC5712",
"8. c #FD5D12",
"9. c #FD610D",
"0. c #E5631C",
"q. c #FD6314",
"w. c #F86519",
"e. c #FD641B",
"r. c #FD6A1C",
"t. c #D47530",
"y. c #FD6523",
"u. c #FD6C23",
"i. c #FD662A",
"p. c #F66C28",
"a. c #FD6C2B",
"s. c #FA7428",
"d. c #FD722C",
"f. c #F76B36",
"g. c #FD6D33",
"h. c #FD6E3A",
"j. c #E97331",
"k. c #FD7233",
"l. c #F97936",
"z. c #FC733B",
"x. c #FC7C3B",
"c. c #91734B",
"v. c #B47846",
"b. c #D37A4B",
"n. c #FC7C43",
"m. c #FA7844",
"M. c #F47B4F",
"N. c #37840B",
"B. c #488605",
"V. c #53880A",
"C. c #539502",
"Z. c #49861A",
"A. c #558818",
"S. c #509413",
"D. c #69940F",
"F. c #55A110",
"G. c #6AB00D",
"H. c #4B8528",
"J. c #568729",
"K. c #579528",
"L. c #4D8633",
"P. c #588638",
"I. c #5A9338",
"U. c #6E912E",
"Y. c #659829",
"T. c #65893A",
"R. c #679838",
"E. c #6AA536",
"W. c #72A934",
"Q. c #598745",
"!. c #518B49",
"~. c #5D9445",
"^. c #5B8A54",
"/. c #648A46",
"(. c #758A4D",
"). c #689647",
"_. c #789847",
"`. c #678857",
"'. c #6A9756",
"]. c #749957",
"[. c #6CA647",
"{. c #77A84A",
"}. c #76A756",
"|. c #74AF54",
" X c #5E8361",
".X c #789664",
"XX c #72926C",
"oX c #6DA465",
"OX c #7AA967",
"+X c #889F30",
"@X c #B3842B",
"#X c #D0893E",
"$X c #FB823C",
"%X c #9DDD2B",
"&X c #8D8B4B",
"*X c #86A956",
"=X c #8FB552",
"-X c #84B458",
";X c #A9A258",
":X c #829B66",
">X c #89A967",
",X c #87B767",
"<X c #90B574",
"1X c #D28C50",
"2X c #E6814F",
"3X c #FC8445",
"4X c #F88847",
"5X c #FC834C",
"6X c #FC8B4C",
"7X c #E98857",
"8X c #FA8955",
"9X c #FD8C54",
"0X c #F79357",
"qX c #FD9255",
"wX c #FC935B",
"eX c #FD9A5D",
"rX c #D78D66",
"tX c #FD9464",
"yX c #FD9C64",
"uX c #F99768",
"iX c #FD966A",
"pX c #FC9C6B",
"aX c #FDA26B",
"sX c #FDA468",
"dX c #FDA977",
"fX c #FDB17E",
"gX c #93D153",
"hX c #AAD256",
"jX c #94CA72",
"kX c #A6C977",
"lX c #779B91",
"zX c #8D9B88",
"xX c #B39586",
"cX c #88A887",
"vX c #94A687",
"bX c #91B58B",
"nX c #AAB394",
"mX c #B1B5A7",
"MX c #BABDB5",
"NX c #DDAE9B",
"BX c #F3AF8D",
"VX c #FCB889",
"CX c #D3B7AC",
"ZX c #E0AFA0",
"AX c #A0CD8D",
"SX c #ADD594",
"DX c #BCC3B4",
"FX c #C3C5BB",
"GX c #D8E6A5",
"HX c #BCEFCE",
"JX c #C8C8C4",
"KX c #CFCCCC",
"LX c #D3C8C3",
"PX c #D0CCCC",
"IX c #DEFDC2",
/* pixels */
"( N R.) 9 ( y 7 @ X /.J.7 J.M 8  .OXm C L.|.% = N F = KXPXPXPXKXPXPXJX.X% t G.9 / XXT q m V.[ ! a @ <XT.^ =XSX@.W $ _ +.i }.y Y ",
"J.d J.B ,Xy I.+ 9 j l Y.'.I.S ( 3 5 V K.I.R A.z d > KXKXPXPXPXPXPXPXJX>Xe # G.{.] X.oXN.e U.$ h *XT._.! : =X=.  $ o i h B V.H.+.",
"x v & &.E ^.[.r ` . k R.r ` I.7 % % G H.Z t ( : z 2 MXPXPXPXPXPXPXPXKX*X% K.F.* k -.t V H.i IXhXkXU.>X[ %X=XD.SX&X>X>X+.` U c ).",
"D ..} a I 4 n H # , %.) *.; v <X+.` *XA | O.[.F zX#.DXKXPXKXKXPXKXPXKXI r n N.K k -.% q ` *XT...A.~ < U.%X*X@.$ .X] : u A.B.4 L.",
"7 -XgX}.XXA.C I r % R bX^.# @ ] > x ).o.N !.T.C ~ L.JXKXKXKXKXPXKXKXJX3 n V !.P., bX; x p e S N.C ].:X..%X&XkX< W _.N K g 9 A T.",
"h ; f L.X.o = 6 P.<XK 6 r ; o._.P '.P.: d 0 G E.E.jXMXKXPXKXPXPXPXKXJXt Z Z Y OXX <Xj p # R.s C J.T.=.p D.>XgX=X%.; ( ~ } u D B ",
"h : X 9 -X.XI p M %.X d F + .XP.> '.T.  R.T I S 5 Y DXKXKXPXPXPXPXPXDXvX'.| j - 0 SXI * } ( G B ].A L l h 9 jXC.+X~ D 9 =XhXS.~ ",
"l R.v # Y.d 0 a P.&.- g { /.].% E +.+.`.} x r ; - L DXmXKXPXPXPXPXPXKXcX!.| L ].Q.'.SXd ( Z.q : i C T   ^ I.oX% [ o j . h zXE.B.",
"o.A.: = C - ` l .XD p | Y G -XB E OX9 . & oXJ h W :XMX@.PXPXPXPXPXKXDX* F C I x ; K P.8 [.H.V O.v 5 Q.i ^ ,X! u W.7 ~ W.hX X|.V ",
"! . u T.@ 1 a X `.m 4 ' }.A.J.A.<Xc h l B J &.! ..X.MXkXPXPXPXPXPXJXR.K.x e oX&.O.O.'.* R g e % B 6 # Y.=XB < U.Y.d ' ..~.q T I.",
"^ $ ! (   -.Q.0 Q.[.) s C m ! D.~.8 ..: *XY ..A.R.7 MXSXMXPXPXPXKXJX8 C $.C Q.E &.&.OXI T x 8 OXC P.`.n C. .^ Y.f C.N D.{.s cXw ",
"-.o.^ : o o.@ D B H.H.V B.S V.N.F ( ) +./ # B B.K.Z cXT MXMXPXv.JXCXvXvXH |.K k * R t oX!.I ' 3 C.o.< G.C.T.+.HXZ e ~ nX] } cXg ",
"bX: OX  g B m s P.b k ~.I.5 5 gXN.e -XC V.z {.D &X2XM.M.NXNXCXm.JXCXM.5X8XM.c.;X/.v ..P.H.H.L.L.I.L.H.H.h J.W.h _ &.+ IX} a *.X ",
"kXP.bX`.j /.A.s ` 0 O.U S V 8 e Y.S S S.W Q b.m.m.z.h.m.m.m.M.m.ZXZXz.z.h.m.m.n.2X&X^ P.g e f 4 I.* I.c ,X*X( y / +.].O.( / `.@ ",
"N = # & , # H./.& j 7 =  .H.Z K.8 = a ,.1Xz.h.h.h.h.h.h.h.h.h.h.z.h.h.z.f.z.h.h.x.n.j.1X[ J ).e M g +.6 +.+.D J.< ..AXG I.} (.z ",
"R.{ % X.+ }.+.` z b ' ; -Xm % 7 ' o.>.z.z.k.h.g.g.g.g.i.i.i.i.y.i.i.i.d.k.z.k.h.k.h.z.m.t.Q # { |.g P./.].- # *Xa U.R.N.R G ..9 ",
"= 0 t L j | O.X I /.+.).w 7 ).F v.j.z.h.g.g.g.a.i.a.y.i.i.i.p.g.i.g.g.a.i.a.a.h.h.k.k.z.z.l.j.d G S }.O.7 u ` T.( R.H.N.H.[.R.~ ",
"I A I Z M s b +  .8 F M = p Y.<.m.z.a.i.i.i.i.y.y.i.i.i.i.y.y.f.y.8.y.a.a.g.u.a.a.g.k.g.f.k.l.t.0 3 L.I.v P. .7 h ! m Z.m H.A.W.",
"S H.| F 8 A o.].P.L.G G ).>X@Xk.g.i.i.i.y.y.y.y.i.y.e.y.y.f.i.l.y.i.y.y.y.u.a.i.y.a.g.g.g.f.h.k.#X..).B {.P.p y +.P.s G ~ J.~ {.",
"Y.J.w g c w 7 + w H.G 4 } :.a.a.i.y.i.y.y.e.y.y.y.8.y.y.g.m.7.NX6.7.p.e.e.e.e.a.a.y.u.a.d.p.d.d.k.<.) V {.( ).v c 6 Z s W.hXY.Y.",
"e R F O.+ ,XX.].u &.. X ,.g.i.i.y.i.i.i.y.y.y.y.e.e.8.4.0.NX;.xX;.6.6.7.e.e.y.e.u.y.u.u.s.s.s.d.a.k.<.C.C T ( D R.s s M ..m +Xn ",
"0 4 # Y.|.'.' K , L - &Xg.i.i.y.y.i.8.8.e.8.e.e.e.e.7.6.CXCXh PX+.nXc.<.6.q.r.u.u.u.u.u.r.s.s.u.d.k.l.<.9 5 p J.( |.N.L.9 ( G.N.",
"X f K.~ B Q.( ^.O Y B j.i.y.y.y.y.8.y.e.8.i.e.8.e.q.6.Q nXJXPXPXPXzXvXJ Q 4.r.r.r.u.u.r.r.r.s.r.u.d.d.j.c ^.Z 5 K.V G q N.[.D.e ",
"%.u = p D % 8 OX+ ] :.a.i.y.y.y.y.y.e.e.e.8.e.e.q.7.<.> JXKXPXPXPXPXMX*.d #Xe.r.r.u.r.u.s.r.r.r.u.u.d.d.m.m F jX* V 3 q H.Y.W m ",
"+.+.k - ; D c R.h ` 1.i.y.y.8.8.e.e.e.8.q.w.8.q.q.7.,.% O.PXPXPXPXPXKXD g @X0.9.9.r.r.r.r.r.$Xr.r.r.u.s.s.Y.].: / ( G ( {.~ :Xv ",
"../ . 1 l ( g a 7 Q j.i.y.e.y.e.8.q.e.8.8.8.8.8.8.6.,.vX[ LXPXPXPXPXKX6 % :.9.9.9.r.9.9.9.9.9.9.q.r.r.r.d.1X  u ( # ; ).jXh &.].",
"T.v o.J X : ....+ ;.y.8.e.q.q.e.q.8.e.8.5.q.8.5.3.w.,.vX&.zXPXPXPXY J.9 + :.9.9.9.r.9.9.9.9.9.9.9.9.9.9.d.t.^.k  . .8 H.|.W.OX>X",
"R Y +.o.].o.) X.O ;.y.8.8.8.5.8.9.8.q.5.5.q.w.2.5.r.,.JX, nXnXPXj mXDX6 u 0.9.9.9.r.9.9.r.9.9.9.9.9.9.9.r.1.L '.% 8 5 f {.s &.@.",
"} G R.<XW ] @ P M <.q.8.8.8.9.9.8.q.q.5.5.3.5.2.8.l.j.@.: KXJXJX8 vXnX_.j.6X$Xq.9.r.9.9.r.9.q.9.9.9.q.9.r.j.+X!.* C % F B.F.J.5 ",
"g d F y o.:   j f >.q.8.8.9.5.5.5.5.q.5.2.2.5.w.g.x.n.$Xp.*X*X].| JXLX6XwXeXeX$X$X9.9.r.q.q.9.9.9.9.5.q.r.s.<.K.J.~.J e F.Z.= G ",
"I Q.j j >X&.).d F 1.q.5.5.5.5.2.3.2.3.5.2.2.5.p.x.8X9X5Xz.r.5.3.3.s.3XqXsXsXeX$X$X9.q.r.r.q.q.9.9.5.5.q.q.u.<.H.A.).&.4 C.I...[.",
"j Q.% I &.O.u ) k >.5.5.5.5.5.2.2.2.2.q.2.2.p.x.k.5X9X5Xl.e.5.3.5.d.6X0XsXeX4X$XqX$Xs.r.r.q.r.q.9.9.5.9.q.u.@XI R V.6 c Y.~ p % ",
"& Q.K I Y P.. } @ >.5.2.2.2.2.2.2.2.2.5.q.a.wXpX4Xl.x.x.u.5.2.3.3.w.$X3X6X$X6XaXsXeX$Xr.r.r.r.9.9.9.9.9.q.u.:.I M B.E.'.C K./ 6 ",
"- /.x 6 f P.vXbXT >.4.2.2.2.2.2.2.2.4.8.y.3XpXdXpX9Xx.a.q.5.q.5.q.w.d.d.$XsXfXVXfXsX$Xs.r.r.9.r.r.9.9.q.w.w.,.R.S.J.OXY.m ' h P.",
"{ ).f p ; { &.: H.>.4.2.2.2.2.2.2.2.2.7.a.k.tXVXVX8X5Xk.q.8.9.q.q.q.q.6X0XdXVXVXdX$X$XeX$X$X9.r.q.q.r.r.8.j.@.S C N.X K.hXQ.- P.",
"( p { /./ ( ] `.B.<.6.2.2.2.2.6.2.2.4.l.tX5Xx.wXtX9X9Xe.5.4.3.3.3.5.w.$XqXeXfXfX4X4XsXeXqX$Xr.r.r.q.r.q.w.1.m O.# gX5 e V H.+./ ",
"! h : l ' h _ &._ ,.w.4.2.2.4.4.2.2.i.8XiXdX9XM.z.3X3Xr.5.5.2.2.3.5.q.s.6X4X$X4X0XdXdXsXqX4Xl.r.r.r.r.r.r.t.5 S t e g 8 | = K V.",
") T...] A { '.y ).&X0.4.2.4.4.4.4.y.M.8XiXBXVXaXn.k.d.e.5.5.5.5.5.9.w.d.l.$X6XsXfXfXsXsXqXqX$Xk.u.u.u.r.r.#XJ.6 6 x }.R.S { 4 B.",
"I ~.jX|.I.G G L.S ~.t.4.2.4.7.7.i.z.5XwXiXBXVXpX9X3Xp.e.w.8.5.5.9.q.r.r.$X6XeXsXfXdXsXsXeX6X4X3Xl.u.u.r.s.v T.P.Q.b  .A c ,XK.3 ",
"r I 3 S.G G e ( J.( &X4.2.4.7.7.l.m.5XtXiXVXVXiX9X3Xa.5.5.5.5.3.5.3.5.r.$XqXyXdXaXaXsXeX0X0XqX6X4Xd.d.u.4XH.# ].O.7 { g U U R.I.",
"O.X C s ( 6 6 % /.` `.p.7.2.7.g.n.8X8XM.iXBXdXiX9Xn.y.5.5.4.2.3.2.3.5.8.d.qXyXaXaXsXsX0X0XwXwX9X4Xl.s.s.&XO.a ].@ X ).R.+.X 9 ^.",
"` 7 kXI.M % L l L o..Xc.7.6.8.x.5X8XtXwXiXdXiXtX6Xk.8.5.4.3.3.2.3.5.5.8.u.qXyXsXyXpXaXwXyXyXeXqX4X$Xl.2XOX- +./.] y J./ A +.= $.",
"R.m I.4 c 4 L 0 u j k r t.w.i.3X8X8XtXiXpXiXwXwX9Xa.5.2.4.3.2.2.2.5.5.q.r.x.eXeXyXuXpXpXpXyXwX9X3X$X4X@.&.+ {.4 7 p {.,X{ X.A <X",
"S.Y.X t T * E x U ].' I W z.g.M.8XtXtXiXaXpX3XwX3Xy.4.4.2.2.2.5.2.4.5.8.e.l.6XwX0XaXaXaXyXwXqX8X3X4Xv.T.'.r ).R '.} J.R.).>X}.@ ",
"g %.O.a F { B 2 2 u + / V.c.z.n.M.tXiXiXpXaXtXwXk.e.4.4.5.4.4.4.4.5.5.8.8.y.$XyXyXaXyXyXyXwX8X4X6X1X| Z }.8  XN X | C C.% C.T.X.",
"3 I ` U 0 O.A.r - +.X F A XXv.n.m.tXiXiXiXiXiX8Xk.7.4.4.4.2.2.2.2.2.4.5.8.8.x.yXyXeXwXwXeXwX8X9X0X/.0 m C c $.0 $.oXR 8 > m C | ",
"E.( 9 O.X f C 6 Y O.*.u b lX  v.9X5XiXtX8XwXtX6Xy.7.4.4.2.2.2.2.2.4.4.4.5.8.a.3XqXqXqX9XqXwX6X7X@.~ ) U # ( | D &.G L Z.P.+ S.G ",
"A C V.^.1  .gXg b v ' z &.%.o $ v.4X8X8X5X5X5Xx.8.4.4.2.4.2.4.4.2.4.4.4.8.8.e.k.x.3X6X4X6X0XrXl / v ..~ p T } P.w C b A.Y.I.H.8 ",
"j 6 ! Y P .. .~.&.j l & u ).XX_   v.rXM.M.n.m.7.4.4.4.2.2.2.4.2.4.2.4.4.7.8.8.y.k.n.3X9X7X#XXX` ..+./ h / x SXbX3 C H +.f 2 ( X.",
"L | ) = K -XK e z E | z L d `..Xu <X&X<.M.n.p.6.7.4.2.4.2.2.f.4.2.y.4.4.7.8.8.8.a.3X9XrX&XJ.{.&.< U.h L &.s '.$.Z V.J ( ..K h X.",
"..E ` O.L w K R.f E g v , H.O.o.&.+ /._.&X1Xf.i.8.4.2.4.x.5.x.y.7.5.5.5.8.e.y.i.n.7X&X@.7 P.t A.u &.. h I.c H.6 8 C.( C m G B : ",
"& , Y R.'  .v A.).l ..0 *.I.T O.'.+ ' a ! &XW.c.m.y.i.7XrXq.LXp.M.NXa.k.m.a.m.b.nX< `.x = S Z.R & L k k U w X I O.m * m e '.~ F ",
"C N <X-.L XXE 9 % r L ; m X.P.+ k A E X : o C E.5 e T.rXLXl.PXNX7X7Xf.m.b.[ j L ].$ :X' 5 n T 6 X l i v ~.* 7 ].( r a k ; ,Xy r ",
"e jXA # , J.$.% z %.%.` 9 , | = Q.O.S { : '.B.Z.kXL.S FXJX&.PX; JXKX`.vX` k f ].l o.X.# | m t = ' i . <X` - y a I ; O.` g kXG 0 ",
"Z.5 # X.g [.L U z L %.F A %.8 4 v k C s X h % j T R N FXJXKXPXPXPXPXKXP <XK.A & ] &.k l f w & +.'.}.| AXi (.: B & B X.p l / | Q.",
"V N.0 A C % F 4 {.{ a ~ B T.c p v # E.8 a u d ( H.B.N FXJXKXPXKXPXPXPXKXDXK.R.d ` `.&.L '.T /.7 8 + GXI W i v T.k d & - /.[ c 6 ",
"V g ( v bXG A t f 6 P.7 F <X|.*.o.6 O.Z D +.&.&.6 * B.JXPXPXPXPXPXPXKXFXAX0 G G g +.&.+ '.Y F U c |.F v i W X.; R.& B z / $ 7 d ",
"g  .>Xv t oX# @ *.= Q.cX`.: {.XX@ / r t m J d ( jXZ.DXJXPXKXKXPXKXPXKXKX-.~.N s F | O.U X.O.* P.f '.9 7 +.u /.I A.= N b *X.XL D ",
". T.$ (.~ U O.J O U OXP , v / /.. O.T Z | k M I.G e JXJXPXPXPXKXKXPXKXKXXXy F D 9 x e U Y U G I.6 y ` & ,XP.<XOX4 s ~ S ..X r _.",
". -.R.;Xa C N 0 4 ~ ~ p ; V.A a X.r I.e K ` B.K.K.e FXKXPXKXKXPXPXKXKXPXmXT.7 f { I 4 6 4 % L.Z g T.y Q.' R % R.'.C S e O.I E J.",
"9 M P.P.g c L p 3 L.$ 2 7 n j # + 0 X.6 D ,XZ.C 8 f JXDXPXPXKXKXPXPXPXPXJX&.M | A b ; U & ' j f g M G G e R.L 7 W.A.J.] X.y Y.B.",
" .c | X f Q.& 8 w f ] _ = m X.. + - `.% / c A.E.8 ` MXJXPXPXPXPXKXPXPXKXKX=.I.9  .e 8 I.N.N.: + x R x ~.% . 8 c 7 }.h J.; *.jXSX",
"Q.b '.; 0 !.Q.Z s 4 v - f V k b + 7 f X j '.5 ( B + MXPXPXPXPXPXKXPXPXPXLX& F | q * L.q V n + + T 0 * oX%.' Z.# X E 4 } . E k   ",
"7 F ~.c c 8 F ,X .7 b 9 <X% # bXU /.O..XL r N e ( A JX`.PXPXPXPXPXPXPXPXMXz R % ~.G L.V N.N.b t T # 0 Y u %.( Z 0 ^.= 5 ~.!.u b "
};
