/* XPM */
static char *_0d27d54546a478695f337ef7064a7d4p67Ci5z1qPAsvX36[] = {
/* columns rows colors chars-per-pixel */
"64 64 256 2 ",
"   c #010C01",
".  c #001401",
"X  c #001C00",
"o  c #101811",
"O  c #2D1815",
"+  c #012400",
"@  c #0B2703",
"#  c #012C00",
"$  c #033401",
"%  c #0B3401",
"&  c #093A01",
"*  c #133D01",
"=  c #183A03",
"-  c #153213",
";  c #282F14",
":  c #231F25",
">  c #1B2728",
",  c #18322D",
"<  c #282828",
"1  c #342A27",
"2  c #273828",
"3  c #39352A",
"4  c #2C2C32",
"5  c #293637",
"6  c #373739",
"7  c #5E1A18",
"8  c #4C2C17",
"9  c #46352A",
"0  c #57382A",
"q  c #4F3330",
"w  c #443B38",
"e  c #6B312A",
"r  c #0D4200",
"t  c #094900",
"y  c #144401",
"u  c #1B4302",
"i  c #144B01",
"p  c #1B4C01",
"a  c #19460B",
"s  c #1C5401",
"d  c #1B5704",
"f  c #12530D",
"g  c #1B4615",
"h  c #244806",
"j  c #354D0F",
"k  c #235302",
"l  c #235B01",
"z  c #2C5C02",
"x  c #29590A",
"c  c #355904",
"v  c #284A17",
"b  c #2A5814",
"n  c #355A19",
"m  c #1B6602",
"M  c #2A6606",
"N  c #366807",
"B  c #2B7606",
"V  c #377505",
"C  c #2C6517",
"Z  c #386717",
"A  c #3B7618",
"S  c #184B2C",
"D  c #2C4B2A",
"F  c #2B5823",
"G  c #355927",
"H  c #394837",
"J  c #395837",
"K  c #396725",
"L  c #3C7425",
"P  c #396635",
"I  c #386F34",
"U  c #495919",
"Y  c #6A541C",
"T  c #4D6B08",
"R  c #447604",
"E  c #446818",
"W  c #467819",
"Q  c #547B19",
"!  c #445929",
"~  c #474338",
"^  c #524A34",
"/  c #66493A",
"(  c #714E34",
")  c #466A28",
"_  c #477827",
"`  c #557A29",
"'  c #466834",
"]  c #526A36",
"[  c #4A7736",
"{  c #557936",
"}  c #677132",
"|  c #1C2550",
" . c #393C42",
".. c #283250",
"X. c #262F65",
"o. c #28346A",
"O. c #293776",
"+. c #463D47",
"@. c #773D41",
"#. c #3D4548",
"$. c #3C4556",
"%. c #305068",
"&. c #464849",
"*. c #554F48",
"=. c #48554A",
"-. c #464C55",
";. c #4B5358",
":. c #565657",
">. c #6E4F4D",
",. c #6A5749",
"<. c #745849",
"1. c #567745",
"2. c #526C50",
"3. c #6F6E53",
"4. c #4A5169",
"5. c #585B64",
"6. c #645E66",
"7. c #5C676A",
"8. c #596A75",
"9. c #64686A",
"0. c #6C7267",
"q. c #646C75",
"w. c #6A747A",
"e. c #747879",
"r. c #901C23",
"t. c #A81D23",
"y. c #922C2E",
"u. c #A12421",
"i. c #EA1D2B",
"p. c #D0262F",
"a. c #EA242A",
"s. c #E92737",
"d. c #894C33",
"f. c #A95D36",
"g. c #D53A46",
"h. c #864D43",
"j. c #B44E40",
"k. c #B84D51",
"l. c #866856",
"z. c #957152",
"x. c #AB7752",
"c. c #907568",
"v. c #AC7570",
"b. c #CC4B51",
"n. c #CB754C",
"m. c #E4605D",
"M. c #CF7171",
"N. c #38840A",
"B. c #488602",
"V. c #52910C",
"C. c #488619",
"Z. c #568719",
"A. c #689211",
"S. c #60A90F",
"D. c #4C8527",
"F. c #568829",
"G. c #579529",
"H. c #4E8732",
"J. c #588637",
"K. c #5A9337",
"L. c #6C8F2C",
"P. c #669929",
"I. c #65893A",
"U. c #669837",
"Y. c #6FA832",
"T. c #5A8645",
"R. c #588C4F",
"E. c #648B46",
"W. c #689646",
"Q. c #74904D",
"!. c #678756",
"~. c #6B9755",
"^. c #759857",
"/. c #6CA548",
"(. c #76A848",
"). c #78A756",
"_. c #74AF51",
"`. c #5D8561",
"'. c #759869",
"]. c #6DA565",
"[. c #7AAA68",
"{. c #87A93B",
"}. c #9DDD2B",
"|. c #8F8D57",
" X c #89B057",
".X c #A1BE52",
"XX c #918A6E",
"oX c #B08C72",
"OX c #8BB26D",
"+X c #CC8D76",
"@X c #E08C72",
"#X c #A0CF5F",
"$X c #94C971",
"%X c #1C3987",
"&X c #273A89",
"*X c #333F8D",
"=X c #273B94",
"-X c #2C4F90",
";X c #284398",
":X c #275A98",
">X c #2850A3",
",X c #3269B1",
"<X c #506A97",
"1X c #6F7888",
"2X c #AF7782",
"3X c #DB7981",
"4X c #758488",
"5X c #7B8995",
"6X c #7A92A1",
"7X c #8C9093",
"8X c #B89686",
"9X c #AC9190",
"0X c #8DAF86",
"qX c #B5A796",
"wX c #8F9CA7",
"eX c #BD96A0",
"rX c #96A2A8",
"tX c #91A6A9",
"yX c #ACADB1",
"uX c #B6B6B8",
"iX c #CC928A",
"pX c #E69490",
"aX c #CFAC94",
"sX c #C8A898",
"dX c #D6AA99",
"fX c #E6AB95",
"gX c #CCB2AF",
"hX c #D8B7A8",
"jX c #E9B1AB",
"kX c #E5BAAA",
"lX c #A9CE93",
"zX c #D7C5B6",
"xX c #E9C7B7",
"cX c #ECCEB9",
"vX c #F2CCBC",
"bX c #CEF0A6",
"nX c #99B0CE",
"mX c #ADB9C3",
"MX c #C6B9C1",
"NX c #EBBBC6",
"BX c #B9C7D1",
"VX c #BCEFCE",
"CX c #C7CDD1",
"ZX c #DAD8D9",
"AX c #F4D5C7",
"SX c #F0D1CA",
"DX c #F5E2D9",
"FX c #F0E7DA",
"GX c #CCDAE3",
"HX c #D4DDE4",
"JX c #D9E5E9",
"KX c #DFEDF2",
"LX c #E8E9EA",
"PX c #F6EBEA",
"IX c #EBF5F8",
"UX c #F5F8F8",
/* pixels */
"W M P.Q i W k = # X E.D.p ` N i _ [.B A D._.% & N Z r _ & d { z Z % + J.$ f S.k E '.I t B V.E T c @ $X} T  XlXL.U @ U { j ^.k P ",
"F.z F.N  Xs U.+ p v j L.~.K.A L r t B G.G.L Z.b x 2 D ! 6 6 &.6 +.*.3 I.l # S.).E P ].N.s P.= c  X} Q.E = {.3.o = o j c R B.D.{ ",
"b n % 1.P `./.g ) + v U.g ) K.y $ $ A F.C f W v H  .&.6 w 4 *.6 *.5.:.1.t G.V.t j 0.f m _ z bX#X#XY. X` }..XA.bXI.OXOX] ) ) x W.",
"A ` _ c K r m S # - 1._ `.* n OX{ K  XZ L 1.3.6 +.&.*.4 6 6 &.w &.&.=.=.#.m N.F v 7.& f ) |.E.J.` R ; L.}.(.} @ |.! = h Z.B.r H.",
"u  X.X_.'.Z.V K g $ L 0X1.# @ ) S b W.' N H w w w &.w 9 9 ~ q 3 ~ ~ ^ *.2.Z T.1.g 0Xy b k s C N.A Q.'.Z.}.|.#X; U Q.V S M p n L.",
"c * x H.' + & y T.OXF a g y ] /.D W.{ = h > < 1 9 w *.,.<.>.<.<.>.*.,.^ w G K OX+ OXv s # U.z N.F.I.3.k S. X#X X] = W B._ h N N ",
"c = @ p _.'.K x M 1.+ z Z + XXH., ~.E.  ! 1 6 ~ <.c.sXhXhXhXhXhXaX9Xc.3.3 U h = a lXK & _ W N.C ^.N G j c k $XV.A.T Z u .X.XZ.B.",
"v U.n + P.z = c J.1.% x _ E.^.$ P [ { !.} 3.0.9XhXzXSXvXcXcXxXxXkXAXAXuX,.~ F '.T.^.lXz W C.t u j V I   T J.].# ` - x X N 5X/.B.",
"] Q u * V * ) v '.Z k [ K A  XN P [.a   - 3.c.hXcXcXAXvXvXcXxXvXxXvXDXZX7X^ G b y G J.i /.D.B ] n t [ j T $XT j Y.= R (.#XR._.N.",
"T . h I.% > c X !.M & _ ).C.Z.Z.OXN c n E 3.8XkXxXcXcXcXcXvXvXxXxXxXSXFXzXXX3.{ [ [ ~.$ L d d $ N i % P. XM O L.P.z K Z.W.t I K.",
"Q = T E   4.T.u J./.C.l A M R A.R.i ` = |.XXqXzXxXcXcXcXvXvXSXAXcXcXSXFXzXqX!.P 1.J.[.K I b a ].V I.!.M V.Z.T P.x V.V A.Y.d 5Xd ",
"9.^ R = @ } % A V [ _ V B.B Z.R Z W Q { { oXaXzXxXxXxXxXxXxXkXdX8X9XqXSXhXhX3.v & I f ].R.K ) t V.] v S.B.U.[ VXC d T qX' D.0XM ",
"$X= OX  x M M d H.n b E.K.t t .XN.d _.V P.8X8XsXXX,./ / oXgX8X/ 8 9 / z.8XdX|.OXT.C ` J.D.D.J.D.K.D.D.D.z F.Y.N ! 1.+ VX` z 2.X ",
"$XJ.0X!.v E.F.z ) y [ K M B t m P.Z A V.) oXoXz.( / 0 ^ oXkX8X0 8 ^ *./ oXsX( = ).I.c K.x d l r K.& K.b OX XW h E } ^._ _ E !.% ",
"N & # % = # F.E.& v a & _ D.Z G.i y i V  XoX8Xz.,./ 3.v.iXkXdXc.l.3.l.c.9XgX3.h ^.F.E _.Z F W.s M x H.* { { Z ` h ` lXA K.W Q.b ",
"U._ $ ' + ).{ ) b n ) *  XM $ i ) F + r J.qXaXaXaXsXgXhXhXkXSXsXsXgXkXkXxXhXXX! N (..XW.+ + $ W [.x J.E.^.= #  Xc L.U.N.L _ ` p ",
"& p f K b _ ] X K E.[ /.p u /.Z !.$ ) |.XXaXxXcXvXSXcXkXkXSXSXhXhXxXxXcXAXcXhX8X} D.F.z i g K.M A C ).[ h h E I.E Y.G.N.D.W.Y.A ",
"K n K F x l n # [ i A z % k P.& J = ] +XkXhXxXcXvXAXSXxX8XoXoXiXkXxXfXhXzXsXsXdXz.$XN y L i /.i t r H.K.n J.[ p z E M N.M D.Z.Y.",
"C D._ Z p C ] ^.J.H.A A W.).S.L 2.' 3.@XaXaXaXhXxXvXAXhXc.l.c.v.dXdXaX+XoXiXaXiXoXm E._.D.d A t _.B W.M (.J.x h ` J.l W V L.R (.",
"P.Z.d C b s u + i D.W t _ C m b F K |.iXiXaXoX+XiXkXvXzXoX>.>.oXdXaXoXz.oXoXdXfX|.C A i C.V K.t A D.A V (.W W.n n * C d Y..XP.P.",
"d L K [ # OX' ^.j 1.. . b l ).k W J.E.fXfX8XoXoX+XaXaXoX,.0 0 e v.aXiXz.x.oXoXiXQ M z P v = N N & K.V B.V I W N U.l d M F.z {.m ",
"i r # P._.~.) F - G % U.p K { n z Z v fXaXoX|.oXoXoX( ^ q +.0 9 3 ,.sXoXx.|.x.|.Z V P n @ K y G.Z.M D.b i t k F.N./.C.H.p W S.N.",
"X b G.R N R.W R.- G c V.p g + $ z ).b } @XoXh.oX+Xz.O O O O O O O O c.oXz.( z.[.V [.W J T.F M f $ [ z z b `.C i G.B A t N.Y.A.M ",
"2.h % l N % p ].+ ) c h [ H 2 G X ` W.p # 3.0 l.XX( ^ v.8Xv.9Xv.c.0 c.XX/ 0 ; #Xs d F i ].L `.L Y.K.P X i l A $X& B t t D.P.n M ",
"` { v - = N C E.N n @ G J 5 - v * J._ % v 1.8 ^ >.( l.8Xl.0 / l.oX^ <.,.9 ( L.U A.) Y.` G.C t M V s 1.v C V.^.= E W A W Y.T OXb ",
"` E X > G T x c u h - 4X2.J X v # u )._ v J ! 1 3 9 ,.c.9 1 9 0 <.8 q 9 O E T Z.= L.E Y.i D.M C i $ r A D.OX  h _ # u W.$Xc 1.Q.",
"I.b ' D X = ` ` @ - D E.G h h b g a Z x x G R ; : 1 3 ~ 1 8 9 q 3 4 3 ; o W c c L.Q.A.W U.C I W /.y a K /.C.`.b _ _ i H. XY.[.OX",
") ) { { ^.) Q ' o X j L.k W Z.b + % [ E % U T 8 O : ; ; : O : : 1 ; ; ; # R L.U 3.! @ Q Z J.F.a . @ D.K.t t F R.$ i i d (.l 1.} ",
"_ A W.OXE ! @ J M [ T . v 2.b [ lXH.N H.% ^ u.u.7 O O : o   o o : O U E.k i z Y.Z.F.= ! 2.v # W M B.K F & = V.R.$ V $ Z N.V.K.y ",
"x l Z p { =   b i Z N X % L v [ B d f I = Y t.t.p.t.7 O o   o : 4 0 ( } Z C E z z h n K [ Z g K W i N i W F.D.K.D.E.F d S.N.r A ",
") J.h v OX1.Q.z x W ^.{ OXF.U.i I $ G.A h 8 t.t.t.t.v.uX9XyXMXHXLXZXiXj.|.% n % Z n b x Z.#Xg # + u N P.R l V D.Z./.1.r B.K.` /.",
"v T.$ K { [ = ` a l 0._ a M K x i B b f ^.Y u.t.u.y.2X9XyXLXLXLXPXPXUXjXn.z.E.b h [ v E z S.P.u a b G.Z.Z   V.P Z V.y x Y.R k $ ",
"% R.F K K T.. ` + M > { % s b x D.H.A L C Y 7 r.y.y.c.7X9XPXZXCXHXZXPXJXSX3Xz.` l T.a L i M B A W.$X` y K D d b b B.U._.A G.E y ",
"= E.b r h J.0XOXP C D !.G r M 1.& & K.d H.3.y.w >.>.6.q.1XCXZXyXCXCXLXLXLXDXzXoXOXOXZ b M A b b y $XG.U.K.K M U.Z.G.[.U.l ) c J.",
") W.x h y _ 2.u D.) * ! ^.y ' K k x F 2.0.q.O.-XO.$.+.6 ;.9XyX7XyX2XmXyXyXyXFXcX8X6.7X0XL G.=.S W Z.C.N U.N.d C V N.. G.#XT.* J.",
"W s _ E.E W ' !.B.) h ' x T.E.X a v b ..X.O.>X>X%XX. .6 $.1Xq.1Xe.e.5X4X7.7XIXuX*.9.0.1.f N.S t V N.B A C $ l T.# }.t f A D.{ E ",
"T T = j ' c ' { K v D ! U o c R.v g =.%.:X:X,X,X>XO.1Xw.1X<Xq.w.1X4X4X1X1X7XGXBX6XyXBXyX_ M o + A.Y.C i L G.t C f x M i W & F V.",
"W I.` ) Z E W.h W.J.{ 1.@ } Z % # a 6X-X:X>X,X,X>X<X2X7X9XeXiXeXgXgXMXMXuXuXmXnX<X$.5 2.C B @ ) R (.M a L D.F.p i b ~.U.Z A r B.",
"L R.$X_.K.A A D.B K.T.& F.J.n h b _ 4X:X,X,X>X>X>X1X2Xv.M.k.3XiXdXjXNXSXDXPXCXtX,X<Xo.S [ $ v ! A z K.u L * I.J.T.n ` C M OXF.t ",
"a K t C.C.C d D.J._ [ y { n =.:.@ = ..:X:X:X%X;X<XeXM.3XpXpXpXSXPXSXSXSXPXUXLXBX,X,X<X$.3 2 2 H H H n b K ` # Q.] u _ x K K U.K.",
"P X W l W r y $ E.) !.g 2 < 4 4  .: , O.%.4.4.4.2XeXpXNXpXb.b.M.3XM.pXfXAXUXUXSX6X:X<X:.T Y 9 3 6 6 2 u ] { h ^.% X Q.W.H.. p R.",
") p $XP.x % G n ) ' '.; ~ 6 3 w >.1 1 q h.d.e <.2X3XNXpXb.m.SXpXM.jXDXjXjXDXPXDXmX<X:.z.n.n.z.^ w #.=.G OX% J.E.) h ` W Z [ $ 2.",
"U.l K.r b t F a h v b #.;.&.0 ( h.7 e e e 8 / l.iXv.jXM.b.jXLXPXPXUXPXAXfXjXDXvXkX7X>.f.f.n.@XoXz.l.0.,.1.+ /.y y s _. X_ ) Z [.",
"V.Y.X f I & P v L ^.2.e.3.y.y.u.u.y.e e 8 8 >.v.b.p.M.pXjXDXLXUXUXUXUXPXAXvXjXfXfXhXl.d.f.f.n.n.M.3X8XXX~.g W.) ~.` F.U.W.OX^.- ",
"d 2.' x Z _ N , 2 b e.2X2Xj.t.t.r.r.7 8 O *./ M.t.p.s.b.pXxXAXDXPXPXDXAXpXm.m.m.M.jX8Xl.x.n.@Xf.n.m.M.+XXXG `.B X [ V V.$ V.U.P ",
"t K _ ) a { Z.g ; 7X9XsXpXM.y.t.u.r.7 e *.<.v.m.p.p.i.i.i.s.p.p.g.g.b.a.s.a.a.s.m.pXkXXXz.f.x.f.j.s.m.M.M.0.2.y P ].W t - M V _ ",
"Y.A k [ . x N 2 &.6.+.>.@.@.7 7 r.y.e q *.>.M.p.i.p.i.s.i.i.i.i.a.i.i.i.a.a.a.a.a.m.fX8X<.( d.d.y.y.y.( >.*.J G =.K Z C.J.# Z.A ",
"N R B.R., ! H 2 6 4 4 4 < 4 : O 7 q +.+.>.v.b.p.p.s.s.s.i.i.i.a.i.a.a.a.s.a.a.a.a.m.pXjX7X,.3.^ 9 1 1 3 3 6 6 #.6 ~ H Z.L.K.C.i ",
"v y V P #.H +.#.&.6 +.+.6 6 4 O : < 4 ;.c.2Xh.j.k.b.k.k.b.g.k.k.b.b.k.b.k.b.b.k.k.b.v.gXyX9.9.~ 6 1 1 6 H &.&.;.:.&.&.] x 2 W ) ",
"G ) Z.% H &.:.&.:.&.-.&.&.+.< 9 #.5 $.w.1X7X9XyXeXyXeXyXuXuXyXuXuXMXMXmXgXMXgXCXMXkXCXCXCXCXyX7X0.1 1 +.&.-.:.:.5.:.:.] ` F Z P ",
"{ K ) [ H &.;.*.:.;.*.*.&.4 < ~ =.:.8.5XyXGXKXIXIXKXIXIXIXIXIXUXIXUXUXIXIXIXUXUXUXUXUXIXUXUXUXIXMX&.4 +.*.=.6.:.9.6.:.2.N A c h ",
"* - P I.~ &.*.;.*.-.;.+.6 < ; :.:.;.8.6XnXBXGXBXGXCXGXGXGXGXGXGXGXGXGXGXJXJXHXJXJXJXHXJXKXKXIXUXIXzX6 #.;.*.:.:.:.6.6.6.f ~.R Z ",
"V N 0X9.H &.&.*.&.&.+.4 < < , w.$.$.8.4X5XwXwXwX7XwXwXwXwXwXwXwXwXrXrXwXrXwXwXtXwXwXrXrXrXuXCXHXIXIXrXH &.:.:.:.:.6.6.:.v OXh v ",
"d $XN % 2 &. .#.&. .4 < < < e.5. .-.8.w.q.q.2.8.8.8.q.8.7.7.q.q.6.9.9.q.8.7.7.9.8.9.q.q.q.e.7XmXCXIXZX9.&.&.:.;.;.;.*.:.! $XA a ",
"C.t $ ' 2 6 6  .6 4 < < > &.5X.. .;.7.7.;.$.$.$.$.$.-.$.$.$.$. .$.$.$.$.$.$.$.$.+.$.&.$.#.-.5.7XmXHXUXrX&. .#.#.:.5.-.=.! E _ R.",
"B N.y n ; H ;.5 5 5 > : 5 4X#.4 -.9.2.4.4.o.o.O.O.O.o.o.o.O.O.o.o.o.o.O.O.O.O.o.O.o.o.X.X. .+.:.7XBXLXZX;.4 #.5.1X5X0.&.*.] x y ",
"B x W G =.1X5X4.$...D ..4.w.5 #.:.q.7.<X*X*X=X=X=X=X=X=X=X=X=X=X=X&X=X=X;X=X*X=X=X=X=X=X&XX.4.-.6.yXCXIXwX$.8.5XtXBXmX:.! @ = z ",
"M [  XU 2 rXyX4X8.4.4.$.4X&. .-.7.q.1X<X-X;X;X=X%X%X%X;X;X>X;X;X;X%X=X;X>X;X;X>X=X=X&X=X&XX.4.-.;.7XmXLXKX7XtXBXKXIXBX*.{ OXG E ",
". E.@ } ; 7XGXnX6X8.8.1Xq...$.7.9.1X6X-X=X;X;X>X;X%X%X>X>X;X>X;X;X;X%X;X;X>X>X;X>X;X*X-X;XO.%.5.+.6.wXCXIXCXBXKXIXGX7XH _ . g U.",
". 2.Q. X; H 7XuXBX6X4X4X#. .:.9.6.1X<X&X;X=X;X;X=X=X%X=X=X=X;X=X=X;X&X;X=X;X;X;X;X=X*X;X=X=XO.4.-.+.'.uXLXIXIXLXBX5X=.d { K ' F.",
"p M J.J.v < 6 1XwXrX7X-.4 -.7.7.8.1X&X&X=X&X-X&X&X&X&X&X&X=X=X=XO.O.%X&X=X=X*X&X&XO.O.*X=X=XX.%.5. .;.7XCXLXJXyXe.2.F.) ' h Y.N.",
"[ n _ . b [ - 4 9.7Xw.5 -.5.7.5.1X4.X.O.o.o.o.X.| | X.X.o.X.X.| | | X.X.X.X.X.| | | ..o.X.| | ..q. . .9.rXmXrX0.v  Xc F.* 2.$XlX",
"R.C ~.* a T.T.b G =.0.#.! P J ' 5 2 5 | 5 $.5 2 2 o 4  ., 5 > > : < H H 5 > 4 < - o D , > - o o #.=.5 2.0.`.!.- + P r D.X P v . ",
"u Z E.b C t Z OX[ p K v OX$ @ 0XK J.[ ~.F g M k A n K [ @ u T.U E.= x I Z j ) # T.C D.m A N.F g F % v K v ] L C g R.r i R.T.= Z "
};
