/* XPM */
static char *_b6ebac8e7354f4c933d19669e7f065f6e0Gv2Mk8NrJq3bm[] = {
/* columns rows colors chars-per-pixel */
"64 64 255 2 ",
"   c #020C01",
".  c #011402",
"X  c #001C00",
"o  c #101912",
"O  c #2C1714",
"+  c #012400",
"@  c #012C00",
"#  c #0B2804",
"$  c #0F2D0E",
"%  c #033500",
"&  c #0B3401",
"*  c #0A3B01",
"=  c #133C01",
"-  c #173905",
";  c #142B17",
":  c #183A18",
">  c #2B2B13",
",  c #231F24",
"<  c #192E2A",
"1  c #282827",
"2  c #342927",
"3  c #2A322D",
"4  c #373628",
"5  c #2A3339",
"6  c #373839",
"7  c #5F1F19",
"8  c #4C2A19",
"9  c #453529",
"0  c #563A2B",
"q  c #4A3632",
"w  c #6A352C",
"e  c #0D4200",
"r  c #094900",
"t  c #144401",
"y  c #1B4302",
"u  c #144B01",
"i  c #1B4C00",
"p  c #19460B",
"a  c #1B5703",
"s  c #1C5401",
"d  c #11530D",
"f  c #1B4615",
"g  c #244905",
"h  c #235301",
"j  c #2B5C02",
"k  c #285908",
"l  c #345903",
"z  c #274A16",
"x  c #334B10",
"c  c #2A5815",
"v  c #345A18",
"b  c #1B6501",
"n  c #2A6606",
"m  c #366707",
"M  c #2B7606",
"N  c #377505",
"B  c #2C6516",
"V  c #386718",
"C  c #3B7618",
"Z  c #17482D",
"A  c #284827",
"S  c #364A27",
"D  c #2A5623",
"F  c #375928",
"G  c #2B4F34",
"H  c #3A4839",
"J  c #395936",
"K  c #3A6725",
"L  c #3C7425",
"P  c #396635",
"I  c #386F33",
"U  c #465619",
"Y  c #456709",
"T  c #447604",
"R  c #456818",
"E  c #576F10",
"W  c #467819",
"Q  c #547B19",
"!  c #4C492B",
"~  c #435B29",
"^  c #46463A",
"/  c #584638",
"(  c #455937",
")  c #66493A",
"_  c #704F37",
"`  c #466A28",
"'  c #487827",
"]  c #547A28",
"[  c #476835",
"{  c #556A35",
"}  c #4B7736",
"|  c #567935",
" . c #657432",
".. c #1C2950",
"X. c #393C42",
"o. c #2A3354",
"O. c #2C3666",
"+. c #27356A",
"@. c #293777",
"#. c #453D45",
"$. c #773E41",
"%. c #3B4648",
"&. c #375349",
"*. c #3C4556",
"=. c #325C5E",
"-. c #334B71",
";. c #464848",
":. c #4A544A",
">. c #555049",
",. c #454B56",
"<. c #4B5457",
"1. c #565658",
"2. c #6C524B",
"3. c #6A5649",
"4. c #745849",
"5. c #516D4F",
"6. c #577646",
"7. c #6D6D51",
"8. c #4F5666",
"9. c #615E62",
"0. c #5C6669",
"q. c #576A74",
"w. c #646969",
"e. c #707267",
"r. c #646C75",
"t. c #6A7479",
"y. c #73787B",
"u. c #9B2025",
"i. c #922C2C",
"p. c #EA1E2A",
"a. c #E91D32",
"s. c #D0262F",
"d. c #EA242A",
"f. c #E92737",
"g. c #8B4D32",
"h. c #B44E3F",
"j. c #AD5B35",
"k. c #D23B47",
"l. c #E63E49",
"z. c #854D42",
"x. c #B94B51",
"c. c #866856",
"v. c #937155",
"b. c #AA7651",
"n. c #907668",
"m. c #AC756F",
"M. c #CB4C51",
"N. c #DC6856",
"B. c #CF7171",
"V. c #388208",
"C. c #488603",
"Z. c #53910D",
"A. c #488719",
"S. c #558719",
"D. c #689211",
"F. c #64A611",
"G. c #4C8527",
"H. c #558828",
"J. c #599529",
"K. c #4C8533",
"L. c #578637",
"P. c #5A9337",
"I. c #6B8F2C",
"U. c #669929",
"Y. c #658A39",
"T. c #679938",
"R. c #6EA833",
"E. c #598745",
"W. c #598E4D",
"Q. c #6B8C4D",
"!. c #699647",
"~. c #6B9755",
"^. c #749858",
"/. c #6CA449",
"(. c #76A848",
"). c #77A756",
"_. c #74B051",
"`. c #74926A",
"'. c #76A967",
"]. c #84993D",
"[. c #9DDD2B",
"{. c #898E53",
"}. c #8AB157",
"|. c #8F8C70",
" X c #B08C73",
".X c #8BB16C",
"XX c #AEA167",
"oX c #DA846C",
"OX c #CC8C79",
"+X c #A0D05F",
"@X c #93C873",
"#X c #1D3A89",
"$X c #273989",
"%X c #273C94",
"&X c #284398",
"*X c #2C5192",
"=X c #265897",
"-X c #2850A3",
";X c #3169B0",
":X c #4D6890",
">X c #707886",
",X c #6273AC",
"<X c #AE7681",
"1X c #DB7981",
"2X c #798790",
"3X c #7A8CAC",
"4X c #8D9092",
"5X c #B79686",
"6X c #AE9291",
"7X c #8EAE87",
"8X c #B6A892",
"9X c #8B9BA7",
"0X c #949DA6",
"qX c #95A2AA",
"wX c #91A6A8",
"eX c #AEAAAE",
"rX c #ABB3B8",
"tX c #B7B7BA",
"yX c #CC938C",
"uX c #E69490",
"iX c #CBAB95",
"pX c #C7A798",
"aX c #D6AA98",
"sX c #E8A69B",
"dX c #D8B7A8",
"fX c #CCB3B0",
"gX c #E9B1AB",
"hX c #E5BAAA",
"jX c #ACCD9C",
"kX c #D7C5B5",
"lX c #E9C7B7",
"zX c #EDCDB9",
"xX c #F2CCBC",
"cX c #CEF0A6",
"vX c #92A3C5",
"bX c #AFB7C5",
"nX c #C6B9C1",
"mX c #EBBBC6",
"MX c #BBC8D1",
"NX c #BCEFCE",
"BX c #C7C9CE",
"VX c #C8D4D8",
"CX c #D9D8D9",
"ZX c #F4D5C7",
"AX c #F0D1CA",
"SX c #EEE6D8",
"DX c #F2E2D9",
"FX c #CDDAE3",
"GX c #D4DDE4",
"HX c #D9E4E8",
"JX c #DFEDF2",
"KX c #E9E9EA",
"LX c #F5EBEB",
"PX c #EBF5F7",
"IX c #F4F8F8",
/* pixels */
"W m U.Q p W h y @ X !.] i | n u } '.n N J._.% * m B e G.% a H.v ` 2 2 | - D F.u W `.I r M C.R Y x X XXQ.E }.jX .U # ` { l {.a K ",
"H.j H.m }.s Y.+ i z c I.~.P.C C r r M J.P.L Q c j : r Z.s 4 ^ #.6 6 6 6 H ^ I.!.` J '.V.i R.- l }.I.T.R x }.Y.  > # x l m C.K.} ",
"c c & 6.P W._.f ` X z I.f ' P.y @ % C H.B c C y k $ z Z.:.1.1.:.6 >.3 %.6 ;.X.^ ! e.d b ' l cX+X+XT..XQ [.].S.cXI..X.X| ` ' k !.",
"C ] ] k K r d Z @ : 6.' w.= v .X| K }.m I } /.V y &.F Y.:.1.:.:.6 ;.6 q 2 ,.;.%.4 e.f a ' {.Q.H.I.T z  .[.}.] # {.` > g S.T r L.",
"- }.[.'.`.] N K f % L 7XW.@ # ` : D !.[ m E.L.N N K.- :.>.>.^ q 2 q / 9 9 q ;.q q H 6 ~ h s B V.N Q.`.S.[.{.+X> E Q.N Z n h V I.",
"l = c H.[ X * t W..XD y p e { ~.&.W.L.= j d C R.R.@Xz 9 / ) 2.2.4.4.3.2.2.>.^ 4 2 3 ; > @ T.n N H. .7.h D..X+X}.>.- W C.' - m m ",
"l - # i _.`.K h n 5.+ k V + {.L.: ~.Y.  T.I D C d ` ! q 7.{.6XpXdXdXdXdXdX8X X3.q 6 2 > ' W V.V ).V F x l g @XZ.F.E V i +X+XH.T ",
"S T.c @ U.j g l L.E.& l ' W.^.% P } | Q.G.z f t & F 9 3.tXZXAXhXlXzXlXxXZXlXlXfX6Xw.7.{ W Q r - x N I   E J.'.% Q o x X l 2XR.C.",
"~ I.- = N - ` z ^.V h } K C }.m P '.g   % `.S l R 7./ 7XCXSXlXlXxXzXlXxXzXZXzXlXdXn.3.[ !.G.M } Y r K.x Q }.E g R.- T (.+XW._.M ",
"Y . g Y.& < l X ~.j e ' ).A.H.S..Xn v v m c 6.Y Q 3.n.kXDXAXlXlXlXxXxXxXzXzXzXlXkX5Xc.S L n b % m t @ U.}.n O I.U.j K Q !.r I P.",
"E - Y E   8.E.y E./.A.h C n T Z.W.u Q - }.F ] S.T.c.8XkXCXZXZXzXxXxXxXxXxXZXZXlXkXiX|.6.I c u '.N | Q.n Z.S.E U.k Z.N F.(.a 2Xb ",
"0.{ T - # { & C m ' ' N C.n D.T K W Q | R @ m C.J. XiXkXAXpX6X5XaXhXlXzXkXlXkXlXlXiX X|.W.D ` r Z.{ z F.C.T.} NXB a Y 8X` G.7Xm ",
"@X- .X  c l n h L.v g W.P.r r [.V.a }.N A.B _.b /.8XiX8Xn.) 9 8 _  XaX X_ / 4.n.iXOX5XQ.] G.K.K.P.G.G.K.j H.R.m ~ 6.+ NX] l 5.X ",
"@X| 7XQ.f !.S.n ` p } K n C r d U.B M J.h % W.C Y.5XiX X) / 0 8 ) 5XkXm.0 ! 3.) v. X5X{.j a k e P.e E.k .X}.W g R  .).' W R Q.@ ",
"m = @ & - @ ] !.* z p * G.G.K H.r = u B _.P.' P.].5XiX Xn.n.7.c.n.aXlXyXn.7.2.2.n.OXXXXXB D !.a n k K.t | | m Y.-  .jXC P.W ^.z ",
"T.' @ I @ ~.L.` c v ` = }.n % u ' v + r C C u z XXpXkXlXhXdXaXpXpXxXlXdXhXdXpXpXiXiXiX.X+ + % W '.k L.Q.^.- @ (.l I.T.V.L ' ] i ",
"& i z K c ' } X K Q.' ^.i t /.V W.# F } % r I { aXdXlXZXzXlXlXhXdXAXAXgXhXxXxXzXzXhXiXQ.p d P.n C V ).' - g ` Y.W T.H.V.G./.U.T ",
"K B B K c a v + } t C k = h T.e F : X @ 7X+X!.v.aXpXdXdXdXdXhXhX5X Xm.5XlXZXZXxXAXlXiX7.' r /.u r r K.E.V | ] i l Y b G.n G.S.R.",
"B G.' V i B } ^.P.K.C C !.).F.B 6.[ S # c Z.K v.yXiXpXOXOXaXaXaXm.n.c.n.dXAXxXlXdXiX8X}.G.a C u _.M /.n (.L.k g | L.k V.m D.T }.",
"T.S.s c c s y X u G.W r ' B b B D ` [ $ @ S.K.{.sXaX Xb.v. XaXaX X4.3. XlXZXhXyXOXXX Xi A.N L.r C G.C m _.W !.v v t B a (.+XU.J.",
"k L V } @ .X[ ^.g 6.. X D h ).g A.E.6.$ z g : Q.sX X Xb.b.yXaXn.) w q ) |.aXaX X X Xv.P x - m m * P.N C.N I W m U.k b n H.j ].M ",
"r * % U.).~.` c : F & Y.i L | v h V f + z | n U v.v.b.{.|.iX2.9 9 0 0 q 0 _ yX X Xb.7.V & K r J.A.m G.c u r h H.V._.L K.i W F.V.",
"X z J.T m E.G.W.$ ~ l Z.i f X & k ).z + c `.I.+ `.E _ n. X|.O O O O O O O > v.OX X4.{ F W.D n d % ' n j B W.B u J.M C r V.R.D.b ",
"6.g * h V % t '.+ ` l g | G : F + H.!.y + 6.= & m J.w 2.|.v.8 n.m.m.<X5X X! _ n.c.) F u `.I W.L R.P.P . t j K @X* M r r G.U.v n ",
"| | z - y m c T.v v # S J A : z - L.' & z 6.: H.Z.] ! 9 3.3.)  Xc.>.0 c.6Xc._ 3./ 8 U.G.U.M r B N a 6.A B Z.^.= C W W W R.Y '.v ",
"] R . < D E k l i g - 2X5.J   A @ t ).' z F /.s n &  .O 4 q 9 4.>.8 8 q n.3.4 4 2 U R ].r G.n n u % e N G..X  z ` + - !.+Xl 6.^.",
"Y.v [ G + - ] ` # - S Q.F i g x f p V k x D A.C @ K.] > O 9 2 4 9 9 2 2 ! 9 1 1 > ^.D.] P.B L ' /.t u K /.A.W.z ] G.u K._.R..X.X",
"` K | { ^.{ Q [ o X x H.i W S.c + & } R = K b n M m ] H > > , 1 O , O > 2 O , > / U # Q C 6.H.p . # K.T.r * D W.% u r a (.a 6. .",
"G.V T..XR ~ $ F n } m o x 5.c K.7XP.V L.& S e C v % P 6.= S O , O o   o o O O  .S.Q - F 5.z @ A.n C.` D * : Z.W.% N % V C.Z.P.t ",
"n j V g | -   c u V m X % L A ' N b d I - ` c L.' % t '.] Q.) 5 , o   o > x R j j g v ` ' R : K C u m u W J.V.!.G.!.A s F.V.e C ",
"K E.a z .X6.Q.l c W ~.| .XH.T.p } r G.W g $ z [ ` = @ ). . XCXJXCXnXeX0XeXS v % V v c k S.+Xf + @ y m U.T h N H.S./.6.r C.P.] /.",
"z 6.% K | } - ] p j e.' p n K k r B b d ~.W : # ^.c v 7.dXIXLXLXKXKXKXeX6X|.Y.c g } z V n U.U.y p z J.Z.m . S.K V Z.t B U.T h % ",
"& E.D K K E.. ] + c ; | & h f n A.K.L K B k e.D # ` 9.AXKXLXCXCXVXGXKX0X6Xe.Y.] d K.d I a n N W !.@X] t K A a v n C././.N H.W = ",
"= Q.c e g L.7X.XK v A ^.F r m 6.* e P.a K.} & p } 8XDXKXHXKXBXBXeXCXBXy.e.9.7.}.@X'.V c n N c d r @XU.T.T.B j P.J.H.'.U.a } l L.",
"' E.k g t ' 5.p H.' y F ^.e [ V h c D & % a & D `.SXeXeXeXtX4XeX4XeX6X<.5 #.X.+.-.&.d Z B G.=.D G.A.A.n /.C s C N C X J.+XE.& Y.",
"W h ` !.R W J ~.C.K g ( k W.Q.X p z V @ W.K G P 7XPX0Xw.>X4Xt.>X>Xr.>X,.5 o.+.@.=X=X=X..< C Z r N C.n C B % h K.@ [.r a N G.| R ",
"Y l - x ` l (  .F x A ~ U o l E.A A 6.` .X`.w.`.MXFX4X2X>X2X2Xt.>X>X>X>Xy.:X@.=X;X;X-X=X-.P o # D.R.B u ' J.r B d k n u ' * D Z.",
"Q T.] ` B ' Q.h !.W.| 6.# ] ` & z ( |.`.:.&.5 :XvXtXrXrXnXmXfXfX6X6X6X6X4X<X:X=X;X;X;X=X*X`.: ` W R.n p L G.H.t u c ~.T.V C e C.",
"C W.@X}.P.C C G.C P.E.* | L.` ( 5.`.|.`.&.*.=X;XwXVXLXSXAXmXsXaX1X1Xx.B.B.<X>X;X-X=X;X;X=Xq.:.{ T h L.y K t Y.L.E.v } V n .XH.r ",
"f K r A.A.B a G.G.L } t L.V 1.<.%.%.^ 6 &.:X;X,XBXLXLXLXAXmXDXLXAXuXuXuX1X1X<X:X=X#X&X=X=XZ 3 S [ z c c V | @ ^.| y ' k K K T.P.",
"I X W h C r t @ !.` Q.z - 3 6 6 3 4 w 0 3.:X=X9XAXIXIXZXsXuXoXuXB.M.M.uXmXuX1X<X8.*.8.-.-.< , 6 4 > ; x | } l ^.+ X !.!.| X i W.",
"` y @XI.m % F v ~ [ `.: 5.H H ! 0 v.[.N.v.1.q.tXDXLXDXsXgXZXgXB.sXAXM.M.sXZXyX<X2.$.z.z.0 1 , 9.^ S ( S ^.&  .E.` g ] W V | % 5.",
"T.n J.e B r F p g z z z { e.n.v.oXoXb.j.j.2.4XlXxXDXgXgXZXIXLXLXLXLXgXM.m.sXm.B.c./ 7 w w 7 7 i._ ) ! ( 6.# ~.t y h _.}.W [ V '.",
"Z.R.X d I % P z K ~.5.7.e.yX1XB.b.N.j.j.w n.dXsXuXxXxXZXLXIXIXIXPXKXKXgXuXB.k.x.m.2.8 8 w w i.u.u.i.w 7.`.G T.' ~.' H.T.!..X^.$ ",
"n 5.} k V W m < Z ~ ;.|.OXN.N.N.j.oXN.b.v.5XgXoXN.l.N.sXZXDXLXLXLXAXgX1Xl.l.s.s.N.2.) 2 8 7 u.u.u.u.x.B.4X( `.m @ L N Z.% Z.T.P ",
"% K ` K p | S.A :.e.e.m.B.N.l.h.j.{.j.v.{.gXuXl.f.d.f.f.a.l.k.k.k.k.a.a.a.p.s.s.k.m.2.>.7 7 7 u.u.i.x.sXpXn.y.D 5.`.W r : n m ' ",
"R.C h } + x V ^ 9.:.>.$.$.i.i.g.g.g._ 7.pXsXN.l.f.d.d.p.p.p.p.s.p.p.p.a.a.a.a.s.s.1X2.>.8 $.i.u.7 7 ) ) 2.>.9.( &.V V S.K.@ Z.C ",
"m T C.W.< ( ;.X.X.6 6 6 6 2 > 8 0 7.3.4XdXuXl.d.d.d.d.p.d.d.p.p.p.p.a.a.f.a.f.s.s.M.m.9.q #.#.7 7 2 6 2 5 2 5 5 3 4 S H.I.Y.A.d ",
"z e N P &.:.;.1.;.<.;.6 X.2 1 4 ^ w.w.rXfXm.M.x.M.M.M.M.M.x.M.k.x.k.x.k.k.x.x.h.i.x.<Xn.1...1 1 O 2 X.X.#.#.X.#.H X.H [ x A W [ ",
"K ` Q & :.1.1.9.1.1.<.;.;.2 2 e.4XrXBXVXBXnXfXBXBXtXfXtXnXbXbXfXfXeXbXeXeXeXeXeXeX0X4X>Xt.*.< ^ 2 , #.,.>.,.;.<.;.1.;.( ' D v K ",
"H.J ' { 1.1.9.w.1.9.>.>.;.3 ;.kXPXPXIXIXIXIXIXIXIXIXIXIXIXPXPXIXPXPXPXPXPXPXPXPXPXJXFXbX4Xq.<.:.^ , 5 #.,.>.>.1.>.1.;.^ K V l g ",
"& f [ 6.9.9.9.1.1.1.:.<.#.;.tXPXIXPXJXKXKXGXHXGXHXFXHXGXGXFXGXFXFXFXFXFXFXVXVXVXVXMXbXbX3Xq.<.<.1., 2 5 #.>.,.,.1.;.;.^ 5./.T V ",
"N m 7Xw.1.1.9.1.1.1.>.,.X.0XPXPXFXBXrXqX0X0XqXqXwX9X0XqX0XqXwXwXwX9X9X9X9X9X9X9X9X9X9X2X2Xq.,.%.y.1 1 3 5 #.;.;.:.;.;.H 9..Xl f ",
"a @Xm 4 1.1.1.<.>.1.;.;.w.CXPXVXbX4Xy.t.r.r.r.r.w.q.q.q.w.w.w.0.0.r.w.0.0.r.r.q.0.0.0.r.t.q.,.X.8.y., 1 1 3 X.X.;.q ;.2 e.@XC p ",
"A.r % ( :.;.1.<.;.X.X.;.qXPXCXrX4X9.;.*.,.#.;.#.*.*.*.*.*.*.*.*.*.*.,.*.,.*.,.*.*.*.=.<.0.0.1.X.6 2X;.< 1 , 5 X.X.6 6 1 e.R ' E.",
"M V.t J ;.t.2X2X8.*.5 1.CXKXMX4X1.;.o...+.+.@.O.+.+.@.@.+.+.+.+.+.@.+.O.+.+.@.@.@.+.+.8.<.9.0.,.5 *.2X3 , < 5 5 o.,.6 , 9.] c t ",
"M c W S <.bXMXrX2Xq.*.0XPXBXeXw.#.q.+.$X$X%X%X%X%X%X&X&X%X%X%X%X%X%X%X%X%X%X%X#X%X%X%X*X:X9.w.8.%.5 t.8.5 5 %.*.<.2Xy.1 1.& p k ",
"k ' .X! <.MXPXGXMXwX4XHXHXMX4X<.,.8.+.$X%X#X%X%X&X-X&X&X%X%X%X%X&X&X&X&X-X#X#X#X&X%X%X%X:X>Xr.r.<.X.,.>X8.=.8.q.2XbX0X1 :.{.K Y ",
". Y..  .6 4XFXPXJXMXVXPXCX0X1.;.8.O.$X%X%X%X%X-X&X-X-X&X&X$X%X&X-X&X&X-X&X#X#X%X-X&X&X%X*X,X>X9.0.;.5 t.>X8.q.3XbXVX4X1 ;.X : !.",
". 5.].}.4 1.rXMXPXPXPXPXCX4X1.r.t.$X9XvX,X%X%X%X&X&X%X&X&X$X$X%X&X&X&X&X%X%X#X%X%X-X&X,X9XbX9X>X<Xr.q.4X9X2XqXMXbXbX*.3 :.` J J.",
"i n L.P.x 2 1.tXGXPXPXKXCXtXeXrXbXvXbX,X,X@.@.$X%X$X$X$X$X$X@.$X$X%X$X%X#X$X@.$X&X&X#X,X,XbXBXMXrXbXtXrXrXCXCXCXtX%.1 ^ { y R.V.",
"| c } . c I ; 5.`.rXtXeXy.;.w.y.*.*.@.O.,.o.......O...O.O.o.......+.+.+.+.+.......+.+.-.@.8.:X2X>X>X0.0.1.>X0Xy.;.H x H.& 6.@XjX",
"!.v Q.e f E.E.c F 5.e.w.,.,.1.5 o o < o 1 ;.$ z f o 2 %.; S $ ; 3 A G &.%.; 3 G f < &.< A < < <.t.<.0.0.w.t.w.: # P e G.X P z . ",
"t V W.c c u V .X' g F z `.< ; .XF E.} ^.J : m a W V ` { # g E.U Q.- k L v x L % P.C K.M V.A.D z P A F 5.J 6.C c f W.* r !.E.- V "
};
