/* XPM */
static char *_81f9f45c2d44890b5fb8dbeba1b6f7bHYFpmmrYtu99505Q[] = {
/* columns rows colors chars-per-pixel */
"64 64 254 2 ",
"   c black",
".  c #000D00",
"X  c #001400",
"o  c #001C00",
"O  c #071806",
"+  c #121F0B",
"@  c #012400",
"#  c #092605",
"$  c #022C00",
"%  c #0A2B01",
"&  c #142A02",
"*  c #033400",
"=  c #0B3301",
"-  c #033B00",
";  c #0C3A00",
":  c #0B390A",
">  c #113301",
",  c #133C01",
"<  c #1B3D02",
"1  c #163909",
"2  c #0C3717",
"3  c #173A16",
"4  c #233903",
"5  c #2B3814",
"6  c #163424",
"7  c #263D23",
"8  c #044500",
"9  c #0D4300",
"0  c #0C4B00",
"q  c #144301",
"w  c #1B4302",
"e  c #144B01",
"r  c #1B4C01",
"t  c #1B440C",
"y  c #15480C",
"u  c #1D4B0B",
"i  c #045400",
"p  c #145300",
"a  c #1B5300",
"s  c #1C5B01",
"d  c #1C520B",
"f  c #1E5C09",
"g  c #0C4D13",
"h  c #194615",
"j  c #1C5416",
"k  c #224302",
"l  c #224C02",
"z  c #2B4905",
"x  c #22440C",
"c  c #234B0C",
"v  c #354C09",
"b  c #235302",
"n  c #2D5403",
"m  c #235B02",
"M  c #2C5C03",
"N  c #23530B",
"B  c #2B530D",
"V  c #255C0C",
"C  c #2B5C0C",
"Z  c #315401",
"A  c #335C01",
"S  c #325D0B",
"D  c #395909",
"F  c #254C14",
"G  c #2B4C14",
"H  c #264919",
"J  c #334D17",
"K  c #245312",
"L  c #2B5513",
"P  c #2C5C14",
"I  c #2C541B",
"U  c #275918",
"Y  c #335B14",
"T  c #365819",
"R  c #335C1B",
"E  c #3C5E1C",
"W  c #1B6300",
"Q  c #137200",
"!  c #2B6301",
"~  c #2D6B02",
"^  c #2C620C",
"/  c #286809",
"(  c #336B01",
")  c #396805",
"_  c #33640C",
"`  c #3A640B",
"'  c #346A0B",
"]  c #2D7407",
"[  c #387506",
"{  c #2C6516",
"}  c #356314",
"|  c #346B13",
" . c #3C6C13",
".. c #376718",
"X. c #34641C",
"o. c #3A641C",
"O. c #3D6B1D",
"+. c #2E7112",
"@. c #3C7213",
"#. c #3C731A",
"$. c #397718",
"%. c #1A462B",
"&. c #284924",
"*. c #304D2E",
"=. c #2B5624",
"-. c #335B24",
";. c #375A27",
":. c #2C5438",
">. c #385936",
",. c #2C6229",
"<. c #346324",
"1. c #3D6524",
"2. c #356826",
"3. c #3C6B24",
"4. c #3B642B",
"5. c #3C6B2A",
"6. c #3D7324",
"7. c #3A7628",
"8. c #396536",
"9. c #3C7335",
"0. c #434A12",
"q. c #425817",
"w. c #446708",
"e. c #457807",
"r. c #466919",
"t. c #437B14",
"y. c #477718",
"u. c #427A1B",
"i. c #577210",
"p. c #527B18",
"a. c #415C28",
"s. c #475A32",
"d. c #436C24",
"f. c #446C2C",
"g. c #486828",
"h. c #526D2A",
"j. c #447423",
"k. c #4B7424",
"l. c #4B7D24",
"z. c #44722C",
"x. c #477828",
"c. c #447B2C",
"v. c #4B7B2B",
"b. c #557928",
"n. c #476736",
"m. c #446B33",
"M. c #536A39",
"N. c #447333",
"B. c #4A7333",
"V. c #4C7A33",
"C. c #45743A",
"Z. c #4C753A",
"A. c #4D7C3C",
"S. c #527B33",
"D. c #557938",
"F. c #647532",
"G. c #3A5B40",
"H. c #3C684B",
"J. c #4B6D4E",
"K. c #4C7746",
"L. c #567947",
"P. c #567A56",
"I. c #627946",
"U. c #687D55",
"Y. c #627768",
"T. c #3B8108",
"R. c #398416",
"E. c #478606",
"W. c #4F9205",
"Q. c #49861A",
"!. c #558717",
"~. c #4B921B",
"^. c #589416",
"/. c #688F14",
"(. c #6A9A19",
"). c #5EA30E",
"_. c #65B309",
"`. c #4B8325",
"'. c #4A8628",
"]. c #53842C",
"[. c #578929",
"{. c #4D962B",
"}. c #599428",
"|. c #4D8534",
" X c #538332",
".X c #5B8434",
"XX c #518A34",
"oX c #58883A",
"OX c #589435",
"+X c #5C943B",
"@X c #648E27",
"#X c #659829",
"$X c #658939",
"%X c #679938",
"&X c #749332",
"*X c #6AA727",
"=X c #6AA437",
"-X c #75AE31",
";X c #76A939",
":X c #5B8444",
">X c #588747",
",X c #528948",
"<X c #5D9443",
"1X c #5D9C49",
"2X c #5B8A52",
"3X c #638846",
"4X c #638C44",
"5X c #669647",
"6X c #729847",
"7X c #678956",
"8X c #738C52",
"9X c #6A9853",
"0X c #6B945A",
"qX c #749757",
"wX c #5DA050",
"eX c #6AA446",
"rX c #76A84A",
"tX c #7CB24C",
"yX c #6BA458",
"uX c #78A756",
"iX c #76B755",
"pX c #5E8461",
"aX c #6C9864",
"sX c #789765",
"dX c #75906D",
"fX c #6DA565",
"gX c #7BA767",
"hX c #87A93B",
"jX c #8ECB3F",
"kX c #8AAC5A",
"lX c #86B75D",
"zX c #91B654",
"xX c #A2BA58",
"cX c #829A67",
"vX c #87A867",
"bX c #85B667",
"nX c #88B777",
"mX c #93B572",
"MX c #91C955",
"NX c #A5C952",
"BX c #8CC76B",
"VX c #96C575",
"CX c #95CB70",
"ZX c #A2C774",
"AX c #ADEA68",
"SX c #738A80",
"DX c #86AA87",
"FX c #91B989",
"GX c #98C687",
"HX c #AED493",
"JX c #B1E1A1",
"KX c #C9F8B0",
"LX c #BCEFCE",
"PX c #D0CCCC",
/* pixels */
"y.! %X!.r y.l w @ @ 4X].r ].' e v.bX~ $.[.iX* ; ( 3.9 `.- a [.M $.$ o oX$ j ).a y.dX9.i ] W.r.w.Z # mX$Xw.zXHX$Xq.+ h.h.v qXb 4.",
"[.M [.) lXa $X$ l x Y [.qXoX@.#.8 0 ~ {.{.7.Q.L M 2 9 ^.e $ $ }.$.h > =Xm $ _.rXr.>.fX] a &X4 A kX$X&Xr.k zXU.. & + v D ) W.c.A.",
"L Y % L.8.PXPXPXPXPXPXPXPXPXPXPXPXPXPXPXPXPXPXPXPXPXPXPXPXPXPXPXPXPXPXPXPXPXPXPXPXPXPXPXPXPXPXPXPXPXPXPXPXPXPXPXPXPXPXPXj.j.^ 5X",
"@.].k.n ..PXPXPXPXPXPXPXPXPXPXPXPXPXPXPXPXPXPXPXPXPXPXPXPXPXPXPXPXPXPXPXPXPXPXPXPXPXPXPXPXPXPXPXPXPXPXPXPXPXPXPXPXPXPXPX!.e.e S.",
"w kXjXuXdXPXPXPXPXPXPXPXPXPXPXPXPXPXPXPXPXPXPXPXPXPXPXPXPXPXPXPXPXPXPXPXPXPXPXPXPXPXPXPXPXPXPXPXPXPXPXPXPXPXPXPXPXPXPXPXV l } $X",
"A , V |.C.PXPXPXPXnXI t d PXM.6X:.9X X  PXp 6.=X=XVXd , m.X PXW.e 7.E.j 0 +.4.gXo nXF c $ %X/ [ PX$XU.b ).kXMXPXPXPXPXPXb.k [ ) ",
"D 1 @ r lXPXPXPXPXK.@ M  .@ PX X6 0X$X. PXPX,.@.0 f.N.y.].y '.PX+XeXs d 1Xc.c 1 t HX3.; `.t.R.PXPX` ;.J v l CXPXPXPXPXPXNXNX!.[ ",
"J &XL $ #XPXPXPXPXPX= C j.7XPX$ 8.V.D.7Xk.j PXq , ;.E [.}.wXQ.).PXs [ m ,Xv.<.sX,X0XHXM y.u.i PX5 [ 9.. i.[.PXPXp.PXPXPXA SXrXE.",
"g.@Xw 9 [ PXPXPXaXPXb B.f.@.kXPX8.gXl . * aXPXv r.cX+ w.#X+.- m PX7.( - <.e.-.I , <.oXe 5X'.PXM.q.0 |.v i.BXPXPX-XPXPXPXMX2XyXT.",
"w.X 4 $X= PXPXPXaXPXPXz.yX!.!.PXnXY S J ` I 3XPXi.M.& MX!.$ K.- PX5.OX^.K s fXA.C.B.5X* 6.V PX= ) q * #XzX' PXPX@XPXPXPX1Xi 2.+X",
"i.4 q.i.. PXPXPXoXeXPXPXPXPXPXPXPXPXPXPXPXPXPXPXPXPXPXPXPXPXPXPXPXPXPXPXPXPXPXPXPXPXPXPXPXPXPXPXPXPXPXPXPXPXPX@XB PXPXPXrXW DXa ",
"Y.s.e.4 # PXPXPX` v.PXPXE.' ^.e.PXy.p.D.w.$ ) E.}.PXg 7.9 1 o.  @.3 PXs %.lXJ 5 ; m.j fX,XPXg.8 W.D.H _.T.PXPXLX+.PXPXPXg.l.DXS ",
"FXw gXX L PXPXPX XR PXPXOX0 0 MXPXs lX( !.U iXW OX7.PX,Xk     a XX9.9 PX* k.M.mX:XY b.[.`.PXoX'.+X'.x.'.A PX=X) r.PXPXPXb.Z P.O ",
"ZXS.FX7Xc PXPXPXj.u B.PX{ +.p p PXPX+.^.s * 1X$.R.p { PX  o.v.N 0 7.e PX= 1.4 4 uX$XS $XC PXm ; +X- +XY PXPXt.r r.PXPXPXk.w.7X$ ",
") ; $ = 1 PXPXPX= F w PXPX'...[.e PXe +.tXoXc.+XR.+XOXPX* L I @ { m x.PXU A.s.x uX[. .kXX.PX5Xa M V V.q PXPX@..X4 PXPXPX+Xu.8XL ",
"%Xj.$ m.$ PXPXPXPXR f.PXPX! PXPXPXPXPXPXPXPXPXPXPXPXPXPXPXPXPXm.f.* ..PXU ,.5 q.^ rXMX4X@ PX* u.iXC oX4XPX> $ PXZ PXPXPX6.j.b.e ",
"; u F <.N PXPXPXPXPXPXPXPXPXrXX.7X= PXN.* i 4.@ y.- b { PX'.&.PXPXPXPXPXPXPXPXPXPXPXPXPXPXPXPXPXPXPXPXPXPXPXPXPXPXPXPXPX$.eX%Xe.",
"<.P <.X.P PXPXPXv.q PX^ PXPX}.9 ;.1 PX@ VXBX2Xd O.u.c } PX0 K.4.I $ < PX^ m h.X | BX' q PXe eXe 9 9 |.PXPXPXV.PXZ PXPXPX! [.!.;X",
"| l.c.2.e PXPXPXoXXXPX .5XPXPX2.K.m.PXPXU E.3.e 5XB.F q #.PXy N.o G c k.PXq z 4XyXf +XuXPXs #.p iX+.eXPXPXPXPXPXb.PXPXPX[ @Xe.tX",
"=X!.a C P PXPXPXe '.PX0 x.PXPX^ *.f.n.PX$ ~.|.e N.P.H sXe PXa ; % m.x k PXMXvXa U { #.0 PX[ OX8 +.'.PXPXPXt.PXY Y PXPXPX;XxX#X#X",
"m 7.<.V.$ PXPXPXG L.PXX U PXPXl y.oXJ.: PXz 2 ( -X* 8.1., P PX@ |.tXL.%XPXe.d a / ! ! 8.PX4 ~ ( ; oXPXPXPX9.PX` %XPXPXPX].A hXQ ",
"q ; * #XuXPXPXPX3 ;.> PXr 3.PXPXM ..H @ PXD.M N t r A yXFX4.PXL.c.OX;.b.PXOX2Xu./ ] 8.X.PXg.; OX!.( PXPXe PXPX'.$.PXPXPXe t.(.T.",
"o K }.e.( PXPXPX# 4.) PXr h PXPXM uXK @ PXPXPXPXPXPXPXPXPXPXPXPXPXPXPXPXPXPXPXPXPXPX@.>.PX=./ d * PXPXPX{ PX{ p {.PXPXPXR.;X/.W ",
"L.c = m  .PXPXPX@ g.PXz Z.*.PXPXPXPXPXPX@ PX, ; _ }.uXh N.~ OXPX- s B q m PX# MXu s PXPXPXPXPXPXPXPXPXPXPXPXPXPX- PXPXPXQ.*XE ! ",
"b.D.G > , PXPXPXPXPXPXPXPXPXPXPXPX Xx.= F PXPX[.^.k.2X$ | @.j.a PX2.].O.C PX@Xr.!.g.(.PXPX^ g f PXPXPX&.P PX8XPXPXPXPXPX;Xe.cXY ",
"b.g.X 6 ;.PXPXPXk 4 PXdXJ.>.X PXPXPXuXv.G >.PXa ! = 0Xe.w.3 oXu.PX0 %X< * PXi.!.4 &Xr.PXe '.~ { PXPX; [ '.PXX z PXPXPXPXCXA L.qX",
"$XL n.*.@ PXPXPX# 1 PX7XE c l L PXPXO.n N ;.~.PX$ A.V.w k H Z.@.PXj [.l X PXZ v $XcX/.PX%X{ 5.j.PXq t 5.yXPX2XI PXPXPXPXrXtXgXvX",
"f.g.S.M.qXPXPXPX+ O PX[.r l.p.L PXPXV.r., ;.! PXPX( D.:.4 @XZ.$ V PXMX< $ PXPXq.I.q.& PXo.oX`.u PX* '.#X0 PX=.PXPXPXPXPXrXb L.@X",
"`.| 6XmXE PXPXPXM C.PX# K K.L  XPXPX' XXPXPXPXPXPXPXPXPXPXPXPXPXPXPXPXPXPXPXPXPXPXPXPXPXPXPXPXPXPXE.6.&.2 PXW.PX- PXPXPXT.W.}.q ",
"C M o.l h.PXPXPXp X.PXX % PXPXPXPXPXPXPXPXk.N 4XPXPX1 fXV.uXuXz.z.PX/ `.| { PXM M l PX1.v.r.6 4.PXr ' r y.PXQ.PX`.PXPXPX).Q.9 #.",
"1.>XN K vXPXPXPXPXPXPXPXPXPX%Xr PXPX{.$.l 2 H m.d.PX$ fX#.] j.>XK 5XPX' bX$ PX= o.Y PXN !.NXh $ PXq ( *XPXPXPXPX!.PXPXPXW.OXl.eX",
"F >X* <.A.PXPXPXh m PXh.t M <.V PXPX^ y 9Xj.1 # qXPXR { #.~ ; R GXC PXs 5X0XPXY N Z.PXO.! *X#Xw PXPXPX!.PXX PX4.#.PXPXPX#Xe.l = ",
"> >XU 5.5.PXPXPX@ _ PXD.= b K P PXPXPXPXPXPXpX&.$ PX@ 9X#.' z.$ :XgXPX`.m PXPXPXPXPXPXPXPXPXPXPXPXVXPXPXPX=.PX=._ PXPXPXe.}.r.q ",
", 7XU , d PXPXPX5.Y PX8X;.; ' PXPXPX%Xs XXC.PXPXPXPXPXPXPXPXPXPXPXPXPXPXPX3.PXlXBXbXPXU ! +.{ j PXCXOXPXPXPXPX+X^.PXPXPXs m.S .X",
"j.4XV b , PXPXPX'.z.PX>.qXPXPXX.PXPXU : * m : K PXl q <.0XV.A.=.o gXPXeX- { PX*  .' PXPX+.{.H.%.PX~.Q.PXPXPXa | ( PXPXPXAX>X> oX",
"y.b k.4X .PXPXPXE.3.PXPXPX,X5XO PXPXo.@ oXN t 3.PXj.1.8.<.@ K 2XH V.PX+.C N PX* O.! m ] 0 T.%.: PXE.~ PX{ PXPXK.$ PXPXPX' `.S.r.",
"w.A 4 J h.PXPXPX;.G PXPX0.+ Y >XPXPXm.c 3Xg.k v.PXPX| 1.0XH # p.FXI PXL z.! PX( t.].v.m +.W + @ PX-XPXe 7.PXPX+.d PXPXPXr.; =.W.",
"p.$Xb.d.} PXPXPX6XPXPXPXPXb.r.= PXPXPXPXPXPXPXPXPXPXPXPXPXPXPXPXPXPXPXPXPXPXPXPXPXPXPXPXPXPXPXPXPX;XPXy 6.PX[.PXe PXPXPX..#.q E.",
"3.5XCXiX+XPXPXPXPXPX,X; PX$X-.x PXPXPXy.1.5.a.= eXm j.= I.4.; ( -.R u.9 $ r 9 `.| #.#.m %X* H PXPXb PXq 6.PX$XPX>XPXPXPXC bX[.8 ",
"y 2.- ~.u.PXPXPXPX6.|.q PX} 0XvXPXPXb.x.A.3 M.L | 5Xz.a.I :X>X@.,Xb ' * 9 j e |.m * `.9 #.+.-.j.PXPXPXL O.PX% PXPXPXPXPX3.5.%XOX",
"C.X $.m u.PXPXPX4Xd.0Xx PX> L.8.PXPX9 2.H :.L.;.5.B @ > D.3.@ #.U u.^ * BXt 5Xd ].a u.+XC j.f.M PXPX= k B.PXZ 8XPXPXPXPX Xo a 2X",
"d.r ZX@X_ PXPXPX1.M.dX3 PXd.c PXPXo * B.y 8.cXX $ gX>XL.B.@ 7.V.,XbXX.H =Xh r c.'.~ [.uX* B.uXk..XPX.XT gXPX.X3XPXPXPXPXX.B.* J.",
"%XM OX8 V PXPXPXx x H t PXPXrXPXy 8.-.V.1.* M.* N.3.I R yX{.3.u X }.1.4.hX, ; ..8 $.Q.* w L.w.].b.PXPXg.:XPXuXq PXPXPXPXk.f.} gX",
"~.*Xo d 7.PXPXPX3.qXn.4.* PXPXPX9.=.A.S.S b.L.D.V.q 1 5.a {.u ; F r w n.(.% q 5X$.~ lXq n.L.M b r.4 PX.XPXh <Xj.9XPXPXPX4XnXqX1 ",
"V J.C.n <.PXPXPX&.1 @ t.E.PXPXH ;.I K -.c u 8.$XQ.>.M %.; ( K.:.= | ,.2.}.w ;.;.oX.X|.aXP.D.vXg.0X#.PXPXPXp pX~ @ PXPXPX* W.%Xn.",
"8 <.j.d.1 PXPXPX& oX@ o.PXPXJ.1 P.C.5.7X$ ; I -.r 3.:Xh `.( a % d.'.j f ! w M.sXuXuXV.t m.0Xa.r.kXm.u PXPX{ J.y H.PXPXPX2 ( [ N.",
";Xt.b C.# PXPXPX4.B.7X4 PXPX. s.s.# n.$ ; K q :.q ].JX8.e.[ OX< D [.yX^ ( 6Xo 3Xr.k.X.= .X.XD X T e.p.PXPXy.z.#.A.PXPXPXA.@ ~.+.",
"` [ E.2X6 PXPXPXR L 4.PXPXJ.O & & L.n.B.5.Z.o.% !.V ^ ,X(.a ! %X.XS nXr C D k 6Xb q * o.uX_ &.% r.` b. .PXPXu.oXr PXPXPX@X$X~.a ",
"F q [ g.:.PXPXPXA.I PXPXPX7X8Xa.. J 7X@ F 2XnX@ ].h }.V $.*X5X.Xz G vX2.2X8XZ..Xk.r.> B.v.r aXk.b.b.g.w.PXPXJXDX: PXPXPXn &.y.m.",
";.f.!.$ :.PXPXPXF PXPXPX1.M 7XsXt mX3X< D.E R ].q 2 ( XX* E.,Xk.a.&.I aX>.. vXP qXuX3X9Xr.`.rXA.4 %Xv ;.K.PXPXK.U PXPXPXv.=.` n.",
".X;.g.B.<.PXPXPXB PXPXL 1 '.K.Z.:X@ 3X5X$X6XuX{ m 8.E.9 $.$.4.Z 4 7 k f.G.D.sX, qXB L.4.y OXj [.Z J.X Z }.PXPXq e PXPXPX( +.A < ",
"= h 4.4Xf.PXPXPXPXPXPXt P.XX7.A.9X@ f.n o.6X=X&.s GX+.2.~ ,X; y.& . $X;.P.kX1 % HX% 7XI ; | Q.6.= ;.G H 3.p PXPXC.PXPXPXy 9Xe.O.",
"[ ( DXY.T PXPXPXPXPX;.w _ m.XXo I Y 8.o w O [ =Xe p +.* ) 9 1 h.@X! 1.>.S.` G ;.8X& cXB.0 W 7.q o v J E oX- PXPXPXPXPXPXq mXr y ",
"s VX` $ 2 PXPXPXPXH.J.O.u 3 N.; :XV.| j.w 8XE.E.CXXX| '...Y > & i.i.d.w j.; B qX*.s.n.$ 7.~ j ; f.G O mXd., l PXPXPXPXPXS ZX#.y ",
"~.8 $ f.S PXPXPXPX=.K.o.} Z.e q T F [ m X D * K 9.u.( !.t., < ZXw.w.A * b }._ , a.L.5 P N a * D.9XuXm.ZXv 8X< PXPXPXPXPXT r.x.>X",
"] T.y X.) PXPXPXrXj.M r.) $XU b L $ =Xp B z N p.Q.t.) [.@ >.I.&XCXD ].5XyX}.%XM k.7XL.-.0Xf.3Xq e $ KXE 0.v T $XPXPXPXPXI.h.P w ",
"] V y.} FX$.X.N B q oXq O.VXuXL.Z.w N.^  .L.K.K.q - e.^.A ` & r.q.s.M X.FXp @.@.C A.L.o 0X4.O.d.U iX} E v 0.f.w PXPXPXPXr.& q M ",
"C v.vXq.u yX$ @ P.; L.DX7X1 uXdX# r.g U M H M t.BXQ.tX`.4.& & xXt >.b B %.[.) m O.z.B.f.m.B.* |.N 9Xr < F.z 4X<.!.; ( R uXcX-.r.",
"X $X+ $Xe.5.B.:.# <.gX>.1 E } 3X. C.9.X.c.J _ +X#.a =X[ BX` g.(.< 6 #X; :.w  .} r V d 3.5.3.| <Xq l k.= bXoXnXgX8 ! e...v.o h %X",
". P.8XxXZ [ ( r : E.e.n , !.` A g.h OXp =.d.E.}.[.s eX%X .5Xy.* 1.O e.` :.y.w C j.X.9 q q * |.+.C $Xw :X7.9.* %X9X[ +.a A.1.G.@X",
"r C oXoX} C ;.d 8 |.& 5 , W K $ @ h n.q ` bXQ.[ r N q I :X> v.k.b.kXtX].$XD ' j.} R , d.$ O.L N C +.| #.a <X;.w ;X!.@Xd.h.k *XT.",
"V.Y x.X V >X= r p m n.a.; / m.X @ , 7X* 1.Y !.=Xe z.N.f.c z.v.D b.p.l #.} k.+Xa c.N e OXR.~.1 @ K 6.V <X* X r P , kXM ].= P.VXJX",
"3XR 9X, y K.4XC / ; T > V / H R @ w N @ c 0Xe t.' @ L D.= q.w k q.r.].5XS.= X.7.r * '.i Q Q @ $ C.y - aXZ.m.y.* X 8.9 l.X 8.5 X ",
"w X.<XU { e X.bXv.u R w VX$ @ GXd.4XV.sX;.h ( a u.} g.b.% k 4Xq.8Xk N x.X.v 7.* +X+.{.] R.R.=.d ,.$ K 4.F K.u.{ h ,X; 0 1XoXt X."
};
