/* XPM */
static char *cGxvdHRyYWl0[] = {
/* columns rows colors chars-per-pixel */
"64 64 255 2 ",
"   c #000D00",
".  c #0C0C0A",
"X  c #001400",
"o  c #001C00",
"O  c #081804",
"+  c #002400",
"@  c #0A2703",
"#  c #012C00",
"$  c #142B01",
"%  c #033400",
"&  c #0B3301",
"*  c #033B00",
"=  c #0B3A00",
"-  c #143703",
";  c #133C01",
":  c #1B3D02",
">  c #093218",
",  c #163A17",
"<  c #28360D",
"1  c #163527",
"2  c #203E26",
"3  c #0D4200",
"4  c #094900",
"5  c #144301",
"6  c #1B4402",
"7  c #144B00",
"8  c #1B4C00",
"9  c #1A470C",
"0  c #055400",
"q  c #1C5401",
"w  c #1A5604",
"e  c #194716",
"r  c #185514",
"t  c #214C01",
"y  c #264708",
"u  c #344B08",
"i  c #245302",
"p  c #2C5403",
"a  c #235B01",
"s  c #2B5C02",
"d  c #27550C",
"f  c #2C5C0B",
"g  c #355A05",
"h  c #274A15",
"j  c #364E16",
"k  c #2B5513",
"l  c #2B5C14",
"z  c #285618",
"x  c #375A18",
"c  c #345B1A",
"v  c #186905",
"b  c #296703",
"n  c #2C620C",
"m  c #376707",
"M  c #336C01",
"N  c #3A650B",
"B  c #2A7505",
"V  c #387604",
"C  c #2C6616",
"Z  c #356313",
"A  c #336B13",
"S  c #3C6C13",
"D  c #34651C",
"F  c #3A671A",
"G  c #3B7517",
"H  c #194D2D",
"J  c #2C4D2E",
"K  c #2B5823",
"L  c #365B28",
"P  c #365736",
"I  c #396627",
"U  c #3C6B24",
"Y  c #366D2F",
"T  c #3B7426",
"R  c #396635",
"E  c #465213",
"W  c #6E5315",
"Q  c #466707",
"!  c #457706",
"~  c #57710B",
"^  c #476A1A",
"/  c #467818",
"(  c #537A19",
")  c #425C28",
"_  c #53592E",
"`  c #436D24",
"'  c #436C2B",
"]  c #496929",
"[  c #556A24",
"{  c #447323",
"}  c #487828",
"|  c #4B7B2C",
" . c #557A28",
".. c #466936",
"X. c #556936",
"o. c #4B7434",
"O. c #4A7837",
"+. c #557836",
"@. c #6C7338",
"#. c #385843",
"$. c #3C6947",
"%. c #4A6F4B",
"&. c #557945",
"*. c #577B58",
"=. c #697B4A",
"-. c #5A6D60",
";. c #F83A02",
":. c #B6661A",
">. c #986D2D",
",. c #A16322",
"<. c #AD6D2D",
"1. c #FE5406",
"2. c #FE5A06",
"3. c #F3510F",
"4. c #FE550A",
"5. c #FD5B0C",
"6. c #FC5612",
"7. c #FD5D12",
"8. c #FD610D",
"9. c #E5631C",
"0. c #FD6314",
"q. c #F86519",
"w. c #FD641B",
"e. c #FD6A1C",
"r. c #D56320",
"t. c #D47532",
"y. c #FD6523",
"u. c #FD6C23",
"i. c #FD662A",
"p. c #F66A29",
"a. c #FD6C2B",
"s. c #FA7429",
"d. c #FD722C",
"f. c #F76B34",
"g. c #FD6D33",
"h. c #FD6E3A",
"j. c #EA7330",
"k. c #FD7333",
"l. c #F97A36",
"z. c #FC733B",
"x. c #FC7C3B",
"c. c #8C7246",
"v. c #B47846",
"b. c #D17A4A",
"n. c #FC7745",
"m. c #FC7C43",
"M. c #F07B4F",
"N. c #36840C",
"B. c #478506",
"V. c #538908",
"C. c #539402",
"Z. c #498719",
"A. c #558818",
"S. c #519312",
"D. c #6A9511",
"F. c #56A213",
"G. c #6AB00D",
"H. c #4B8528",
"J. c #568729",
"K. c #579528",
"L. c #4D8633",
"P. c #588738",
"I. c #5A9338",
"U. c #669928",
"Y. c #658939",
"T. c #6F9130",
"R. c #679838",
"E. c #72A72E",
"W. c #69A537",
"Q. c #598645",
"!. c #528948",
"~. c #5D9445",
"^. c #5B8955",
"/. c #5E8D5B",
"(. c #638A45",
"). c #768A48",
"_. c #679647",
"`. c #76934C",
"'. c #668957",
"]. c #6A9756",
"[. c #749A58",
"{. c #6AA446",
"}. c #78A74A",
"|. c #76A757",
" X c #74AF54",
".X c #779765",
"XX c #719369",
"oX c #6DA465",
"OX c #7AA967",
"+X c #9C9735",
"@X c #DC863F",
"#X c #FB823C",
"$X c #9DDD2B",
"%X c #8E8B4A",
"&X c #AC864E",
"*X c #85A957",
"=X c #84B458",
"-X c #90B555",
";X c #829B66",
":X c #87B767",
">X c #8EB272",
",X c #ADAA64",
"<X c #D18D50",
"1X c #FC8445",
"2X c #F88847",
"3X c #FC834C",
"4X c #FC8B4C",
"5X c #E78854",
"6X c #FA8A55",
"7X c #FD8C54",
"8X c #F79357",
"9X c #FD9254",
"0X c #FC935B",
"qX c #FD9A5D",
"wX c #DF8A60",
"eX c #FD9464",
"rX c #FD9C64",
"tX c #FA9768",
"yX c #FD966A",
"uX c #FC9C6B",
"iX c #FDA26B",
"pX c #FDA468",
"aX c #FDA977",
"sX c #FDB17E",
"dX c #93CE54",
"fX c #A6C652",
"gX c #91CC70",
"hX c #98C578",
"jX c #A5C974",
"kX c #ADEA68",
"lX c #779B91",
"zX c #899486",
"xX c #BF9F8C",
"cX c #90AE89",
"vX c #AEB194",
"bX c #B3BAA8",
"nX c #B9BCB5",
"mX c #DA9D87",
"MX c #D4AC92",
"NX c #F7AF88",
"BX c #FCB889",
"VX c #DFB8A3",
"CX c #96C287",
"ZX c #ADD590",
"AX c #BDC2B5",
"SX c #B0E2A1",
"DX c #C2C4BB",
"FX c #D1C0B7",
"GX c #D8E6A5",
"HX c #BCEFCE",
"JX c #C7C7C3",
"KX c #CECCCB",
"LX c #D1C8C5",
"PX c #D0CCCC",
"IX c #DEFDC2",
/* pixels */
"/ m U.( 7 / t 6 # o (.J.6 J.n 7 | OXB G H. X% = M I 3 H.% w J.b G # O P.& r G.8 ^ XXY 0 A V.^ Q u @ >XY.Q -XZXY.E $ ] X.p |.8 I ",
"J.s J.m :X8 Y.# 8 h k U.].I.G / 3 4 B K.K.T A.d p , 3 S.5 # # K.G 9 - R.w # G.}.] ..oXN.q U.: g *XY.T.^ 6 dX=.  < O u p Q V.| O.",
"d x & &.R ^. Xe ` X h T.e ` P.7 # % G J.C r / 6 p > 9 C.} P J o.C % J.U.% K.F.4 h -.r B  .u IXfXkXT.>X[ $X+XT.ZXY.,X>X+.' { n _.",
"S  .} f I 3 v e # , %. .*.; x >X+.U =XZ } %.{.F 6 #.L E.i X / Z 3 7 U.p e v N.K h -.% 0 ' *XY. . .~ y J.$X*X@.$ ;X) - 6 A.! 5 L.",
"6 =XdX|.XXA.V I r % T cX*.# @ ` 1 l _.] b I.Y.V ! L.= P.$ . H U.X L.N.4 v B Q.&., cX5 z i q f N.V ).;XH.$X%XjX< E `.V H n 8 Z Y.",
"g ; d L.o.O = 5 !.>XK 5 h 5 X.`.J '.P.: p 9 G W.W.hX9 5 ] X 7 C.5 T B.r 0 n ' OXo >Xh i # R.n N.L.Y.=.i D.*XdX-X&.- / B.| y N m ",
"g : + 8  X.XI i s %.+ p S + OX ., oXY.X R.Y K G 4 ' o./ L.r Z.C.I.{.w w /.H.y ; 9 ZXU = } / G A [.m L j g t gXC.+XV Z 8 fXfXS.! ",
"j T.x # U.p y d I.&.- f { '.[.# R o.+.'. .z e 5 = L x J.K.].Z.F.b w V v !.{ L .XQ.].ZXs / Z.0 : u S Y   ~ I.oX# { O k X s zXW.B.",
"_ A.6 = ! - ` j .XS i o.U S =Xm $.OX8 X & oXK u ^ ;X$ m W.C * a A U M * U ! I z ; L Q.7 _.H.B o.E 0 &.u Q gXQ u E.: ! }.dX^. XB ",
"Q X y Y.# 1 d o '.s 3 } oXA.A.A.>Xf g j Z h &.Q [ X.$ -X( # &.* G Y I.S.r a oXO.O.o._.% T l w * M 5 % U.-Xg < T.U.s L A.{.0 Y _.",
"( $ Q ^   -.Q.: Q.}.Z.a V b Q D.~.8  .: =XL +.A.R.8 r ZXi z OX+ P.%.7 V $.B &.R !.+.OXY Y C q oXB Y.'.b C. .~ U.d C.V D.W.v OX8 ",
"-.X.~ : O X.& S m | } B B.A V.B.D / ( +.Q # m V.K.C r T 8 _ c.v.%X@.Z w H  Xc h & Y r oX!.L ' * C.X., G.C.Y.o.HXC w Q vX_ | cXx ",
"CX6 OX  d f b a L.c h ~.I.0 4 dXV b  XV A.k }.N %Xb.6XM.n.n.n.n.n.z.n.6X6XM.c.,X).f  .J. .H.I.H.I.L.} H.g J.E.m ) &.o IX .p *.O ",
"jX+.cX'.h _.J.b ] 9 o.U C B 7 w K.A A K.Q E M.n.x.z.h.n.n.n.n.n.n.z.z.z.z.n.n.3X5X%X[ I.s w d = I.* ~.n :X*X/ t ^ +.[.O.{ ^ '.# ",
"M = % & ; #  ._.& h 6 = | H.D K.7 5 p >.b.z.h.h.h.h.h.h.h.h.h.h.h.h.z.z.f.g.z.h.z.n.j.<X[ H _.q f f | 5 +.+.N J.<  .CXZ.I.} `.k ",
"R.{ % ..+ [.P.` k c ' ; =Xb & 7 ' X.:.z.z.z.g.h.i.h.g.i.i.y.i.i.y.y.i.g.k.z.g.h.k.g.n.n.t.W % / OXf P.(.[.- # *Xp T.R.N.T G  .8 ",
"& 8 r I d { o.X I (.o.`.q 7 }.c b.t.z.z.i.f.g.g.i.i.i.y.i.i.i.i.i.g.g.a.a.a.g.g.z.k.k.z.z.j.j.s G A |.O.6 y ` Y.^ W.K.Z.N.{.R./ ",
"I D D I l a c + | 5 G f = t U.,.n.z.i.i.i.i.i.y.y.a.i.i.i.y.y.w.y.7.y.a.k.a.i.u.i.g.g.g.z.k.z.t.7 4 L.I.x P.| 8 p ^ b N.n H.A.E.",
"C } } D 8 Z o.[.P.L.G G _.=X+Xg.g.i.i.i.y.y.y.y.y.y.y.y.y.z.y.i.y.z.y.y.w.i.a.i.i.a.a.k.a.k.k.k.@XQ _.m }.J.i i  .P.a / m U.! }.",
"U.K.q f l q 6 o 7 H.Z.3  .,.i.i.i.y.i.y.y.y.y.w.w.y.w.f.w.6.6.M.6.p.7.w.0.w.y.u.i.u.a.a.a.a.d.d.s.<X/ A }./ _.x x 5 C w W.fXU.U.",
"w { D O.# OX..[.y &.  X >.g.i.i.y.y.y.y.w.w.y.y.w.w.g.p.3.MX,.>.<.mX;.6.f.w.w.y.u.i.e.u.s.u.s.s.d.k.<.C.V Y ^ S R.b i n P.b +Xv ",
"..R P *X>X>X+.K , L - %Xg.i.i.i.y.y.y.w.w.y.w.w.w.w.5.mX,Xc.[ KXo.vXc.:.p.0.w.y.e.u.u.u.e.e.s.u.d.d.l.<.q 7 i H.B.{.T L.8 / G.N.",
"J %.}.Y.{ *.} ^.> L m j.i.y.7.y.y.w.w.w.7.y.w.7.w.0.mXW -.LXvXDXO.KXK zXW y.e.e.u.u.u.u.e.#X#Xe.u.d.k.j.l /.C 7 _._..X'.OXhX*Xw ",
"LXDXJXJXDXDXcX>XP +.,.a.i.y.y.y.y.w.w.w.y.7.w.w.0.4.<.2 PXPXPXPXKXKXJXvXcX<Xw.e.e.e.u.e.e.e.8.e.u.u.u.k.j.n O.ZX*.oX^.'._.K.x b ",
"DXDXnXnXzXQ C Y.N ) r.y.y.y.w.y.7.y.7.y.0.q.7.0.0.3.>.KXPXPXPXPXKXKXPXPXnX+X8.8.8.e.e.e.e.e.#X8.u.e.u.s.d.T.cXzXAXKXKXKXKXKXKX.X",
"KXKXKXKXPXPXPXDXvX=.M.y.y.w.7.w.7.7.w.7.7.0.6.7.7.3.&XG PXPXPXPXKXKXPXPXzX>.8.2.8.8.8.8.e.8.8.e.0.e.e.e.d.<XzXJXLXKXKXKXJXg Q.`.",
"PXPXKXPXPXPXPXPXnXxXy.7.w.0.0.0.0.7.0.7.5.7.7.5.2.MX>.5 X.PXPXPXPXPXPXL + ,.8.8.8.e.8.8.8.8.8.8.8.8.8.8.s.MXLXKXKXPXKXKXPXKXKXKX",
"PXPXPXPXPXPXPXPXKXxXy.7.7.7.7.7.5.7.0.7.5.0.0.2.2.e.>.JXzXDX%.KXzXPXdXj u 9.8.8.8.e.8.8.8.8.8.8.8.8.8.8.u.r.P PXKXKXPXKXKXKXKXKX",
"PXPXPXPXPXPXLXPXb <.w.7.7.7.0.5.0.7.8.8.5.5.5.2.8.l.j.@.6 DXnXLXnXvXI.vXMX2X#X0.e.e.8.e.e.8.8.8.8.8.0.8.e.j.KXPXPXPXPXPXPXKXPXPX",
"PXKXPXPXPXPXLX%.I :.7.7.7.8.5.5.5.5.0.5.1.1.7.q.a.m.m.#Xp.*X|.).{ DXFXVXVXqXqX#X#X8.8.8.0.8.0.8.8.8.5.0.q.#X,XLXPXPXPXPXPXPXPXPX",
"KXPXPXPXKXJXbXs Z :.5.5.5.8.5.2.2.2.5.5.1.1.3.y.m.7X7X3Xx.y.5.2.2.d.1X9XpXaXqX#X#X8.0.e.e.e.0.8.8.5.5.0.mXLXKXKXPXPXPXPXPXPXPXcX",
"%.DXKXKXKXKXKXKXLXMX5.4.4.5.4.4.4.1.1.7.1.1.u.#Xk.3X7X1Xx.w.2.2.5.s.2X8XpXqX#X2X9X#Xu.e.e.0.e.0.8.8.5.8.q.s.MXKXPXPXKXPXKXKXDX= ",
"& !.K I ' &.X | @ :.4.1.1.1.1.1.1.1.1.7.7.d.0XuX3Xl.x.x.u.5.1.2.2.q.#X1X2X1X4XiXpX8X#X8.e.e.8.8.8.8.8.0.q.u.,.k { }.AXKXKXKXKXKX",
"- _.z 5 t P.cX>XR :.4.1.1.1.1.1.1.1.1.5.y.3XiXaXuX7Xx.u.0.7.8.5.0.e.s.d.#XpXsXBXsXpX#X#Xe.e.e.e.e.8.8.0.q.q.+XY.S.J.OXU.v ' N J.",
"{ _.i i ; } &.: H.:.4.1.1.1.1.1.1.1.1.7.a.d.rXNXNX0X3Xk.0.7.0.0.0.q.0.2X0XaXBXBXaX#X2XqX#Xs.e.e.q.0.e.e.0.s. .G V N.o K.kX&.- P.",
"/ t { _.^ ^ ..'.B.:.3.1.1.1.3.1.1.1.5.z.eX3Xz.eXeX7X7Xw.5.4.2.2.2.5.q.#X9XqXsXsX2X2XpXqX9X#Xe.e.e.e.e.8.0.r.s %.+ dX4 w M H.+.` ",
"Q Q : j o.p ) &.' <.y.3.1.1.4.4.1.1.i.6XyXaX6Xn.z.3X1Xw.5.5.1.1.2.2.0.l.2X2X#X4XqXpXaXpX9X2Xl.e.e.e.e.e.w.t.4 A w r l 6 / = K V.",
"( Y.} ] Z { `.8 _.`.9.1.1.4.4.4.3.y.n.6XyXNXBXuX1Xs.d.w.5.5.5.2.5.8.q.d.l.#X2XpXsXsXpXpX9X4X1Xk.u.e.e.e.q.<XJ.5 5 z {.R.A U 3 B.",
"I ~.gX XI.A G L.A I.t.1.1.4.4.6.y.f.6X0XyXNXBXuX7Xm.a.w.q.7.5.5.0.0.e.e.#X2XqXaXsXaXpXpXqX4X2X1Xl.u.u.u.s.x R.P.(.L | S f :XK.3 ",
"9 I 4 A.Z.C a Z.J.` %X4.4.4.6.6.z.m.3XeXaXBXBXeX7X1Xs.5.5.5.5.2.2.5.5.0.#X9XpXpXiXiXpXqX8X8X9X4X1Xd.s.u.#XH.# `.o.6 { f U T I.I.",
"R o S a / 3 7 # Y.' '.i.6.4.6.i.1X6X6XM.yXNXNXeX7X1Xy.5.5.4.1.2.2.5.5.7.d.9XpXpXpXpXpX6X8X0XqX7X2Xd.d.s.).+.p `.@ o _._.P.o 8 ^.",
"` 8 jXK.n & L c ) ...Xc.6.6.y.x.3X6XyX6XyXaXeXeX3Xl.7.5.5.1.2.1.1.4.5.7.i.4XrXpXrXuXiX0XrXrX0X9X2X#X#X5X;X& +.(.] t  ./ x O.* %.",
"R.b J.3 l 3 K : y h h 9 t.w.i.3X6X6XeXyXuXeX0X0X3Xa.7.4.4.2.1.1.1.5.5.8.e.#XqXrXrXtXpXuXrXrX0X7X1X#X7X@.Q.+ |.5 5 i }.-X` ' Z >X",
"S.W.+ r Y * R K I [...I j z.a.m.6XeXeXuXaXuX3X0X1Xy.4.4.1.1.1.5.1.4.5.7.w.l.4X0X8XiXiXiXuX0X9X6X1X2X<.(.].e _.T ].| J.R._.>X[.@ ",
"a %.O.p D } N 2 1 y # / / v.x.m.6XeXyXyXuXuX0XeXk.w.4.4.5.4.4.4.4.5.5.7.7.y.#XrXuXpXrXrXrX0X6X2X2X&X .Z |.7 /.M o o.V C.% C.R.R ",
"3 I ' I 9 | A.e $ Q.o F b XXv.n.n.eXyXyXeXyXrX7Xk.7.1.1.4.4.1.1.1.1.5.4.5.7.x.qXpX8X0X0XqX0X4X7XqX(.y b V l $.9 $.oXT 7 , b m o.",
"W./ q o.o d V ; I o.^.6 L lX  v.3X3XyXeX6X0XeX7Xy.6.4.4.1.1.1.1.1.4.4.4.7.w.a.1X7X9X9X9X9X0X4XwX@.! Z.` # / ' G O./ U A.P.+ S.G ",
"A V V.^.1 | dXn c x L k &.%.O $ v.2X0XM.3X3X3Xx.6.6.1.1.1.1.1.4.1.4.4.5.4.7.w.g.x.2X3X2X4X8XwXj [ Z  .Q i R Z.P.q V x A.J.I.Z.w ",
"h 5 Q I P H.| ~.O.z j & y _.XX) X v.wXM.3Xm.z.6.4.4.4.1.1.1.1.1.1.4.4.4.7.7.7.i.z.x.2X8X8Xv..X}  .+.^ Q ^ z SXcX* V J O.k 2 / ' ",
"L } A.& J =XK q h ..} k I s =..Xy cX%X<.n.m.f.6.6.6.1.1.1.1.1.1.4.4.4.4.6.7.7.7.a.#X8XwX%XJ.}.O.- T.p L &.a ~.%.C C.z /  .K x ..",
"J.P ' o.I 8 K W.d ..d k , H.&.O.+.+ (.`.%X<Xf.i.w.6.1.4.5.5.5.5.5.5.7.5.5.7.p.p.x.5X&XX.6 P.r J.p %.  p K.K H.5 7 C.G V M G g 6 ",
"- e I Y.` O.j A._.j  .9 *.P.Y O.].+ ' p Z %XE.c.n.y.p.a.q.0.7.0.7.7.a.k.a.f.z.M.vX< '.c = S Z.U @ L j h U q X U %.b * b 7 ].! F ",
"V b cX-.K .XR 7 & e L 7 m ..L.+ z x R o t . V W.4 w @.<Xl.j.s.f.f.f.f.l.b.[ h L [.@ ;Xo.4 v T 5 o j g x ~.* 6 [./ e a h 3 >Xq e ",
"q gXN # , J.$.& z $.%.^ 8 , | & Q.O.A } : '.B.B.jXL.A H.F k $ - ( / I 5 / = k [.L _ ..# } b r ; ' p O >X` - t p I = +.` f jXG 9 ",
"Z.4 # ' p {.P U k L %.F x &.7 3 x h V a X g % z T G V A.! : $ jXQ m f & w K.N - ) &.y z r q & +.].|.o.CXu ).- N & m ..i c ^ { Q.",
"V N.9 D V * A 3 }.{ s ^ M P.l i k & U.7 d p i / H.G M J.# P =.T.fXZ J._.|.K.R.s ] '.&.L ].' (.7 8 + GXD j E x Y.k p & & =.[ l 6 ",
"B l / F cXG Z 8 d 5 P.5 F >X|.*.X.8 O.C G +.&.&.5 * B.A.g N $ ^ L ) s D CX7 S G f O.&.+ ].L F ] l OXD x u E ' 5 Y.& m k ^ $ 6 s ",
"f | =XE r oX# > *.= &.cX'.: }.XX@ F e r s h s / gXA.}.H.' @ $ fX< P t d H J.m a U } o.' ..O.* P.w {.8 6 @.y (.I A.= b c *X.XL S ",
"X Y.@ =.! T o.J > D OXP , x ^ Q.  o.Y C o.z n I.A q W.V gXN ] D.9 1 U.& J 6 S Z q d w U Y U A I.7 t ] = :XP.>XOX3 a ! S | o , W.",
"X -.T.,Xp V b t & ! B.i - V.Z g ..e I.w K ` B.K.K.w {.W.A (.^ * I o ! Q P / 6 f ' D 5 3 7 # L.C g (.6 Q.T Y % R.].N.A w O.^ P Y.",
"8 n P.P.l l L w 4 P.$ 2 6 v h & + e ..5 S :XZ.V 8 d 5 z &.; | ^ [ -X*XH.~.x M { l L - U # ` h d d C G G q I.L 6 E.A.J.] o.y E.V ",
"O.f } O d P.& 8 7 d ] ) = b Y X + ; '.& U f A.W.8 ' ' ..y ' | x  .( 8 G Z ` Y.8 | w q I.N.N.9 + d T d ~.& X 8 l - =Xg J.- &.gXSX",
"(.l ].= e !.Q.n w 5 x & d b h K + 6 h + y ].7 / m + k +.& ^ 6 y E { L._.+.& D } w % H.0 B v + # O.9 * oXO...Z.% o R 3 H.X R < X ",
"6 F Q.C C 7 D :X| 8 c 6 hX& + CXU (.| [.P e M w / Z U +.@ : (.x ).y i } F d T * ~.B I.B N.N.K r K # e I h %.G l 9 ^.* 3 ~.!.y D "
};
