/* XPM */
static char *c29s[] = {
/* columns rows colors chars-per-pixel */
"64 64 254 2 ",
"   c #000D00",
".  c #0C0C0A",
"X  c #001400",
"o  c #001C00",
"O  c #071806",
"+  c #0D1E0F",
"@  c #012400",
"#  c #0A2705",
"$  c #012C00",
"%  c #0A2B01",
"&  c #142A02",
"*  c #033400",
"=  c #0B3301",
"-  c #033C00",
";  c #0C3A00",
":  c #0C380A",
">  c #113401",
",  c #133C01",
"<  c #1B3D01",
"1  c #16390A",
"2  c #0C3216",
"3  c #183A17",
"4  c #233A03",
"5  c #293311",
"6  c #163427",
"7  c #263D23",
"8  c #044401",
"9  c #0D4300",
"0  c #0B4B00",
"q  c #144401",
"w  c #1B4302",
"e  c #144B01",
"r  c #1B4C01",
"t  c #15470C",
"y  c #1B430C",
"u  c #1C4B0C",
"i  c #075500",
"p  c #145300",
"a  c #1C5401",
"s  c #1C5A01",
"d  c #1C5A07",
"f  c #1D520B",
"g  c #0C4D13",
"h  c #1A4615",
"j  c #1A5315",
"k  c #234402",
"l  c #224C01",
"z  c #284708",
"x  c #234B0C",
"c  c #344C08",
"v  c #235301",
"b  c #2C5503",
"n  c #235C02",
"m  c #2B5C02",
"M  c #23520B",
"N  c #2B540D",
"B  c #255C0C",
"V  c #2B5C0B",
"C  c #325401",
"Z  c #335D01",
"A  c #355B0A",
"S  c #254C13",
"D  c #284A18",
"F  c #324D16",
"G  c #235312",
"H  c #2B5413",
"J  c #2C5C14",
"K  c #2C541B",
"L  c #275918",
"P  c #365A18",
"I  c #335C1B",
"U  c #1B6401",
"Y  c #166F08",
"T  c #246400",
"R  c #2B6301",
"E  c #2D6B01",
"W  c #2C620C",
"Q  c #276909",
"!  c #346403",
"~  c #336C01",
"^  c #3B6906",
"/  c #33630B",
"(  c #3A640B",
")  c #346A0B",
"_  c #2B7407",
"`  c #3B7201",
"'  c #3C7B02",
"]  c #367408",
"[  c #2C6516",
"{  c #356313",
"}  c #336B13",
"|  c #3C6C14",
" . c #34641B",
".. c #3B641C",
"X. c #376818",
"o. c #3C6B1C",
"O. c #2E7112",
"+. c #3C7213",
"@. c #397817",
"#. c #3C731B",
"$. c #19492B",
"%. c #284A25",
"&. c #344B25",
"*. c #2B5724",
"=. c #335B24",
"-. c #375927",
";. c #355C2A",
":. c #2D4C39",
">. c #2D5337",
",. c #385936",
"<. c #2C6229",
"1. c #346625",
"2. c #3D6523",
"3. c #3C6B24",
"4. c #3B642B",
"5. c #3C6B2A",
"6. c #3C7323",
"7. c #3A7528",
"8. c #396636",
"9. c #3C7335",
"0. c #474E13",
"q. c #425817",
"w. c #456708",
"e. c #457607",
"r. c #437B03",
"t. c #56720C",
"y. c #456A19",
"u. c #437414",
"i. c #437B14",
"p. c #48771A",
"a. c #437B1C",
"s. c #547B18",
"d. c #425B29",
"f. c #475A32",
"g. c #436D24",
"h. c #446C2B",
"j. c #486828",
"k. c #447424",
"l. c #4B7424",
"z. c #477927",
"x. c #4C7C24",
"c. c #44722C",
"v. c #447B2C",
"b. c #4C7C2B",
"n. c #547928",
"m. c #476736",
"M. c #436B33",
"N. c #536A37",
"B. c #447333",
"V. c #4B7433",
"C. c #4C7A33",
"Z. c #457539",
"A. c #4C753B",
"S. c #4D7C3C",
"D. c #577737",
"F. c #527B33",
"G. c #527C3C",
"H. c #647532",
"J. c #395A42",
"K. c #3C6949",
"L. c #4A6C4D",
"P. c #4C7746",
"I. c #547B44",
"U. c #577847",
"Y. c #55665C",
"T. c #577B56",
"R. c #637B4B",
"E. c #637C67",
"W. c #398207",
"Q. c #388512",
"!. c #478606",
"~. c #548A09",
"^. c #4A930E",
"/. c #539402",
"(. c #498619",
"). c #558818",
"_. c #589417",
"`. c #679113",
"'. c #679919",
"]. c #56A20E",
"[. c #6AB00D",
"{. c #4C8425",
"}. c #4C822A",
"|. c #4A8929",
" X c #568728",
".X c #548B2D",
"XX c #4D962B",
"oX c #589528",
"OX c #4C8534",
"+X c #538332",
"@X c #5A8434",
"#X c #5A843C",
"$X c #568938",
"%X c #5A9437",
"&X c #648B27",
"*X c #669928",
"=X c #648939",
"-X c #679837",
";X c #759532",
":X c #6AA727",
">X c #75AD2E",
",X c #69A437",
"<X c #76A838",
"1X c #5B8443",
"2X c #588746",
"3X c #50884C",
"4X c #5D9544",
"5X c #5B8A54",
"6X c #638B43",
"7X c #648947",
"8X c #748C4E",
"9X c #649344",
"0X c #699749",
"qX c #749748",
"wX c #668957",
"eX c #6A9756",
"rX c #749857",
"tX c #5DA050",
"yX c #6BA447",
"uX c #77A94A",
"iX c #6BA557",
"pX c #77A756",
"aX c #79B451",
"sX c #5D8565",
"dX c #768F6C",
"fX c #6C9864",
"gX c #779966",
"hX c #6DA465",
"jX c #7AA867",
"kX c #9DDD2B",
"lX c #87AB59",
"zX c #94A656",
"xX c #85B45A",
"cX c #90B555",
"vX c #829B66",
"bX c #88A867",
"nX c #86B668",
"mX c #8EB471",
"MX c #96BB7A",
"NX c #91CA56",
"BX c #A4C953",
"VX c #8BC66A",
"CX c #97C776",
"ZX c #95CB70",
"AX c #A5C974",
"SX c #ADEA68",
"DX c #759389",
"FX c #8BB187",
"GX c #96A297",
"HX c #98C787",
"JX c #ADD590",
"KX c #B1E1A1",
"LX c #CCF3A9",
"PX c #CDF6C8",
/* pixels */
"p.R -X).w i.l w @ @ 6X Xw F.) e b.jXE @.XXpX* ; ~ 1.9 |.* s .XR @.* o 1X* j [.e p.dX9.i _ ~.y.w.c # MXH.t.zXJX=X0.& j.D.c rXa 4.",
" Xm  X^ nXa =X$ w x P &XeX%X+.@.8 0 _ oX%X@.(.N m 3 9 _.q $ $  X@.t = ;Xn $ [.uXj.,.hX_ a ;X4 Z lX=XqXw.4 cXR.  & & c C ^ ~.v.G.",
"N P % I.8.5XaXg c.o D -Xy g.%Xw $ * +..XQ j u.w V + x /.z.,.>.Z. .*  X*X* XX^.8 z E.f Y x.k PXBXJX;XbXs.kXcX`.KX8XbXmXD.g.k.W 9X",
"+. Xl.N 3.9 d $.$ 3 L.s.E.= P MXD.g.xX{ B.P.qX..w J.-.:Xv X u. .9 e *Xb h Y W.<.&.Y.- i c.zX=X&X).e.5 &XkXlXH.& vXq.4 k ).r.e +X",
"w lXNXuXjXs.~ 1.j * 7.FX3X$ # g.$.L 0Xj.E $X@X` ' OX; D.> . %.*XX OXW.8 U _ 2XI.1 FXw H v a [ W.] 8XvXn.kXzXAX5 0.qXE *.B l ..&X",
"Z ; B +XM.O ; q #XmX*.w h , N.qX>.5XD.< m f 6.,X,XHXu , j.X e /.e #.(.j i Q j.jX@ FXS M $ -Xm '  X=XR.v `.vXNXcXU.> a.!.b.4 +.^ ",
"A 1 @ r xXgX4.b V P.@ V | @ vX+Xh eX=X  -XB.<.+.0 M.B.x..Xt |./.%XyXd f tX7.x 1 y JX2.; {.i.Q./ rX^ ;.c Z l ZX/.'.t...l cXBX).W.",
"F ;XK $ '.n y N #XP.= V l.7XrX$ J.C.D.wXx.G h , , P P  XoXtX(.].U s ' n 2Xx.;.rX2XeXJXm a.a.i 4 z ] 9.  t..XhX$ p.+ x o C GX,X!.",
"j.&Xw ; ^ 1 g.K gX| v V.3.+.lX^ 9.jXw X * fX*.b y.vX# ^ *XO.- n } 6.~ - 1.r.<.K , 1.2Xe yX{._ A.A 0 2Xc t.VXw.l >X4 e.<XBX5XiXW.",
"w.O 4 =X= 6 C o eXm 9 c.iX). X).mXJ A F ( *.R.w.s.N.& cXs.$ P.; +.8.%X_.G U jXA.Z.B.0X* 6.B p * ^ q $ *XcXm 5 ;X*Xm j.n.4Xi 7.4X",
"t.& w.t.  Y.1Xy #XyXp.n +.E e._.4Xe n.< lX4.n.s.;Xw L JXv K jX$ .XP.e ' K._ U.d.P.S.jX1.B.L e jX_ =XwXR !. Xt.&XM /.w.[.uXs DXn ",
"Y.N.e.4 O N.= | ^ b.{._ !.) ~.!. .p.s.D.w.$ ^ !.XX<.g 7.9 y ..V.u.3 f s $.aX-.4 ; B.j hX3X<.h.8 /.N.3 [./.=XA.PXQ d w.GXj.{.FXA ",
"HXw jX  H / E n +XI S 4X%X0 0 NXW.n aX] ).J iXU XX7.j 3Xw P  Xr $X9.9  .* l.H.bX=X{ n.@X{.{.$X}.%X}.v.+XZ @X:X! d.U.@ PXl.C E.o ",
"AXD.FXwXx 9X(.m k.y V.3.W O.p p oX} } _.s * tX@.Q.p W G z ..b.B 0 7.0 f = 2.5 4 jX%XZ =XV s n 9 %X- %XW nXlXi.l y.H.rXC.a.w.wX@ ",
"^ ; $ ; 1 $ n.9X= S y ; }.{.X.oXq 9 e ] aX$Xv.%XQ.,X%XiX* J K o [ n v.pXL S.f.4 qX.Xu.xX .*.9Xa V B F.w D.D.X.&Xk n.CX6.%Xa.8XH ",
"-Xc.$ M.$ rX#Xg.K I h., xXm * e c.-.@ 8 #.O.t 9 -X~ |.OXp eXwXM.h.* { 9 L <.5 d.V uXcX0X@ @ * a.aXJ OX7XrX> $ uXc ;X-XQ.v.k.x.r ",
"; u G <.M k.V.o 2.7XC.0Xa e yX1.wX= ;.Z.* i 5.@ p.- v [ s v.%.D 2.r b.$ H 1.&.G.n {. XV t j %Xm #.} pXC.w k c.=Xp.-XXX(.@.yX-Xe.",
"1.[ 1. .J m I @ C.q o.W ; l *X9 ;.1 o @ CXVX5Xf o.a.l  .n 0 P.4.K $ w b.W m N.X } ZX) 9 6.e yXp 9 9 OX4XP @XC.r C w.T (.T  X).<X",
"/ x.v.1.e { V.rX$X$X@.| 0XpX'.1.P.f.-.: G (.3.e 0XM.S w k.).t B.o D z x..Xe k 9XiXU %XpX{.s @.0 aXO.9X) uX@XN l F.$Xn @.^ &Xr.aX",
",X).a V J v w o r |.@.0 z.W Y W *.j.m.+ $ ^.OXe B.T.D gXe ' p ; % m.5 k ).NXlXa U <.o.9 (.' %X0 O.|.@.) uXi.0XP P q [ s <XBX*X*X",
"n 7. .C.$ nXM.rXx I.  o L n pXl p.#XP.2 D b 2 ~ >X* 8.4.; P ( $ OXaXI.-XSX!.j a Q T W 8.F 4 ~ ^ ; %X` !.] 9.y.( -Xn n [ +XZ <X_ ",
"t 9 $ -XpXeXg.*.3 -.> =Xe h.D.{ m { D @ D D.W r u r m iXMX4.m P.v..X;.n.'.%X5Xa.n ` 8.I $ g.; .X(.~ }.J p 8 n  X!.uX@.OXe i.'.W.",
"o x _.e.! 5Xx.5X+ h.Z ~.r h o % m pXM @ D rX&X@ gX+.p.G 3Xv &XhXOX9 P @ a ,XM pX` jXi.,.2X*.Q f * B.V m B 5X} p XXO.O.i Q.<X`.U ",
"I.x = n | * e pX@ l.C z D.:.3 ;.@ +X0Xy @ T., ; ! *XiXh B.E %X6.- s B w n VX$ ZXw n *.p fX7.sX7.,X*X4.o t n o.VX; _ 8 0 (.:XP R ",
"D.D.D 1 , ( W =X( ..# &.,.:.3 D , +Xz.= K U.2  X_.x.T.* ) +.k.a -  .+X| J yX*Xy.~.j.:Xb.oX[ g T r.v Z.%.J _.rX, +.u.| a.uXe.vXP ",
"n.y.  6 -.y.N m l w 5 DXY.,.  D $ w pXz.S ;.0Xn R = eXe.w.3 #Xi.7.0 -Xw * @.t.s.4 ;Xy.>Xe |.E Q q - ; ]  XnX  z p.$ q qXNXC U.rX",
"=XP m.&.@ < n.l.% & %.7X-.l l H h , ..V x -._.@.$ 1XV.l k F A.+.d j  Xl X i.C c H.vX`.s.-X .5.k.yXq q 5.iX(.5XK C.b.e b.lXuXjXbX",
"h.4.D.V.rXN.s.m.+ O F &Xa p.s.H @ = C.o., ;.U T E ~ V.:.1 &XA.* B <.NX< $ (.&Xq.R.q.& s.o.G.{.u O # x.,X0 - *.5X* e e s <Xn U.&X",
"x.} -XmXq.j.# ,.R Z.( O N P.H G.HX$X} +X% &.q #./ * 8.I., l.v X e r %X,Xv t n <X).).< ,.P.D $ (.s !.a.%.: y ^.3X* ' * 1.W.^.oXq ",
"W n ..l D.4 X S a  .( X $ B.D C.] U f 8.< j.N 2Xc.* w hXC.pXpXc.h.M / x.}  .y.m m l P 4.V.y.3 4.k.e ) p i. X(.%X{.4X%.a ].(.9 #.",
"2.1Xx G bXU.8XZ J p.rXD.mX.X-Xr Z.- XXQ.x 2 K M.g.; $ fX#.] c.2XH 0Xe ) jX$ P * ..I J M s.BXh @ @ w ^ *Xr.m ] |.).yXU.9 /..Xx.uX",
"S 2X= 1.S.A.k p.t n E.l.y m 1.B 0 W W t eXa.& % rXP  .[ @.T =  .HXB a a yXiX#XP x A.x o.R :X*Xe y H oX).{ X ~.4.3.~.e V -Xr.l * ",
"> 2X*.1.5.G.X z.@ W 6 D.% d G B 6..X6.1.[ W sX&.* 2.@ eX+.O.c.$ 1XjXa.{.n $X$Xx.r 2Xu 7.e E ` u.eXCXx.q 3.%.d *.V ~.,XiX+.oXy.q ",
"> 0XG q l #XFXMX8.J &.wX-.9 ) #X: 9 %Xs }.Z.# y V.g.e f c.W M fXj J k.+.#.1.6XnXVXnX .L T @.L L 9 CXoX-X%X .m -X_.{.jX*Xn h.A +X",
"l.9XN M , l.U.1 {.c.< d.rXq m.1.v W *.: - s = G e l w =.eXC.G.K o nX$XyX8 L = * | } Q [ O.|.K.j v._.(.~ ,X@.a } ' W.@ oXSX2X> =X",
"p.v k.6Xy.p.j.wX!.6.l f.b 3X7Xo 1 G ..@ $Xf h 3.* g.3.8.;.@ G 5XG A.a / V f L.% | R s E 0 Q.$.: ' W.E #.[ * n P.@ NXi a / {.F.o.",
"w.w.4 D N.C f.U.d.F D f.0.& F 2XD h M.z 7Xj.4 b.] Q.} g.eXD # s.FXK ` L c.R !.) a.+X}.B O.U & o _.<XW e 7.oX0 O.d f V e u.; *.~.",
"p.=Xn.g.{ k.0Xl 0X#XG.U.& n.2.= $ y pXA X eX4 o s U a $ A.,.# Z wXP oXrXf e oX] R | }.} p Q + j.e.<X[ e 6.{. Xe q H iX-XX.o.9 !.",
"3.4XZXaX%XO.a.|.O.%X#X; C.@X=.x S l.y.p.2.5.d.% yXn z.% 7X;.: ~ ;.I i.; $ r 9 {.} | | R -X- D g.e.a %Xw 3.q =X@X2X .C.X.B nXoX8 ",
"t <.8 ).(.[ a {..X6.S.9 #X{ rXvX$ y.{.z.S.h N.H } 0Xc.d.K 1X2X] P.n } - 9 j e }.n - }.9 #.Q =.l.-Xm A H 3.F.$ rXV.w l.m 3.5.-X%X",
"Z.o @.n i.9 e $ 6Xh.eXx < > U.8.@ < q 1.L >.U.P 3.M @ & I.6.$ +.L #.[ $ VXy 0Xa +Xa #.%XV k.h.m x.b = k V.V.b rX# o 0X0XF.o r 5X",
"g.w AX@X/ * -.P -.N.dX3 U.2.x P.h o * B.: K.vXX @ nX2XU.V.@ 5.C.5XNXI G <Xh r OX{.R oXpX$ V.pXk.&Xl.D.P bX> D.6Xj.l +Xy.{ D.- K.",
"-XR %X9 B 9 *.y x z D h H z.uX4Xy 8.*.V.3.= N.= B.1.K I iXXX3.u X oX4.4.<X< 9  .8 @.(.$ w U.(  XF.qXz y.1X@ pXq w v uXcXl.M.{ mX",
"^.:Xo f 9.- 8.K 3.rXM.2.* @.T aX9.*.G.C.A l.U.G.C.w 1 4.e XXu , S r y m.'.@ q 9X@.E xXe M.U.Z z y.4 < #XeXh 9X7.eXx. X-X0XbXrX: ",
"n L.Z.b  .k.( 6 7 y @ u.(.P.U.D =.K S =.x u J.-Xs.,.m $.; ~ #X:.= } <.<.oXw &.d.#X$XG.eX5XA.nXj.eX3.#.[ iXp 5X~ @ v.' /.$ /.=XM.",
"8 2.k.3.y F.).h % #X@ ../ sXL.1 U.A.8.wX$ ; K I e 4.4Xh {.R f % 2. Xj d R w m.bXlXpXS.y m.rXd.| lXm.u R ~ I L.t K.fX6.e 3 E ) v.",
"<Xu.l A.@ M ' q 3.V.wXy =.DX  f.m.@ m.$ , G , >.e  XKX8.!.~ .X, Z  XiX} ~ qXo 1XX.k.X.* G.@XC X P e.s.3.$ a.B.+.P.i...(.#X@ _.O.",
"{ ` !.5X6 +XNXW I P 4.H U.L.O & & U.m.V.1.Z.2.= (.V W 3X'.s / -X@X{ mXe A A k qXb , * ..pX( &.% y.( +Xw.v M.a.$Xr ' I ).&X@XXXp ",
"G w ` 4.:. X}.4XS.D H % x 0XdX-.X &.wX@ x 7XmX@ .Xh oXB @.:X4X@Xc D bX1.5X8XV.@Xl.| > b.b.r fXl.n.D.y.q.y.G KXDXt !.:.C.N 7 a.B.",
"-.c.s.= *.xX*.a H 8.l.N 2.m 8XdX4 MX1Xw #XI I  X9 2 E $X* !.2Xl.F %.K fXJ.  jXP rXbX7XeXk.{.uXS.1 ;XC -.P.n eXZ.L /.D p.z.*.( d.",
"@X,.c.V.;.r K -Xz m.b I y {.A.A.I.@ 7X0X6XqXpXJ W <.!.9 (.#.4.C 5 7 k j.J.D.gX, rXN U.-.e %Xj  Xl U.X C oX=.}.e e /.#.r.~ O.Z w ",
"; h 4.=Xh.C.H '.qX*.b.y T.OX5.S.eX@ h.b ..qX-X*.a HX#.1.T 3X; e.& O =X2.T.lX: % HX# wXK = } (.3.= -.D D 3.p o 3.Z.E - T e eXe.g.",
"` E FXE.F dX8.e ; h ;.w W m.$X@ K A 8.o w . ' ,X0 p } * ^ 9 1 N.&X! 2.8.F.( S d.dX& vXV.0 U 7.9 o F c q.4X- w rXu.h n D , mXa h ",
"s CX/ % 2  XK.= H K.L...r 3 v.- 1XS.} 6.w 8X!.(.AXOXO.}.X.J & < t.t.2., k.= N rXF N.f.@ {.Q j ; h.c X MXc.> l b 2., A.g.A AX#.t ",
"(.i $ h.V yX;.3.H ;.P...I P.u ; P S ` T o C * G 7.6.~ ).e., < MXw.^ ! * n oX/ > j.U.z K x a $ G.eXpXV.HXc 8X< A = ! m.b P y.z.2X",
"_ W.t I ] - X.9 uXk.m y.^ &XJ v H * -Xe M c n p.{.!.~ .X$ ,.R.;XBXP  X0XiXoX-Xm c.wXU.-.eXc.7Xw e $ LXI c 0.P =XD Z > > R.j.V e ",
"] B u.q.FX7.{ M N q @Xw ..VXpXU.A.w B.[ | D.U.P.q ; r._.Z A & y.-.f.m  .HXe ) +.V F.I.o eX4...g.W jXX.P c 0.h.w -X$ ^ F y.& w m ",
"W C.bXq.f iX$ @ T.; I.FXsX< pXdX# y.g L m %.m i.VX(.uX}.h.& & BX5 >.l N $..X^ n o.c.V.M.8.A.- $Xs eXr k D.z 6X4.).; ~ K pXvX;.| ",
"X =X& =Xr.5.C.>.# 1.jX,.1 ....7X  M.9.[ z.F W %X#.s ,X` VXw.j.'.w 6 *X, :.r | { r B f 5.h.3.O.%Xe l g.= nX#XmXjX9 n e.} b.o h ;X",
"o Y.8XcXc ' R r : !.r.v , ).A Z M.h %Xp *.g.!.oXXXs ,XyXX.6Xy.* 2.@ e.( >.u.w N c. .9 q q * OX[ V =Xw 1X7.7.* -XeXW.} s G.2.8.@X",
"r / $X$X{ V -.M 8 OX& 7 , Q S $ @ h M.w { nX!.) e M < K 1X> b.p.H.cXaX+X=X..) a.[ I , 3.$ k.H N N ) } #.a -X;.w <X). Xj.M.k :XW.",
"C.J V.X B 2X= e p M j.d.; Q 5.X @ , wX= g. .).,Xr c.M.h.k V.b.P n.p.l | X.y.%Xr b.v r %XQ.Q.1 @ G 7.B 4X*   e J < pXZ .X> T.ZXKX",
"4XI 0X9 t P.6XW T q P > n ) D *.@ w M o x eXe i.! @ H F.= P w k c l..X9XF.&  .c.r * |.i Y Y @ $ Z.t - fXP.M.(.* o 8.9 {.o 8.5 X ",
"w ..2XJ [ e  .nXC.w I e MX$ @ HX3.6XV.gX;.D ~ n a.P g.C.% k 6Xq.8Xk M z. .N 7.- %XO.XX_ Q.Q.*.u <.$ G 5.D A.#.J t 5X: 9 4X$Xy .."
};
