/* XPM */
static char *ce7f5d0fd36a43429d35e2210357e0c4XwSER3RaJpaILIzG[] = {
/* columns rows colors chars-per-pixel */
"64 64 256 2 ",
"   c #020D02",
".  c #001400",
"X  c #001C00",
"o  c #191F00",
"O  c #012300",
"+  c #092705",
"@  c #022C00",
"#  c #0A2B01",
"$  c #142903",
"%  c #033400",
"&  c #0B3301",
"*  c #023C00",
"=  c #0C3A00",
"-  c #0C380A",
";  c #133707",
":  c #133D01",
">  c #1B3C01",
",  c #0C2A15",
"<  c #0C3717",
"1  c #163A18",
"2  c #233A03",
"3  c #2A3716",
"4  c #13282D",
"5  c #173725",
"6  c #2B3B20",
"7  c #044401",
"8  c #0D4300",
"9  c #0C4C00",
"0  c #134301",
"q  c #1B4402",
"w  c #144B01",
"e  c #1B4C01",
"r  c #1B430C",
"t  c #15480D",
"y  c #1D4B0C",
"u  c #075500",
"i  c #1C5401",
"p  c #195405",
"a  c #1C5A01",
"s  c #084410",
"d  c #1B4214",
"f  c #194816",
"g  c #1A5516",
"h  c #234402",
"j  c #224C02",
"k  c #294708",
"l  c #234B0C",
"z  c #344B07",
"x  c #235302",
"c  c #2C5504",
"v  c #235B02",
"b  c #2B5C03",
"n  c #24520B",
"m  c #2B540D",
"M  c #245B0B",
"N  c #2B5C0B",
"B  c #345A06",
"V  c #254C13",
"C  c #284A19",
"Z  c #334D15",
"A  c #245312",
"S  c #2B5413",
"D  c #2C5B14",
"F  c #2C531B",
"G  c #275818",
"H  c #335B14",
"J  c #345B1B",
"K  c #385919",
"L  c #1B6300",
"P  c #137200",
"I  c #236400",
"U  c #2B6301",
"Y  c #2D6B01",
"T  c #2C630D",
"R  c #276909",
"E  c #336403",
"W  c #326B01",
"Q  c #386708",
"!  c #3A650C",
"~  c #346A0B",
"^  c #2B7506",
"/  c #3B7301",
"(  c #387606",
")  c #2C6616",
"_  c #366313",
"`  c #346A13",
"'  c #3C6C14",
"]  c #34641C",
"[  c #3B651C",
"{  c #376818",
"}  c #3C6B1C",
"|  c #2E7112",
" . c #3C7213",
".. c #397817",
"X. c #3C731B",
"o. c #194525",
"O. c #174737",
"+. c #294925",
"@. c #354C25",
"#. c #2B5825",
"$. c #335B24",
"%. c #365B29",
"&. c #2C4D37",
"*. c #2D5337",
"=. c #375936",
"-. c #2E6226",
";. c #346424",
":. c #3D6523",
">. c #3C6B24",
",. c #3B642B",
"<. c #376928",
"1. c #3D7323",
"2. c #3A7528",
"3. c #286134",
"4. c #3A6537",
"5. c #3D7335",
"6. c #434A12",
"7. c #425817",
"8. c #456508",
"9. c #457606",
"0. c #427A03",
"q. c #56720C",
"w. c #456919",
"e. c #487717",
"r. c #437B14",
"t. c #43761C",
"y. c #437B1C",
"u. c #53781B",
"i. c #425A2B",
"p. c #4A5B33",
"a. c #436C24",
"s. c #446C2C",
"d. c #486928",
"f. c #457423",
"g. c #4B7423",
"h. c #487927",
"j. c #4C7D24",
"k. c #44722C",
"l. c #447B2B",
"z. c #4B7C2B",
"x. c #547928",
"c. c #456737",
"v. c #436B33",
"b. c #546A3B",
"n. c #447433",
"m. c #4A7434",
"M. c #4C7B33",
"N. c #457638",
"B. c #4C753B",
"V. c #4D7C3C",
"C. c #527C33",
"Z. c #577837",
"A. c #537D3C",
"S. c #667E32",
"D. c #395A42",
"F. c #3D684A",
"G. c #4A6D4C",
"H. c #4C7645",
"J. c #577947",
"K. c #577B57",
"L. c #637949",
"P. c #566864",
"I. c #637C67",
"U. c #388308",
"Y. c #368611",
"T. c #478605",
"R. c #538B07",
"E. c #499402",
"W. c #539402",
"Q. c #498619",
"!. c #558818",
"~. c #4B921B",
"^. c #599614",
"/. c #689211",
"(. c #679919",
"). c #55A20A",
"_. c #6AB00D",
"`. c #4C8425",
"'. c #4B852A",
"]. c #588827",
"[. c #53832B",
"{. c #548B2D",
"}. c #4D962B",
"|. c #589528",
" X c #4B8536",
".X c #538332",
"XX c #5A8435",
"oX c #528A34",
"OX c #5B843C",
"+X c #588939",
"@X c #599435",
"#X c #5C943B",
"$X c #638C28",
"%X c #669828",
"&X c #759A2B",
"*X c #658939",
"=X c #679937",
"-X c #5FA137",
";X c #69A628",
":X c #75AD2E",
">X c #69A438",
",X c #76A939",
"<X c #598646",
"1X c #5E9442",
"2X c #5C954B",
"3X c #538C51",
"4X c #5D8B51",
"5X c #5E9158",
"6X c #638B46",
"7X c #748C4D",
"8X c #649344",
"9X c #699648",
"0X c #739747",
"qX c #688A57",
"wX c #6C9856",
"eX c #749858",
"rX c #6BA447",
"tX c #76A949",
"yX c #7CB44F",
"uX c #6AA555",
"iX c #78A756",
"pX c #768E6E",
"aX c #6C9A65",
"sX c #769967",
"dX c #6BA865",
"fX c #7AA867",
"gX c #87A93B",
"hX c #ABE81F",
"jX c #8FA153",
"kX c #87AB59",
"lX c #86B357",
"zX c #90B454",
"xX c #839862",
"cX c #87A767",
"vX c #87B668",
"bX c #88B777",
"nX c #92B673",
"mX c #8FCB54",
"MX c #A1CB59",
"NX c #8AC76A",
"BX c #94C96E",
"VX c #98C876",
"CX c #A6CB76",
"ZX c #ADEA68",
"AX c #C3F96D",
"SX c #738A80",
"DX c #86AA87",
"FX c #90B988",
"GX c #ABB29E",
"HX c #98C885",
"JX c #AAD695",
"KX c #B1E1A1",
"LX c #CEF9B7",
"PX c #BCEFCE",
"IX c #D0CCCC",
"UX c #DEFDC2",
/* pixels */
"IXIXIXIXIXIXIXIX@ O 6X].q [.T w z.fXY ( }.iX% = W ;.8 `.% a {.U ..@ X OX% g _.0 w.aX5.u | R.w.8.z # nX*X8.zXIXIXIXIXIXIXIXIXIXIX",
"IXIXIXIXIXIXIXIXj d H $XwX*X ...7 9 ^ |.@X2.Q.S b 1 8 ^.w O @ ]...t # ,Xv @ _.tXd.p.dX^ i &X2 B kX*X&Xw.q jXIXIXIXIXIXIXIXIXIXIX",
"IXIXIXIXIXIXIXIXf.X C =Xd k.@Xq @ %  .{.R g r.q c , l W.z.=.*.N.] % ].%X% }.).7 k I.g Y j.h UXMXCX&XcXx.hXzXIXIXIXIXIXIXIXIXIXIX",
"IXIXIXIXIXIXIXo.@ 1 G.u.K.= K nXZ.a.kX_ n.H.0X[ e D.%.;Xj . e.) 9 w %Xk f L U.#.C P.% u k.jX*Xx.$X9.3 S.hXjXZ.IXIXIXIXIXIXIXIXIX",
"IXIXIXIXIXIXIX;.f % 2.FXK.@ + d.o.G 8Xs.E <XXX/ 9. X= C.$   +.%X. l.T.7 P ^ <X<X; FX: D x i ) U.^ 7XxXx.hXxXCXIXIXIXIXIXIXIXIXIX",
"IXIXIXIXIXIXIX0 oXbX#.r y 0 b.0X*.qXXX> b p 1.>X-XHXy : m.. 0 W.t ..Q.g 9 ) d.fXX bXV n @ =XU ( ].*XL.j /.cXmXIXIXIXIXIXIXIXIXIX",
"IXIXIXIXIXsX,.x B H.O c ' O cXC.5 wX*X  =X5.-. .w s.N.j.{.t `.E.#XrXL p 5Xl.l ; y JX<.= j.r...~ iX! %.z c j VXW._.IXIXIXIXIXIXIX",
"IXIXIXIX%Xx l c OXJ.& N f.6XeX@ 4.M.C.qXj.A f : = K K ].|.wX~.).L a ( a <Xh.$.eXJ.wXJXb t.Q.u q k ( 5.  q.oXdX@ x.IXIXIXIXIXIXIX",
"IX$Xq = 9.: d.F sX' x n.a. .cX/ 4.fXj . & aX#.c w.xX$ Q %X| * v  .2.W * [ 9.%.F 0 J <Xe rX`.^ b.H 9 <Xz q.NX8.k :X> 9.tXIXIXIXIX",
"8.. h *X& 4 c X qXb 8 k.uX!.!.!.bXN B Z B #.L.8.u.IXIXIXIXIXIXIXIXIXIXIXIXIXIXB.N.N.9X% 1.M a % Q 8 % %XzX! o &X%Xc i.!.9Xu <.-X",
"q.$ 7.q.  P.<Xq OXrXy.I ..Y 8.^.2Xw ].> lXIXIXIXIXIXIXIXIXIXIXIXIXIXIXIXIXIXIXIXIXIXIX<.5.G e dX/ OXqXI R.[.q.%XA W./ /.tXL SXv ",
"P.b.9.> o d.& ' ( z.`.W T.~ !.T.] e.u.IXIXIXIXIXIXIXIXIXIXIXIXIXIXIXIXIXIXIXIXIXIXIXIXIXIX-.d.7 E.Z.3 _.E.*XB.PXR i 8.GXd.`.DX_ ",
"HX> fX  S E Y v .XJ V 1X@X9 9 mX( IXIXIXIXIXIXIXIXIXIXIXIXIXIXIXIXIXIXIXIXIXIXIXIXIXIXIXIXIXIX'.#X'.l.[.c $X>XE 7.L.O LXx.B K.X ",
"CXC.FXqXV 8X`.b f.r m.>.R | e IXIXIXIXIXIXIXIXIXIXIXIXIXl K z.M 9 2.w p IXIXIXIXIXIXIXIXIXIXIXIXIX= #XN vXkX9.e d.Z.sXM.w.w.qX# ",
"W = @ & ; @ [.8X& V r = '.`.IXIXIXIXIXIXIXIXIXIXQ.>X*XwX% D F O D x l.iXG H.p.k IXIXIXIXIXIXIXIXIXIX.X: Z.Z.' $X2 x.CX2.#Xt.7XS ",
"=Xf.@ v.O iXZ.:.J K s.: yXIXIXIXIXIXIXIXIXIXw 8 @XW '.+Xp wXqXv.k.% ` = G -.6 K T tXIXIXIXIXIXIXIXIXIX6XeX; @ tXz =X=XY.1.f.j.e ",
"= y g ;.m f.m.X :.6XM.9XIXIXIXIXIXIXIXIX% u ,.O Q.% i T a l.+.d :.q z.% G <.@.A.M `.].b IXIXIXIXIXIXIXIXq h a.*Xe.=X}.Q...rX=Xr.",
";.J ;.] D v K O m.0 } IXIXIXIXIXIXIXX @ VXNX4Xn } f.j ] M w H.,.F # q m.T c d.. | BX~ 0 2.9 IXIXIXIXIXIXIXXXM.j c w.U Y.U ].!.>X",
"~ h.l.;.w _ B.eX+X{.IXIXIXIXIXIXIXc.@.+ g R.<.w 9Xv.S 0 ..!.t n.X V k g.+X0 h 8XuXa #XiX`.a X.IXIXIXIXIXIXIXn j x.+Xv y./ $X9.lX",
">X!.i N N i q O 0 IXIXIXIXIXIXIX$.s.d., @ ~. Xw k.K.C sXe ( p = & c.k h !.mXkXx M -.X.0 Q.( @X9 IXIXIXIXIXIXIXH H : ) a ,XMX%X(.",
"v 2.] V.O vXN.eXIXIXIXIXIXIXIXj y.OXH.< C j 1 Y :X% 4.%.& H ! O  XyXH.*XAX( g i R U T ,.Z 2 W E = IXIXIXIXIXIXIX=Xv v T x.U gXP ",
"t 8 @ %XiXwXa.#.IXIXIXIXIXIXJ.! b _ C O V Z.U y y e b iXnX,.b J.l.@X%.x.(.@X4Xy.I ^ ,.:.O d.8 {.!.W IXIXIXIXIXIXY.tX..oXw r./.Y.",
"X l |.0.~ <Xt.IXIXIXIXIXIXV X & c iXA X C eX$XO sX .r.A 3Xx %XdX'.8 H @ i -Xm iX/ fX..*.<X#.R p % m.B IXIXIXIXIXIX( | u Y.,X/.I ",
"J.l = x ' & w IXIXIXIXIXZ.&.5 @.O .X9Xq O K.: = E |.iXo.n.W +XX.% a N q v NXO BXe v #.p aX5.3Xl.>X|.4.X IXIXIXIXIX^ 7 9 `.;X7.U ",
"Z.Z.C ; : ! IXIXIXIXIXIX=.&.1 C : .Xj.& C K.; ].^.z.K.% ` IXIXIXIXIXIX{ T uX%Xw.q.d.;Xz.|.) s R T.i H.C IXIXIXIXIXIX' t.tX/ cXJ ",
"x.w.  5 $.w.IXIXIXIXIXSXG.=.  C # 0 iXh.k =.9Xa U & wXIXIXIXIXIXIXIXIXIXIX..q.!.2 &Xw.:Xw '.R T 8 % 8  .'.IXIXIXIXIX0 0XMXb J.7X",
"*XH c.@.X > IXIXIXIXIXqXJ l j S d r [ c m $.~...@ IXIXIXIXIXIXIXIXIXIXIXIXIXIXz *XxX/.g.=X) 2.1.0X0 q <.uXIXIXIXIXIX0 z.lXtXfXcX",
"s.,.Z.m.eXIXIXIXIXIXB $Xx y.u.S O & M.} : %.I I Y IXIXIXIXIXIXIXIXIXIXIXIXIXIXB L.7.$ u.} OX`.y . % `.=X9 * IXIXIXIXIXM tXb G.$X",
"j.` =XnX7.IXIXIXIXIXQ o V G.S A.HX XT .X# @.0 } IXIXIXIXIXIXIXIXIXIXIXIXIXIXIX,X!.].> i.H.V @ Q.v T.f.#.- t IXIXIXIXIX{ U.W.{.w ",
"N b [ j Z.IXIXIXIXIX! . & 5.C M...L g 4.> g.n 1XIXIXIXIXIXIXIXIXIXIXIXIXIXIXIXIXb j H :.m.w.5 ,.f.w ~ w r.].IXIXIXIXIXi ).Q.8 X.",
":.<Xl S cXIXIXIXIXe.eXZ.vX{.=Xe N.* }.r.l - C s.IXIXIXIXIXIXIXIXIXIXIXIXIXIXIXIX[ J S c !.MXd @ @ 0 W %X0.v ~ IXIXIXIX0 E.@Xj.tX",
"V <X% ;.V.IXIXIXIXx I.g.r b <.M 9 R M p wXf., $ IXIXIXIXIXIXIXIXIXIXIXIXIXIXIXIXl B.y [ U ;X%Xw > S $X!.' . R.IXIXIXIXD %X9.j % ",
"; <X#.<.>.IXIXIXIXT , Z.& x A N `.'.1.;.) M qX@.IXIXIXIXIXIXIXIXIXIXIXIXIXIXIXIXj <Xy 2.e Y /  .9XVXj.0 :.+.i IXIXIXIXuX9.].w.0 ",
": 6XS 0 l IXIXIXIXF @.eX%.8 Q H.- 8 @Xa oX5., r IXIXIXIXIXIXIXIXIXIXIXIXIXIXIXIXNXvX] G L ..G A 0 VX|.>X#X] U IXIXIXIX%Xv n.B oX",
"f.8Xn x : IXIXIXIXs.: %.eX8 c.;.i N #.- % a & A IXIXIXIXIXIXIXIXIXIXIXIXIXIXIXIX{ ~ R T | }.F.+.f.~.Q.Y >X..x IXIXIXIX|.ZX<X& *X",
"e.j g.8X' IXIXIXIXa.x p.m <X9XX r V [ @ +Xy t >.% IXIXIXIXIXIXIXIXIXIXIXIXIXIXIX[ U v ^ 9 Y.O.* ( T.Y X.) % v IXIXIXIXp ~ '.C.w.",
"8.B 2 Z m.IXIXIXIXIXC p.6.o J <XC d v.k 6Xd.2 z...IXIXIXIXIXIXIXIXIXIXIXIXIXIXW r.[.z.v | L $ X ^.,XT w 2.|.IXIXIXIXIXe t.& #.R.",
"u.=Xx.d._ IXIXIXIXIXB.J.$ x.:.% @ r eXB . eX2 X a IXIXIXIXIXIXIXIXIXIXIXIXIX|.( U ' .X| p R o d.9.,X) w 2.`.IXIXIXIXIX=X` } 0 T.",
"<.2XNXyX@XIXIXIXIXIXOX= C.XXJ V S g.w.y.>.,.i.& rXa f.IXIXIXIXIXIXIXIXIXIXe = `.` X.` U 1X% C a.9.x +Xq a.0 IXIXIXIXIX_ N vX}.8 ",
"t <.* ~.y.) IXIXIXIXIXt OX' qXfXO } j.`.V.d b.S ` 8Xs.,.J IXIXIXIXx ~ % 8 g w [.v % '.8 ..| $.f.=Xb T S } IXIXIXIXIXf.N >.<.=X@X",
"N.. ..v ..8 IXIXIXIXIXV ; : J.c.O q 0 ;.G *.Z.%.1.n O ; Z.>.@ { G r.N @ NXr 9Xi .Xi y.@XM f.f.N j.c & q m.IXIXIXIXIX0X9X[.X e 4X",
"a.e CX$XE & IXIXIXIXIXIXZ.:.y H.1 X % n.- F.xXX @ fX<XJ.m.O 2.M.3XNXD F >Xf y '.'.U {.iX# m.iXg.XXg.XXH IXIXIXIXIXIXx.w._ V.* F.",
"=Xb @X8 G 8 #.IXIXIXIXIXF j.tX<Xt 4.#.n.:.# b.& n.<.C J uX}.>.y . |.,.,.gX: = [ 7 ..Q.% r J.' x.x.7Xz w.IXIXIXIXIXj tXvXg.v._ bX",
"~.;XX p 2.* 4.IXIXIXIXIXIX..I yXn.#.A.C.B j.J.A.M.t > <.e }.y = V e q c.(.O 0 =Xr.Y lX0 d.J.c j w.2 2 IXIXIXIXIXIXz.].=X9XcXeX$ ",
"v G.H.c ;.f.Q 5 IXIXIXIXIXIXJ.C %.F V J V y 4.*XQ.=.b +.= W V.D.& ` *.2.|.q @.%.OX.X XaXJ.J.vXd.eXf.IXIXIXIXIXIXO l.( W.% W.*Xv.",
"7 <.f.:.r .X!.d IXIXIXIXIXIXIX; K.c.5.qX% = F #.e :.#X5 `.U i # >.[.g L U > b.fXiXiXV.r v.wXp.! tXIXIXIXIXIXIXIXF.aX1.9 < Y ~ M.",
">Xe.j B.X m ( 0 ,.IXIXIXIXIXIXIXc.O c.@ : A q &.w [.KXF.T.~ {.: B ].uXT W 0XX 6Xw.j.] & XX.XB . IXIXIXIXIXIXIX..H.9.[ !..XO ~...",
"! 0.T.4X5 [.mXT J K IXIXIXIXIXIXIXJ.c.m.<.N.[ & Q.c `  X(.i E 8X*XB bXe N B h 0Xx 0 # ] iX! @.IXIXIXIXIXIXIXy.oXx ( $.!.$XXX~.p ",
"V 0 / ,.&.].l.1XV.V Z IXIXIXIXIXIXIXqXO l 6XbXO {.f |.m ..;X1XXXk Z fX,.4XqXm.XXg.[ = m.z.e IXIXIXIXIXIXIXF KXSXt T.&.M.m 6 t.n.",
"%.s.!.& *.yX#.x A c.g.m IXIXIXIXIXIXIXIXOXJ J {.0 < W oX@ T.<Xj.@.+.Z aX=.  cXH eXkX6XwXIXIXIXIXIXIXIXIXH.v 9XN.) R.C y.j.#.B c.",
"XX%.d.m.,.e #.=Xm c.c H t IXIXIXIXIXIXIXIXIXiXD T 3.T.8 ..Q.,.b 2 6 h d.D.Z.fX& eXm IXIXIXIXIXIXIXIXIXc @XD '.8 w E.X.( W | B q ",
"= 1 ,.8Xs.z.Z ^.9XF C.r K.oXIXIXIXIXIXIXIXIXIXIXv HX` -.I 3X= q.2 . *X:.K.kX; # IXIXIXIXIXIXIXIXIXIXC C >.i X >.H.Y * U p wX0.w.",
"/ W DXI.F sX4.0 * d %.0 E c.oXIXIXIXIXIXIXIXIXIXIXIXIXIXW 0 ; m.$XB %.%.IXIXIXIXIXIXIXIXIXIXIXIXIXZ Z _ 6X* q eXr.d b C : nXi f ",
"a BX! # < [.G.* S G.G.a.r 1 M.* <XIXIXIXIXIXIXIXIXIXIXIXIXIXIXIXIXIXIXIXIXIXIXIXIXIXIXIXIXIXIX= s.z . nXa.: j c :.: B.a.m CXX.0 ",
"Q.7 % v.c tX#.<.D $.H.[ _ B.w = J V ( IXIXIXIXIXIXIXIXIXIXIXIXIXIXIXIXIXIXIXIXIXIXIXIXIXIXi & A.wXiXv.CXz 7X> ! & E c.j K w.h.<X",
"IXIXIXIX/ % } 8 iXf.c w.E *XD x S @ >Xw m IXIXIXIXIXIXIXIXIXIXIXIXIXIXIXIXIXIXIXIXIXIX$.wXs.6X0 w @ LXK Z 6.K *XF b & ; IXIXIXIX",
"IXIXIXIXIXX.] n n 0 +Xq } nXiXK.b.q n.D  .Z.J.H.0 IXIXIXIXIXIXIXIXIXIXIXIXIXIX .c A.J.O aX%.[ a.G iX] K z 6.s.q *X& IXIXIXIXIXIX",
"IXIXIXIXIXIX@ O K.= J.DXqX> tXpX+ [ s ) b +.b r.BXQ.tX`.c.+ $ MX3 =.j N o.{.Q v X.k.n.s.v.m.% +Xv uXe q S.z 6X;.!.IXIXIXIXIXIXIX",
"IXIXIXIXIXIXIX*.+ [ cX%.1 _ { <X  N.5.) z.F T +X..p >X/ NX8.d.(.> 5 $X: &.q ' _ i A y <.>.<.` 1Xw j f.& cXOXbXfX8 IXIXIXIXIXIXIX",
"IXIXIXIXIXIXIXe * r.0.n : !.! B s.f @Xp #.a.T.|.}.a rX=X` 6Xt.= :.O 9.! *.e.e c f.{ 8 0 0 % '.| c 6Xq <X2.2.% =XIXIXIXIXIXIXIXIX",
"IXIXIXIXIXIXIXIX7  X$ 3 : R y # @ d N.: ! vXQ.( e n : F <X; x.w.x.zXyX[.*X_ U f.D ] ; a.% >.S n N ` ` ..i #X%.q IXIXIXIXIXIXIXIX",
"IXIXIXIXIXIXIXIXp M d.i.= R ,.. O : qX# >.H !.>Xe k.v.s.l s.j.H x.u.j X.{ g.8Xe z.x w @XY.Q.; @ A 2.M 1X% . e D IXIXIXIXIXIXIXIX",
"IXIXIXIXIXIXIXIXv 8 J ; M R F F O q n O l wXw r.Q O S C.& K 0 2 6.w..X8Xz.; ] f.w % `.u P P O @ N.t * aXB.c.Q.% IXIXIXIXIXIXIXIX",
"IXIXIXIXIXIXIXIXM.e [ q nX% O HXa.6Xm.sX%.d Y x y.H a.C.# h 6Xw.7Xh v k.[ m 2.% 1X| }.R Y.~.#.y -.@ A ,.C B.X.IXIXIXIXIXIXIXIXIX"
};
